<svg xmlns="http://www.w3.org/2000/svg" version="1.1" xmlns:xlink="http://www.w3.org/1999/xlink" width="512" height="512" x="0" y="0" viewBox="0 0 512 512" style="enable-background:new 0 0 512 512" xml:space="preserve" class=""><g><path d="M256 128a10.66 10.66 0 0 0 10.667-10.667V96c0-5.896-4.771-10.667-10.667-10.667S245.333 90.104 245.333 96v21.333A10.66 10.66 0 0 0 256 128zM163.906 117.823c-2.958-5.115-9.49-6.875-14.573-3.906-5.104 2.948-6.854 9.469-3.906 14.573l10.667 18.469a10.657 10.657 0 0 0 9.25 5.333c1.813 0 3.646-.458 5.323-1.427 5.104-2.948 6.854-9.469 3.906-14.573l-10.667-18.469zM104.292 198.76l-18.469-10.667a10.643 10.643 0 0 0-14.573 3.906c-2.948 5.104-1.198 11.625 3.906 14.573l18.469 10.667a10.604 10.604 0 0 0 5.323 1.427c3.688 0 7.271-1.906 9.25-5.333 2.948-5.104 1.198-11.625-3.906-14.573zM436.844 390.76l-18.469-10.667c-5.115-2.958-11.635-1.208-14.573 3.906-2.948 5.104-1.198 11.625 3.906 14.573l18.469 10.667a10.604 10.604 0 0 0 5.323 1.427c3.688 0 7.271-1.906 9.25-5.333 2.948-5.104 1.198-11.625-3.906-14.573zM85.333 298.667A10.66 10.66 0 0 0 74.666 288H53.333a10.66 10.66 0 0 0-10.667 10.667 10.66 10.66 0 0 0 10.667 10.667h21.333a10.66 10.66 0 0 0 10.667-10.667zM469.333 298.667A10.66 10.66 0 0 0 458.666 288h-21.333a10.66 10.66 0 0 0-10.667 10.667 10.66 10.66 0 0 0 10.667 10.667h21.333a10.66 10.66 0 0 0 10.667-10.667zM93.625 380.094 75.156 390.76c-5.104 2.948-6.854 9.469-3.906 14.573a10.657 10.657 0 0 0 9.25 5.333c1.813 0 3.646-.458 5.323-1.427l18.469-10.667c5.104-2.948 6.854-9.469 3.906-14.573-2.958-5.114-9.51-6.864-14.573-3.905zM413.052 218.667c1.813 0 3.646-.458 5.323-1.427l18.469-10.667c5.104-2.948 6.854-9.469 3.906-14.573-2.969-5.115-9.5-6.865-14.573-3.906l-18.469 10.667c-5.104 2.948-6.854 9.469-3.906 14.573a10.66 10.66 0 0 0 9.25 5.333zM362.667 113.917c-5.104-2.969-11.635-1.208-14.573 3.906l-10.667 18.469c-2.948 5.104-1.198 11.625 3.906 14.573a10.604 10.604 0 0 0 5.323 1.427c3.688 0 7.271-1.906 9.25-5.333l10.667-18.469c2.948-5.105 1.198-11.625-3.906-14.573z"  opacity="1" data-original="#000000"></path><path d="M256 42.667c-141.156 0-256 114.844-256 256 0 42.75 10.771 85.094 31.156 122.448 2.823 5.167 9.292 7.063 14.479 4.25 5.167-2.823 7.073-9.302 4.25-14.479-18.677-34.219-28.552-73.031-28.552-112.219C21.333 169.271 126.604 64 256 64s234.667 105.271 234.667 234.667c0 39.188-9.875 78-28.552 112.219-2.823 5.177-.917 11.656 4.25 14.479a10.634 10.634 0 0 0 5.104 1.302 10.67 10.67 0 0 0 9.375-5.552C501.229 383.76 512 341.417 512 298.667c0-141.157-114.844-256-256-256z"  opacity="1" data-original="#000000"></path><path d="M266.625 180.396c-.479-5.5-5.094-9.729-10.625-9.729s-10.146 4.229-10.625 9.729l-18.927 215.646c-8.385 8.042-13.115 18.958-13.115 30.625 0 23.531 19.135 42.667 42.667 42.667s42.667-19.135 42.667-42.667c0-11.667-4.729-22.583-13.115-30.625l-18.927-215.646zM256 448c-11.76 0-21.333-9.573-21.333-21.333 0-6.615 3.104-12.771 8.5-16.896a10.672 10.672 0 0 0 4.156-7.542L256 303.354l8.677 98.875a10.672 10.672 0 0 0 4.156 7.542c5.396 4.125 8.5 10.281 8.5 16.896 0 11.76-9.573 21.333-21.333 21.333z"  opacity="1" data-original="#000000"></path></g></svg>