<svg width="24" height="24" viewBox="0 0 24 24" fill="none" xmlns="http://www.w3.org/2000/svg">
<path fill-rule="evenodd" clip-rule="evenodd" d="M17.25 15.2728C17.25 17.3858 15.14 19.5 12 19.5C8.85996 19.5 6.75 17.3858 6.75 15.2728C6.75 13.0812 8.17545 10.3518 9.85089 7.97573C10.6082 6.90179 11.3682 5.96632 11.9625 5.27526C12.5681 6.02032 13.354 7.03453 14.137 8.17914C14.9534 9.37256 15.7474 10.6799 16.3325 11.9522C16.9283 13.2478 17.25 14.3855 17.25 15.2728ZM5.25 15.2728C5.25 11.1952 9.09842 6.27823 10.9836 4.11422C11.5951 3.41228 12 3 12 3C12 3 12.3879 3.42883 12.9778 4.14716C14.8484 6.42525 18.75 11.615 18.75 15.2728C18.75 18.4359 15.7279 21 12 21C8.27208 21 5.25 18.4359 5.25 15.2728ZM8.62375 12.75H10.2374C9.93382 13.443 9.75 14.1001 9.75 14.6592C9.75 15.5176 10.5897 16.5 12 16.5V18C9.92893 18 8.25 16.5043 8.25 14.6592C8.25 14.0435 8.39325 13.395 8.62375 12.75Z"/>
</svg>
