<svg width="24" height="24" viewBox="0 0 24 24" fill="none" xmlns="http://www.w3.org/2000/svg">
<path d="M17.572 12.6559C17.8668 12.469 17.9966 12.119 17.9999 11.8074C18.0033 11.4964 17.8804 11.1381 17.5769 10.9541L17.3601 10.8227C14.0601 8.82293 10.62 7.22041 7.08157 6.03486C6.70274 5.90793 6.3874 6.14744 6.2361 6.43318C6.08532 6.71793 6.04929 7.12073 6.24158 7.46575L8.3063 11.1704C8.56231 11.6297 8.55895 12.2808 8.28592 12.7619L6.13994 16.5433C5.94678 16.8836 5.9673 17.2848 6.11781 17.5755C6.27101 17.8714 6.59276 18.0969 6.9696 17.9579C10.534 16.6433 14.0089 14.9153 17.3522 12.7953L17.572 12.6559Z" />
</svg>
