<svg width="12" height="12" viewBox="0 0 12 12" fill="none" xmlns="http://www.w3.org/2000/svg">
<path d="M5.3441 11.572C5.531 11.8668 5.881 11.9966 6.1926 11.9999C6.5036 12.0033 6.8619 11.8804 7.0459 11.5769L7.1773 11.3601C9.17707 8.0601 10.7796 4.62 11.9651 1.08157C12.0921 0.702742 11.8526 0.387402 11.5668 0.236102C11.2821 0.0853224 10.8793 0.0492922 10.5342 0.241582L6.8296 2.3063C6.3703 2.56231 5.7192 2.55895 5.2381 2.28592L1.4567 0.139942C1.1164 -0.053218 0.715198 -0.0326981 0.424498 0.117812C0.128598 0.271012 -0.096901 0.592762 0.042099 0.969602C1.3567 4.534 3.0847 8.0089 5.2047 11.3522L5.3441 11.572Z" />
</svg>
