<svg xmlns="http://www.w3.org/2000/svg" version="1.1" xmlns:xlink="http://www.w3.org/1999/xlink" width="512" height="512" x="0" y="0" viewBox="0 0 512 512" style="enable-background:new 0 0 512 512" xml:space="preserve" class=""><g><path fill="#ff884d" d="M446 214.18c3.46 157.39-188.03 270.65-190 271.81-1.97-1.16-193.46-114.42-190-271.81C68.29 110.29 152.08 26.01 256 26c103.92.01 187.71 84.29 190 188.18zM386 216c0-71.8-58.2-130-130-130s-130 58.2-130 130 58.2 130 130 130 130-58.2 130-130z" opacity="1" data-original="#ff884d"></path><path d="M256 495.99a9.994 9.994 0 0 1-5.074-1.383c-2.048-1.206-50.725-30.104-99.066-78.898-54.506-55.016-97.559-124.325-95.858-201.749 1.168-52.991 22.417-102.68 59.833-139.914C153.445 36.62 203.223 16.005 255.999 16c109.161.01 197.58 88.308 199.999 197.96.827 37.655-8.973 75.888-29.128 113.637-15.949 29.872-38.4 59.518-66.729 88.112-48.342 48.795-97.018 77.692-99.066 78.898A10 10 0 0 1 256 495.99zM255.999 36c-97.084.009-177.833 80.039-180.001 178.4-1.712 77.879 48.036 144.804 90.07 187.233 37.7 38.054 76.359 63.977 89.932 72.597 13.573-8.62 52.231-34.543 89.933-72.597 42.034-42.43 91.782-109.354 90.069-187.234-2.168-98.36-82.917-178.39-180.003-178.399z" fill="#000000" opacity="1" data-original="#000000"></path><path d="M256.02 496h-.04c-5.523 0-10-4.478-10-10a9.999 9.999 0 0 1 5.38-8.871 10.022 10.022 0 0 1 9.279 0 9.997 9.997 0 0 1 5.38 8.871c.001 5.522-4.476 10-9.999 10zM256 356c-77.196 0-140-62.804-140-140S178.804 76 256 76s140 62.804 140 140-62.804 140-140 140zm0-260c-66.168 0-120 53.832-120 120s53.832 120 120 120 120-53.832 120-120S322.168 96 256 96z" fill="#000000" opacity="1" data-original="#000000"></path><path fill="#ebe4f0" d="M240.08 165.13c5.97-11.37 17.9-19.13 31.63-19.13 14.73 0 27.37 8.91 32.83 21.63 16.457-2.252 28.88 14.217 22.75 29.27a28.465 28.465 0 0 1 8.71 20.53c0 15.78-12.79 28.57-28.57 28.57H200.29c-15.778 0-28.58-12.79-28.58-28.57s12.8-28.57 28.58-28.57h.25c-3.019-22.073 21.638-36.659 39.54-23.73z" opacity="1" data-original="#ebe4f0"></path><path d="M239.666 180.995a15.105 15.105 0 0 0-5.508-7.808c-4.45-3.271-5.406-9.53-2.135-13.98 3.272-4.451 9.531-5.405 13.98-2.135 6.115 4.495 10.672 10.963 12.832 18.213 1.577 5.293-1.436 10.862-6.729 12.439-5.306 1.581-10.867-1.449-12.44-6.729z" fill="#000000" opacity="1" data-original="#000000"></path><path d="M307.43 256H200.29c-21.273 0-38.58-17.214-38.58-38.57 0-17.951 12.331-33.078 28.968-37.359 3.232-21.529 25.394-35.061 46.093-27.847 19.926-23.665 57.392-21.045 73.779 5.359 18.066 1.788 31.065 18.685 27.821 36.815A38.472 38.472 0 0 1 346 217.43c0 21.268-17.303 38.57-38.57 38.57zm-107.14-57.14c-10.245 0-18.58 8.331-18.58 18.57 0 10.313 8.372 18.57 18.58 18.57h107.14c10.239 0 18.57-8.331 18.57-18.57a18.45 18.45 0 0 0-5.659-13.339 10 10 0 0 1-2.313-10.962c3.275-8.048-3.422-16.781-12.134-15.591a10 10 0 0 1-10.544-5.963A25.695 25.695 0 0 0 271.71 156c-9.586 0-18.314 5.28-22.776 13.778-2.824 5.377-9.766 7.023-14.702 3.463-10.943-7.892-25.595 1.033-23.785 14.262.822 6.007-3.853 11.356-9.908 11.356h-.249zm32.481-26.574h.01z" fill="#000000" opacity="1" data-original="#000000"></path></g></svg>