<svg xmlns="http://www.w3.org/2000/svg" version="1.1" xmlns:xlink="http://www.w3.org/1999/xlink" width="512" height="512" x="0" y="0" viewBox="0 0 451.688 451" style="enable-background:new 0 0 512 512" xml:space="preserve" class=""><g><path fill="#26a3b9" d="M257.68 188.387c0 17.582-14.254 31.836-31.832 31.836-17.582 0-31.836-14.254-31.836-31.836.004-17.578 31.836-63.575 31.836-63.575s31.832 45.997 31.832 63.575zM51.523 124.812s-31.832 46-31.832 63.575c0 17.582 14.254 31.836 31.836 31.836s31.832-14.254 31.832-31.836c-.004-17.578-31.836-63.575-31.836-63.575zm348.649 0s-31.832 46-31.832 63.575c0 17.582 14.254 31.836 31.836 31.836 17.578 0 31.832-14.254 31.832-31.836-.004-17.578-31.836-63.575-31.836-63.575zM132.887.349s-31.84 45.992-31.84 63.574c0 17.578 14.254 31.832 31.836 31.832s31.832-14.254 31.832-31.832C164.723 46.34 132.887.348 132.887.348zm185.922 0s-31.832 46-31.832 63.578 14.253 31.832 31.832 31.832c17.582 0 31.836-14.254 31.836-31.832C350.648 46.34 318.809.348 318.809.348zm0 0" opacity="1" data-original="#26a3b9" class=""></path><g fill="#168aa5"><path d="M216 139.934c9.352 15.023 22 37.379 22 48.453a31.831 31.831 0 0 1-22 30.265 31.805 31.805 0 0 0 28.563-4.5 31.814 31.814 0 0 0 13.117-25.765c0-17.578-31.832-63.575-31.832-63.575s-4.36 6.301-9.848 15.122zM41.68 139.934c9.351 15.023 22 37.375 22 48.453a31.831 31.831 0 0 1-22 30.265 31.805 31.805 0 0 0 28.562-4.5 31.814 31.814 0 0 0 13.117-25.765c0-17.598-31.832-63.575-31.832-63.575s-4.359 6.301-9.847 15.122zM123.047 15.465c9.351 15.023 22 37.379 22 48.457a31.83 31.83 0 0 1-22 30.262 31.805 31.805 0 0 0 28.562-4.5 31.791 31.791 0 0 0 13.118-25.762c0-17.602-31.832-63.578-31.832-63.578s-4.364 6.3-9.848 15.12zM318.809.348s-4.36 6.3-9.848 15.12c9.352 15.024 22 37.38 22 48.458-.008 13.785-8.887 26.004-22 30.261a31.8 31.8 0 0 0 28.566-4.496 31.793 31.793 0 0 0 13.121-25.77c0-17.581-31.84-63.573-31.84-63.573zM400.172 124.813s-4.36 6.3-9.848 15.12c9.352 15.024 22 37.376 22 48.454a31.831 31.831 0 0 1-22 30.265 31.805 31.805 0 0 0 28.563-4.5 31.814 31.814 0 0 0 13.117-25.765c0-17.578-31.832-63.575-31.832-63.575zm0 0" fill="#168aa5" opacity="1" data-original="#168aa5" class=""></path></g><path fill="#d9ecf2" d="M160.43 344.875h183.879c7.203 0 13.039 5.84 13.039 13.04 0 7.202-5.836 13.042-13.04 13.042H160.43c-7.203 0-13.043-5.84-13.043-13.043 0-7.2 5.84-13.039 13.043-13.039zm160.996-52.727c0 7.204 5.836 13.04 13.039 13.04H385.8c7.199 0 13.039-5.836 13.039-13.04 0-7.203-5.84-13.039-13.04-13.039h-51.34c-7.198 0-13.034 5.84-13.034 13.04zm-264.68 0c0 7.204 5.84 13.04 13.043 13.04h210.664c7.2 0 13.04-5.836 13.04-13.04 0-7.203-5.84-13.039-13.04-13.039H69.785c-7.203 0-13.043 5.836-13.043 13.04zM0 357.914c0 7.203 5.84 13.043 13.04 13.043h92.6c7.2 0 13.04-5.84 13.04-13.043 0-7.2-5.84-13.039-13.04-13.039H13.048C5.844 344.871 0 350.711 0 357.915zm385.797 0c0 7.203 5.836 13.043 13.039 13.043h39.812c7.204 0 13.04-5.84 13.04-13.043 0-7.2-5.836-13.039-13.04-13.039h-39.82c-7.2.004-13.031 5.844-13.031 13.04zm0 0" opacity="1" data-original="#d9ecf2"></path><path fill="#bdd9e5" d="M379.145 292.152c0 7.203-5.84 13.04-13.04 13.04h19.692c7.2 0 13.039-5.837 13.039-13.04s-5.84-13.039-13.04-13.039h-19.69c7.199 0 13.039 5.836 13.039 13.04zM273.8 292.152c0 7.203-5.84 13.04-13.038 13.04h19.691c7.2 0 13.04-5.837 13.04-13.04s-5.84-13.039-13.04-13.039h-19.691c7.199 0 13.039 5.836 13.039 13.04zM438.648 344.875h-19.691c7.2 0 13.04 5.84 13.04 13.04 0 7.202-5.84 13.042-13.04 13.042h19.691c7.204 0 13.04-5.84 13.04-13.043 0-7.2-5.836-13.039-13.04-13.039zM344.309 344.875h-19.696c7.2 0 13.04 5.84 13.04 13.04 0 7.202-5.84 13.042-13.04 13.042h19.692c7.199 0 13.039-5.84 13.039-13.043 0-7.2-5.84-13.039-13.04-13.039zM105.64 344.875H85.95c7.198 0 13.038 5.84 13.038 13.04 0 7.202-5.84 13.042-13.039 13.042h19.692c7.199 0 13.039-5.84 13.039-13.043 0-7.2-5.84-13.039-13.04-13.039zm0 0" opacity="1" data-original="#bdd9e5"></path></g></svg>