<svg xmlns="http://www.w3.org/2000/svg" version="1.1" xmlns:xlink="http://www.w3.org/1999/xlink" width="512" height="512" x="0" y="0" viewBox="0 0 458.225 458" style="enable-background:new 0 0 512 512" xml:space="preserve" class=""><g><path fill="#fabe02" d="M357.063 179.484 229.117 282.168h67.367l-42.355 88.57 133.25-119.511h-64.73zm0 0" opacity="1" data-original="#fabe02"></path><path fill="#f59a1d" d="M299.707 251.227h22.941l34.414-71.743-37.308 29.942zM364.434 251.227l-93.07 83.476-17.235 36.035 133.25-119.511zm0 0" opacity="1" data-original="#f59a1d"></path><path fill="#b1b1b9" d="M411.848 110.488c3.543-27.746-10.121-54.867-34.528-68.531-24.406-13.668-54.668-11.148-76.472 6.371-24.145-35.71-66.98-53.953-109.457-46.617-42.48 7.34-76.711 38.898-87.473 80.64-26.715-13.081-58.719-8.43-80.61 11.712s-29.183 51.644-18.37 79.355c10.816 27.71 37.523 45.95 67.269 45.941h331.2c28.624.032 52.44-21.992 54.652-50.527 2.207-28.539-17.934-53.965-46.223-58.344zm0 0" opacity="1" data-original="#d9ecf2" class=""></path><g fill="#bdd9e5"><path d="M411.848 110.488a68.523 68.523 0 0 0-22.426-59.965 68.523 68.523 0 0 0-62.176-15.261c33.969 8.11 56.297 40.61 51.676 75.226 28.285 4.38 48.43 29.805 46.219 58.344-2.211 28.535-26.028 50.559-54.653 50.527h32.922c28.625.032 52.442-21.992 54.653-50.527 2.21-28.539-17.934-53.965-46.223-58.344zM99.691 219.36h69.633l43.602-90.872zM76.816 75.098a188.455 188.455 0 0 0 28.871 60.437 113.607 113.607 0 0 1-1.75-53.2 71.912 71.912 0 0 0-27.12-7.237zm0 0" fill="#939397" opacity="1" data-original="#bdd9e5" class=""></path></g><path fill="#fabe02" d="M192.91 128.488 30.852 258.551h85.335L62.532 370.738 232.38 219.36H149.32zm0 0" opacity="1" data-original="#fabe02"></path><path fill="#f59a1d" d="M209.434 219.36 79.574 335.097l-17.043 35.64L232.38 219.36zM126.379 219.36h22.941l43.59-90.872-37.308 29.942zm0 0" opacity="1" data-original="#f59a1d"></path></g></svg>