<svg xmlns="http://www.w3.org/2000/svg" version="1.1" xmlns:xlink="http://www.w3.org/1999/xlink" width="512" height="512" x="0" y="0" viewBox="0 0 451.952 451" style="enable-background:new 0 0 512 512" xml:space="preserve" class=""><g><path fill="#d9ecf2" d="M408.98 202.055c0 107.265-86.953 194.218-194.214 194.218-107.266 0-194.22-86.953-194.22-194.218C20.547 94.793 107.5 7.84 214.767 7.84c107.261 0 194.214 86.953 194.214 194.215zm0 0" opacity="1" data-original="#d9ecf2" class=""></path><g fill="#bdd9e5"><path d="M214.777 7.84a195.42 195.42 0 0 0-23.168 1.426c97.618 11.683 171.098 94.484 171.098 192.797 0 98.316-73.48 181.117-171.098 192.8 71.621 8.57 142.09-23.258 183.008-82.664 40.918-59.402 45.54-136.594 12-200.453-33.539-63.86-99.71-103.871-171.84-103.906zm0 0" fill="#bdd9e5" opacity="1" data-original="#bdd9e5" class=""></path><path d="M221.629 290.41c0 14.692-11.91 26.602-26.602 26.602s-26.597-11.91-26.597-26.602c0-14.687 11.906-26.598 26.597-26.598s26.602 11.91 26.602 26.598zM70.156 331.672c14.758-10.379 18.856-30.469 9.348-45.8-9.508-15.337-29.324-20.59-45.184-11.99a194.165 194.165 0 0 0 35.836 57.79zM330.09 165.176c0 26.203-21.242 47.445-47.445 47.445s-47.446-21.242-47.446-47.445 21.242-47.446 47.446-47.446 47.445 21.243 47.445 47.446zM143.055 138.367c0 14.805-12 26.809-26.809 26.809-14.805 0-26.805-12.004-26.805-26.809 0-14.804 12-26.808 26.805-26.808 14.809 0 26.809 12.004 26.809 26.808zM194.543 58.492c0-8.512 6.902-15.414 15.414-15.414h116.309a195.442 195.442 0 0 1 34.37 30.828H209.958c-8.516 0-15.414-6.902-15.414-15.414zm206.648 198h-49.375c-8.511 0-15.414 6.899-15.414 15.41 0 8.512 6.903 15.414 15.414 15.414h37.473a192.935 192.935 0 0 0 11.887-30.816zm0 0" fill="#bdd9e5" opacity="1" data-original="#bdd9e5" class=""></path></g><path fill="#d9ecf2" d="M354.89 256.5a192.706 192.706 0 0 1-10.913 28.61 15.278 15.278 0 0 0 7.84 2.206h37.472c.977-2 1.89-4 2.8-6.043.266-.597.548-1.203.798-1.789a186.226 186.226 0 0 0 2.597-6.316c.188-.48.399-.961.567-1.441.875-2.286 1.71-4.59 2.504-6.914l.258-.762a214.182 214.182 0 0 0 2.375-7.547zM279.902 43.078a195.324 195.324 0 0 1 34.403 30.824h46.332a195.51 195.51 0 0 0-25.094-23.882 193.493 193.493 0 0 0-9.262-6.926h-46.379zm0 0" opacity="1" data-original="#d9ecf2" class=""></path><path fill="#bdd9e5" d="M22.328 228.031h52.285c8.512 0 15.41-6.898 15.41-15.41s-6.898-15.414-15.41-15.414H20.672c-.04 1.602-.125 3.227-.125 4.852.015 8.687.613 17.363 1.781 25.972zm0 0" opacity="1" data-original="#bdd9e5" class=""></path><path fill="#fabe02" d="m411.238 58.45-24.226 9.066 7.539-24.746-16.11-20.239 25.864-.48L418.57.477l8.45 24.449 24.933 6.902-20.644 15.594 1.14 25.84zm0 0" opacity="1" data-original="#fabe02"></path><path fill="#f59a1d" d="m418.57.477-1.539 30.41 12.09 6.379-15.14 9.605 18.468 26.39-1.14-25.84 20.644-15.593-24.933-6.902zm0 0" opacity="1" data-original="#f59a1d"></path><path fill="#fabe02" d="M42.066 400.648 26.594 418.54l-4.79-23.168L0 386.184l20.555-11.715 2.004-23.574 17.492 15.93 23.043-5.38-9.746 21.559 12.238 20.25zm0 0" opacity="1" data-original="#fabe02"></path><path fill="#f59a1d" d="m22.559 350.895 10.234 26.367 13.77-1.875-6.598 14.14 25.62 13.727-12.237-20.25 9.746-21.559-23.043 5.38zm0 0" opacity="1" data-original="#f59a1d"></path></g></svg>