<?xml version="1.0" encoding="utf-8"?>
<svg viewBox="0 0 500 500" xmlns="http://www.w3.org/2000/svg">
  <g transform="matrix(1, 0, 0, 1, 104.45056915283206, 25.70960617065431)"/>
  <g transform="matrix(1, 0, 0, 1, 10.480220794677763, 31.349929809570327)"/>
  <g transform="matrix(0.7624359726905823, 0, 0, 0.7624359726905823, 87.88987731933597, 41.18614959716798)" style="">
    <g transform="matrix(1.101063, 0, 0, 1.101063, -102.457504, -38.010777)" style="">
      <path fill="#d9ecf2" d="M33.652 0h175.61c18.367 0 33.258 14.89 33.258 33.262v381.261c0 18.372-14.891 33.262-33.258 33.262H33.652c-18.37 0-33.261-14.89-33.261-33.262V33.262C.39 14.89 15.28 0 33.652 0zm0 0" opacity="1" data-original="#d9ecf2" class=""/>
      <path fill="#bdd9e5" d="M209.262 0h-22.043c18.37 0 33.261 14.89 33.261 33.262v381.261c0 18.372-14.89 33.262-33.261 33.262h22.043c18.367 0 33.258-14.89 33.258-33.262V33.258C242.52 14.887 227.629 0 209.262 0zm0 0" opacity="1" data-original="#bdd9e5"/>
      <path fill="#fabe02" d="M150.656 325.375V112.422c0-16.129-13.074-29.203-29.199-29.203-16.129 0-29.2 13.074-29.2 29.203v212.953c-19.116 12.855-27.589 36.691-20.87 58.723 6.718 22.035 27.047 37.09 50.082 37.09s43.367-15.055 50.086-37.09c6.718-22.032-1.754-45.868-20.871-58.723zm0 0" opacity="1" data-original="#fabe02"/>
      <path fill="#f59a1d" d="M135.855 343.246V306.79c0-3.867-3.132-7-7-7-3.867 0-7 3.133-7 7v36.457c-12.824 3.508-21.078 15.961-19.308 29.137 1.77 13.18 13.016 23.012 26.308 23.012 13.297 0 24.54-9.832 26.31-23.012 1.769-13.176-6.485-25.63-19.31-29.137zm0 0" opacity="1" data-original="#f59a1d"/>
      <path fill="#f59a1d" d="M83.922 368.82a52.3 52.3 0 0 1 23.133-43.445V112.422c.011-13.274 8.968-24.867 21.804-28.23a29.117 29.117 0 0 0-36.601 28.23v212.953c-20.453 13.523-28.746 39.445-19.945 62.328s32.328 36.567 56.566 32.902c-25.785-3.668-44.95-25.738-44.957-51.785zm0 0" opacity="1" data-original="#f59a1d"/>
      <path fill="#d8283f" d="M121.457 375.832c-3.867 0-7-3.133-7-7v-62.043a7.001 7.001 0 0 1 14 0v62.031a7 7 0 0 1-7 7.012zm0 0" opacity="1" data-original="#d8283f"/>
      <path fill="#ff414d" d="M148 368.828c0 14.66-11.883 26.543-26.543 26.543S94.91 383.488 94.91 368.828s11.887-26.543 26.547-26.543S148 354.168 148 368.828zm0 0" opacity="1" data-original="#ff414d" class=""/>
      <g fill="#002d42">
        <path d="M61.371 98.719h-19.02a7.001 7.001 0 0 1 0-14h19.02a7.001 7.001 0 0 1 0 14zM61.371 129.445h-19.02a7.001 7.001 0 0 1 0-14h19.02a7.001 7.001 0 0 1 0 14zM61.371 160.168h-19.02c-3.867 0-7-3.133-7-7s3.133-7 7-7h19.02c3.867 0 7 3.133 7 7s-3.133 7-7 7zM61.371 190.887h-19.02a7.001 7.001 0 0 1 0-14h19.02a7.001 7.001 0 0 1 0 14zM61.371 221.621h-19.02a7.001 7.001 0 0 1 0-14h19.02a7.001 7.001 0 0 1 0 14zM61.371 252.336h-19.02c-3.867 0-7-3.133-7-7s3.133-7 7-7h19.02c3.867 0 7 3.133 7 7s-3.133 7-7 7zM61.371 283.059h-19.02a7.001 7.001 0 0 1 0-14h19.02a7.001 7.001 0 0 1 0 14zM61.371 313.79h-19.02a7.001 7.001 0 0 1 0-14h19.02a7.001 7.001 0 0 1 0 14zm0 0" fill="#002d42" opacity="1" data-original="#002d42"/>
      </g>
      <path fill="#ff414d" d="M210.96 91.719c0 9.574-7.76 17.332-17.331 17.332-9.574 0-17.332-7.758-17.332-17.332 0-9.57 7.758-17.332 17.332-17.332 9.57 0 17.332 7.761 17.332 17.332zm0 0" opacity="1" data-original="#ff414d" class=""/>
      <path fill="#d8283f" d="M193.629 74.387a17.17 17.17 0 0 0-4.992.8c7.34 2.141 12.383 8.868 12.383 16.512s-5.043 14.371-12.383 16.512c1.613.512 3.297.781 4.992.8 9.469-.144 17.066-7.859 17.066-17.327 0-9.473-7.597-17.188-17.066-17.332zm0 0" opacity="1" data-original="#d8283f"/>
      <path fill="#002d42" d="M82.223 42.684c0-14.746 9.289-25.176 22.402-25.176 13.2 0 22.398 10.426 22.398 25.176 0 14.824-9.222 25.254-22.398 25.254-13.11 0-22.402-10.43-22.402-25.254zm32.402 0c0-8.297-4.113-14.184-10-14.184-5.813 0-9.93 5.887-9.93 14.184s4.118 14.257 9.93 14.257c5.898.004 10.012-5.953 10.012-14.257zM131.457 29.219c.297-8.227 7.055-14.746 15.29-14.746s14.991 6.52 15.288 14.746c-.297 8.23-7.055 14.75-15.289 14.75s-14.992-6.52-15.289-14.75zm23.297 0a8.042 8.042 0 0 0-8.223-7.754 8.042 8.042 0 0 0-7.847 8.129c.054 4.402 3.636 7.945 8.039 7.941a8.284 8.284 0 0 0 8.047-8.316zm0 0" opacity="1" data-original="#002d42"/>
    </g>
  </g>
</svg>