<svg xmlns="http://www.w3.org/2000/svg" version="1.1" xmlns:xlink="http://www.w3.org/1999/xlink" width="512" height="512" x="0" y="0" viewBox="0 0 454.995 454" style="enable-background:new 0 0 512 512" xml:space="preserve" class=""><g><path fill="#d9ecf2" d="M46.031 110.09c-3.515-27.555 10.051-54.485 34.285-68.055 24.239-13.574 54.29-11.07 75.946 6.328C180.238 12.906 222.77-5.199 264.945 2.086c42.176 7.289 76.16 38.621 86.852 80.066 26.531-12.992 58.312-8.379 80.05 11.621 21.743 20.004 28.981 51.293 18.243 78.813-10.742 27.516-37.266 45.629-66.805 45.613H54.402c-28.41.016-52.047-21.847-54.238-50.18-2.195-28.328 17.793-53.57 45.867-57.93zm0 0" opacity="1" data-original="#d9ecf2" class=""></path><path fill="#bdd9e5" d="M378.82 211.2h-7.879l6.965-6.97a6.997 6.997 0 0 0 0-9.898 6.997 6.997 0 0 0-9.898 0l-16.863 16.867h-23.028l16.766-16.762a6.997 6.997 0 0 0 0-9.898 6.997 6.997 0 0 0-9.899 0l-16.77 16.766v-23.032l16.872-16.867a7.005 7.005 0 0 0 0-9.898 7.002 7.002 0 0 0-9.902 0l-6.97 6.972v-7.886a7.001 7.001 0 0 0-14 0v7.886l-6.964-6.968c-2.734-2.735-7.168-2.735-9.902 0s-2.735 7.164 0 9.898l16.867 16.867v23.028l-16.766-16.766a7.002 7.002 0 0 0-9.902 0 6.997 6.997 0 0 0 0 9.899l16.77 16.769h-23.024l-16.867-16.867a7.002 7.002 0 0 0-9.903 0 6.997 6.997 0 0 0 0 9.898l6.961 6.961h-7.879c-3.867 0-7 3.133-7 7h146.68c.852 0 1.68-.101 2.524-.129a6.992 6.992 0 0 0-6.989-6.87zm0 0" opacity="1" data-original="#bdd9e5"></path><path fill="#bdd9e5" d="M383.285 74.79a70.85 70.85 0 0 0-19.172 2.667c34.551 9.578 56.711 43.215 51.871 78.742-4.84 35.528-35.183 62.012-71.039 62h38.34c39.602 0 71.703-32.105 71.703-71.703 0-39.601-32.101-71.707-71.703-71.707zM313.453 82.148a71.284 71.284 0 0 1 31.488-7.363c1.598 0 3.133.137 4.7.238-17-51.343-69.168-82.375-122.403-72.8 41.88 7.527 75.543 38.738 86.215 79.925zm0 0" opacity="1" data-original="#bdd9e5"></path><path fill="#bdd9e5" d="M350.055 134.957s21.71-11.078 22.504-59.324a71.824 71.824 0 0 0-20.762 6.515 112.78 112.78 0 0 1-1.742 52.809zm0 0" opacity="1" data-original="#bdd9e5"></path><path fill="#26a3b9" d="M126.02 289.637h26a7.001 7.001 0 0 0 0-14h-12l8.343-8.344c2.735-2.73 2.735-7.164 0-9.898s-7.164-2.735-9.898 0l-8.34 8.363v-12c0-3.863-3.137-7-7-7-3.867 0-7 3.137-7 7v26l-10.8 10.8-10.802-10.8v-26a7.001 7.001 0 0 0-14 0v12l-8.32-8.344a6.997 6.997 0 0 0-9.898 0 7.002 7.002 0 0 0 0 9.902l8.347 8.32h-12a7.001 7.001 0 0 0 0 14h26l10.801 10.802-10.8 10.8h-26c-3.868 0-7 3.133-7 7s3.132 7 7 7h12l-8.344 8.344a7.002 7.002 0 0 0 0 9.902 7.005 7.005 0 0 0 9.898 0l8.344-8.347v12a7.001 7.001 0 0 0 14 0v-26l10.8-10.797 10.801 10.797v26c0 3.867 3.133 7 7 7 3.868 0 7-3.133 7-7v-12l8.344 8.347a7.005 7.005 0 0 0 9.899 0 7.002 7.002 0 0 0 0-9.902l-8.375-8.344h12c3.867 0 7-3.133 7-7s-3.133-7-7-7h-26l-10.801-10.8zm0 0" opacity="1" data-original="#26a3b9"></path><path fill="#168aa5" d="M140.742 257.414a6.99 6.99 0 0 1 0 9.902l-8.344 8.32h7.622l8.343-8.343a6.99 6.99 0 0 0 .453-9.316 6.992 6.992 0 0 0-9.21-1.48c.41.265.792.573 1.136.917zM86.93 253.77v26l10.797 10.8 3.812-3.812-6.992-7v-26a6.987 6.987 0 0 0-10.797-5.86 6.98 6.98 0 0 1 3.18 5.872zM122.5 253.77v12l7.621-7.618v-4.382a6.99 6.99 0 0 0-10.8-5.86 6.988 6.988 0 0 1 3.179 5.86zM151.387 282.66c0 3.863-3.133 7-7 7h7.62a7.001 7.001 0 0 0 0-14h-7.62c3.867 0 7 3.133 7 7zM118.398 289.66l-10.785 10.781 10.785 10.786h7.622l-10.786-10.786 10.786-10.78zM122.5 335.125v12a6.989 6.989 0 0 1-3.2 5.863 6.988 6.988 0 0 0 10.802-5.863v-4.379zM140.02 325.238h-7.622l8.344 8.344a6.99 6.99 0 0 1-1.137 10.8 6.992 6.992 0 0 0 9.211-1.48 6.995 6.995 0 0 0-.453-9.32zM64.586 257.414l8.344 8.344v-7.621l-.727-.723a6.994 6.994 0 0 0-8.758-.918c.41.266.793.574 1.14.918zM152.008 311.238h-7.621c3.867 0 7 3.133 7 7s-3.133 7-7 7h7.62c3.868 0 7-3.133 7-7s-3.132-7-7-7zM72.93 335.125l-8.344 8.344c-.348.347-.73.656-1.14.922a6.979 6.979 0 0 0 8.757-.922l.727-.723zM97.715 310.344l-10.797 10.8v26a6.99 6.99 0 0 1-3.203 5.86 6.988 6.988 0 0 0 10.8-5.86v-26l6.977-6.976zm0 0" opacity="1" data-original="#168aa5"></path><path fill="#26a3b9" d="M378.824 218.2c0-3.868-3.133-7-7-7h-7.883l6.965-6.97a6.997 6.997 0 0 0 0-9.898 6.997 6.997 0 0 0-9.898 0l-16.863 16.867h-23.028l16.766-16.762a6.997 6.997 0 0 0 0-9.898 6.997 6.997 0 0 0-9.899 0l-16.77 16.766v-23.032l16.872-16.867a7.005 7.005 0 0 0 0-9.898 7.002 7.002 0 0 0-9.902 0l-6.965 6.972v-7.886a7.001 7.001 0 0 0-14 0v7.886l-6.965-6.968a7.002 7.002 0 0 0-9.902 0 6.997 6.997 0 0 0 0 9.898l16.867 16.867v23.028l-16.766-16.766a7.002 7.002 0 0 0-9.902 0 6.997 6.997 0 0 0 0 9.899l16.77 16.769h-23.036l-16.867-16.867c-2.734-2.735-7.168-2.735-9.902 0s-2.735 7.164 0 9.898l6.968 6.969h-7.879c-3.867 0-7 3.133-7 7s3.133 7 7 7h7.88l-6.97 6.969c-2.734 2.734-2.734 7.164 0 9.898s7.169 2.735 9.903 0l16.867-16.875h23.028l-16.77 16.766a7.002 7.002 0 0 0 9.902 9.902l16.766-16.77v23.028l-16.867 16.871c-2.735 2.73-2.735 7.164 0 9.899s7.168 2.734 9.898 0l6.969-6.97v7.88a7.001 7.001 0 0 0 14 0v-7.88l6.969 6.97a7.002 7.002 0 0 0 9.902 0 7.005 7.005 0 0 0 0-9.899l-16.871-16.871v-23.027l16.77 16.77a7.001 7.001 0 0 0 9.902-9.9L321.117 225.2h23.028l16.867 16.867a6.997 6.997 0 0 0 9.898 0 6.997 6.997 0 0 0 0-9.898l-6.969-6.969h7.883c3.867 0 7-3.133 7-7zm0 0" opacity="1" data-original="#26a3b9"></path><g fill="#168aa5"><path d="m273.668 184.531 16.77 16.766V194.5l-10-10a6.974 6.974 0 0 0-8.34-1.14 6.86 6.86 0 0 1 1.57 1.171zM280.45 251.867l10-10v-6.8l-16.77 16.769c-.465.45-.989.832-1.559 1.14a6.91 6.91 0 0 0 8.34-1.14zM283.484 151.512l6.97 6.968v-6.8l-.188-.188a6.974 6.974 0 0 0-8.34-1.14c.57.308 1.094.699 1.558 1.16zM240.645 194.336l16.867 16.867h6.8l-16.867-16.867a6.974 6.974 0 0 0-8.34-1.14 6.87 6.87 0 0 1 1.54 1.14zM364.129 194.336a6.995 6.995 0 0 1 0 9.898l-6.969 6.965h6.8l6.97-6.969a6.978 6.978 0 0 0 .656-9.167 6.976 6.976 0 0 0-8.996-1.872 6.887 6.887 0 0 1 1.539 1.145zM321.305 151.512a7.002 7.002 0 0 1 2.05 4.949 7.002 7.002 0 0 1-2.05 4.95l-16.868 16.866v23.028l6.797-6.797v-16.235l16.871-16.867a6.978 6.978 0 0 0 .657-9.168 6.976 6.976 0 0 0-8.996-1.87 6.887 6.887 0 0 1 1.539 1.144zM331.105 184.531a7 7 0 0 1 0 9.898l-16.77 16.77h6.802l16.746-16.762a6.978 6.978 0 0 0-8.34-11.039c.57.305 1.098.684 1.562 1.133zM304.438 150.594v7.886l6.796-6.8v-1.106c0-3.867-3.132-7-7-7a6.903 6.903 0 0 0-3.39.914 6.958 6.958 0 0 1 3.594 6.106zM363.941 225.2h-6.8l6.968 6.968a6.995 6.995 0 0 1 0 9.898 6.885 6.885 0 0 1-1.562 1.141 6.98 6.98 0 0 0 8.34-11.039zM321.117 225.2h-6.8l16.769 16.765a7.004 7.004 0 0 1 0 9.902c-.465.45-.992.836-1.563 1.14a6.982 6.982 0 0 0 8.34-11.042zM257.512 225.2l-16.867 16.866a6.863 6.863 0 0 1-1.56 1.141 6.905 6.905 0 0 0 8.34-1.14l16.86-16.868zM371.824 211.2h-6.8c3.867 0 7 3.132 7 7 0 3.866-3.133 7-7 7h6.8c3.867 0 7-3.134 7-7 0-3.868-3.133-7-7-7zM290.438 277.922l-6.954 6.969c-.464.449-.988.836-1.558 1.14a6.98 6.98 0 0 0 8.34-1.14l.187-.188zM304.438 277.922v7.879a6.964 6.964 0 0 1-3.602 6.09 6.9 6.9 0 0 0 3.39.91c3.868 0 7-3.133 7-7v-1.098zM311.219 258.125v-16.246l-6.797-6.8v23.026l16.867 16.872a6.988 6.988 0 0 1 2.05 4.949 7.002 7.002 0 0 1-2.05 4.949c-.465.45-.992.836-1.562 1.14a6.98 6.98 0 0 0 8.34-11.038zm0 0" fill="#168aa5" opacity="1" data-original="#168aa5"></path></g><path fill="#26a3b9" d="M306.988 374.438h-14.5l10.399-10.399a7.002 7.002 0 0 0 0-9.902 7.005 7.005 0 0 0-9.899 0l-20.304 20.3h-5.86a20.077 20.077 0 0 0-11.738-11.738v-5.86l20.293-20.296a7.002 7.002 0 0 0-9.895-9.91l-10.398 10.402v-14.504a7.001 7.001 0 0 0-14 0v14.5l-10.402-10.402a7.005 7.005 0 0 0-9.899 0 7.002 7.002 0 0 0 0 9.902l20.3 20.309v5.867a20.082 20.082 0 0 0-11.757 11.754h-5.887l-20.296-20.3a7.002 7.002 0 0 0-9.68.198 7.003 7.003 0 0 0-.223 9.68l10.403 10.399h-14.5a7.001 7.001 0 0 0 0 14h14.5l-10.403 10.402a7.005 7.005 0 0 0 0 9.898 7.002 7.002 0 0 0 9.903 0l20.296-20.3h5.868a20.092 20.092 0 0 0 11.754 11.757v5.868l-20.293 20.296a6.997 6.997 0 0 0 0 9.899 6.997 6.997 0 0 0 9.898 0l10.398-10.399v14.504a7.001 7.001 0 0 0 14 0V425.86l10.403 10.399a6.997 6.997 0 0 0 9.898 0 6.997 6.997 0 0 0 0-9.899l-20.281-20.28v-5.868a20.082 20.082 0 0 0 11.738-11.774h5.86l20.296 20.297c2.735 2.735 7.165 2.735 9.899 0s2.734-7.164 0-9.898l-10.399-10.402h14.5a7.001 7.001 0 0 0 0-14zm-58.922 13.085a6.085 6.085 0 1 1 6.086-6.086 6.092 6.092 0 0 1-6.086 6.102zm0 0" opacity="1" data-original="#26a3b9"></path><path fill="#168aa5" d="m224.637 326.633 10.398 10.402V331l-4.351-4.367a6.987 6.987 0 0 0-7.965-1.336c.71.336 1.36.789 1.918 1.336zM249.031 322.531v14.5l6.055-6.031v-8.469a6.972 6.972 0 0 0-3.254-5.922 6.953 6.953 0 0 0-6.746-.37 6.975 6.975 0 0 1 3.945 6.292zM197.113 354.16l20.293 20.293h5.871c0-.039.04-.07.055-.105l-20.187-20.188a6.975 6.975 0 0 0-7.965-1.336 6.931 6.931 0 0 1 1.933 1.336zM296.852 354.16a6.995 6.995 0 0 1 0 9.899l-10.399 10.398h6.031l10.399-10.398a6.98 6.98 0 0 0-7.96-11.219c.71.328 1.366.773 1.929 1.32zM241.98 381.453a6.07 6.07 0 0 1 3.067-5.25 5.978 5.978 0 0 0-3.016-.832 6.086 6.086 0 1 0 0 12.172 6.017 6.017 0 0 0 3.016-.832 6.07 6.07 0 0 1-3.067-5.258zM269.328 326.633a7.004 7.004 0 0 1 0 9.902l-20.297 20.305v5.867a20.092 20.092 0 0 1 11.758 11.754h5.867l.11-.106a20.08 20.08 0 0 0-11.68-11.656v-5.86l20.293-20.296a6.981 6.981 0 0 0 .766-8.984 6.987 6.987 0 0 0-8.727-2.254 6.958 6.958 0 0 1 1.91 1.328zM292.488 388.438h-6.031l10.398 10.402a6.93 6.93 0 0 1-1.93 11.234 6.978 6.978 0 0 0 8.727-2.254 6.976 6.976 0 0 0-.765-8.98zM306.988 374.438h-6.031a7.001 7.001 0 0 1 0 14h6.031a7.001 7.001 0 0 0 0-14zM255.086 406.078v-5.867a20.089 20.089 0 0 0 11.7-11.649l-.13-.125h-5.867a20.099 20.099 0 0 1-11.758 11.758v5.868l20.297 20.296a6.929 6.929 0 0 1 1.977 6.125 6.912 6.912 0 0 1-3.91 5.11 6.982 6.982 0 0 0 8.73-2.254 6.981 6.981 0 0 0-.766-8.98zM235.031 425.875l-10.398 10.398a6.875 6.875 0 0 1-1.934 1.336 6.975 6.975 0 0 0 7.965-1.336l4.363-4.363zM249.031 425.875v14.504a6.983 6.983 0 0 1-4 6.293 6.962 6.962 0 0 0 10-6.293v-8.473zM223.277 388.438h-5.87l-20.294 20.296a7.014 7.014 0 0 1-1.933 1.336 6.904 6.904 0 0 0 7.965-1.336l20.187-20.187a.276.276 0 0 1-.055-.11zm0 0" opacity="1" data-original="#168aa5"></path><path fill="#d9ecf2" d="M215.313 270.484c0 7.223-5.86 13.082-13.086 13.082-7.223 0-13.082-5.859-13.082-13.082 0-7.226 5.859-13.086 13.082-13.086 7.226 0 13.085 5.86 13.085 13.086zm150.648 54.754c-9.664.012-17.488 7.852-17.484 17.512.003 9.664 7.836 17.496 17.5 17.496 9.66.004 17.5-7.824 17.507-17.488a17.503 17.503 0 0 0-17.523-17.52zm-236.988 64.125c-7.977 0-14.446 6.465-14.446 14.442 0 7.98 6.47 14.445 14.446 14.445s14.445-6.465 14.445-14.445c0-7.977-6.469-14.442-14.445-14.442zm0 0" opacity="1" data-original="#d9ecf2" class=""></path><path fill="#bdd9e5" d="M202.227 257.398a13 13 0 0 0-5.34 1.164c4.71 2.094 7.746 6.766 7.746 11.922s-3.035 9.829-7.746 11.922a13.077 13.077 0 1 0 5.34-25.008zM128.973 389.36c-1.832.003-3.645.359-5.34 1.046a14.4 14.4 0 0 1 0 26.8 14.432 14.432 0 1 0 5.34-27.835zM365.96 325.238a17.251 17.251 0 0 0-5.339.922c7.238 2.281 12.156 8.996 12.156 16.586s-4.918 14.3-12.156 16.586c1.719.582 3.524.895 5.34.918 9.668 0 17.504-7.836 17.504-17.504 0-9.668-7.836-17.504-17.504-17.504zm0 0" opacity="1" data-original="#bdd9e5"></path></g></svg>