<svg xmlns="http://www.w3.org/2000/svg" version="1.1" xmlns:xlink="http://www.w3.org/1999/xlink" width="512" height="512" x="0" y="0" viewBox="0 0 453.962 453" style="enable-background:new 0 0 512 512" xml:space="preserve" class=""><g><path fill="#d9ecf2" d="M375.348 61.89a79.482 79.482 0 0 0-34.578 7.942C323.387 26.668 280.87-1.02 234.367.543c-46.504 1.562-87.066 32.039-101.512 76.273a72.457 72.457 0 0 0-64.527 39.82 52.897 52.897 0 0 0-50.805 21.489 52.904 52.904 0 0 0-4.07 55.012A52.915 52.915 0 0 0 60.54 221.87h314.8c43.638-.758 78.614-36.344 78.614-79.988 0-43.64-34.976-79.23-78.613-79.988zm0 0" opacity="1" data-original="#d9ecf2" class=""></path><g fill="#bdd9e5"><path d="M315.871 74.34a72.808 72.808 0 0 1 24.899-4.508c-.868-2.082-2.707-6.16-3.204-7.137-20.46-42.61-65.914-67.32-112.796-61.328 40.632 4.918 76.324 36.285 91.101 72.973zM375.348 61.89a78.9 78.9 0 0 0-13.563 1.176c41.035 6.84 69.965 44.008 66.524 85.47-3.438 41.456-38.098 73.347-79.7 73.331h26.739c43.636-.758 78.613-36.344 78.613-79.988 0-43.64-34.977-79.23-78.613-79.988zm0 0" fill="#bdd9e5" opacity="1" data-original="#bdd9e5" class=""></path><path d="M428.602 201.445c-9.961-17.36-31.598-24.144-49.688-15.574-.371-36.496-27.848-67.008-64.11-71.187-36.257-4.176-69.956 19.289-78.616 54.742a46.65 46.65 0 0 0-47.461 7.18 46.655 46.655 0 0 0-15.997 45.261h202.618a79.602 79.602 0 0 0 53.254-20.422zM105.3 82.36c4.247 32.46 33.657 44.18 33.657 44.18s-15.945-19.688-6.09-49.724a71.963 71.963 0 0 0-27.566 5.543zm0 0" fill="#bdd9e5" opacity="1" data-original="#bdd9e5" class=""></path></g><path fill="#26a3b9" d="M395.285 202.637a38.277 38.277 0 0 0-16.37 3.691c-.372-36.496-27.849-67.012-64.11-71.187-36.258-4.18-69.957 19.285-78.618 54.742-17.425-7.184-37.468-3.168-50.78 10.176s-17.286 33.394-10.06 50.804a46.632 46.632 0 0 0 43.079 28.754h176.86c21.257 0 38.491-17.234 38.491-38.492s-17.234-38.492-38.492-38.492zm0 0" opacity="1" data-original="#26a3b9" class=""></path><path fill="#168aa5" d="M355.426 206.328a40.63 40.63 0 0 1 23.488 0c0-1.016-.062-2.031-.187-3.039a72.265 72.265 0 0 0-26.926-52.68 72.283 72.283 0 0 0-57.258-14.918c34.773 5.602 60.473 35.414 60.883 70.637zM395.285 202.637a37.85 37.85 0 0 0-11.656 1.87c18.027 5.825 29.133 23.9 26.183 42.614-2.945 18.715-19.074 32.5-38.019 32.496h23.492c21.258 0 38.492-17.234 38.492-38.492s-17.234-38.492-38.492-38.492zM223.813 186.703c-4.18 17.328 3.843 35.297 19.539 43.746 0 0-13.637-12.754-7.165-40.566a46.467 46.467 0 0 0-12.375-3.18zm0 0" opacity="1" data-original="#168aa5"></path><path fill="#26a3b9" d="M83.828 19.305h-56.66a7.001 7.001 0 0 1 0-14h56.66a7.001 7.001 0 0 1 0 14zM137.328 19.305h-25a7.001 7.001 0 0 1 0-14h25a7.001 7.001 0 0 1 0 14zM114.578 55.305H45.566c-3.863 0-7-3.137-7-7 0-3.868 3.137-7 7-7h69a7.001 7.001 0 0 1 0 14zm0 0" opacity="1" data-original="#26a3b9" class=""></path><path fill="#d9ecf2" d="M47.367 86.48H7a7.001 7.001 0 0 1 0-14h40.367a7.001 7.001 0 0 1 0 14zm0 0" opacity="1" data-original="#d9ecf2" class=""></path></g></svg>