<svg xmlns="http://www.w3.org/2000/svg" version="1.1" xmlns:xlink="http://www.w3.org/1999/xlink" width="512" height="512" x="0" y="0" viewBox="0 0 457.595 457" style="enable-background:new 0 0 512 512" xml:space="preserve" class=""><g><path fill="#d9ecf2" d="M457.555 145.887c0 74.597-60.477 135.074-135.078 135.074-74.598 0-135.075-60.477-135.075-135.074 0-74.602 60.477-135.078 135.075-135.078 74.601 0 135.078 60.476 135.078 135.078zm0 0" opacity="1" data-original="#d9ecf2"></path><path fill="#bdd9e5" d="M357.75 255.813a62.523 62.523 0 0 0-20 3.32c.227-2.852.375-5.723.375-8.633a107.158 107.158 0 0 0-48.695-89.84 107.163 107.163 0 0 0-101.86-8.18c2.278 46.684 28.532 88.872 69.407 111.536s90.562 22.586 131.367-.211a62.398 62.398 0 0 0-30.594-7.993zm0 0" opacity="1" data-original="#bdd9e5"></path><path fill="#bdd9e5" d="M322.477 10.809c-6.715.004-13.422.5-20.063 1.492C368.52 22.242 417.41 79.035 417.41 145.883c0 66.847-48.89 123.64-114.996 133.582 50.11 7.543 100.227-13.598 129.797-54.75 29.57-41.153 33.621-95.395 10.492-140.48-23.129-45.09-69.55-73.438-120.226-73.426zm0 0" opacity="1" data-original="#bdd9e5"></path><path fill="#d9ecf2" d="M327.25 207.332c0 10.219-8.281 18.5-18.5 18.5s-18.5-8.281-18.5-18.5c0-10.215 8.281-18.5 18.5-18.5s18.5 8.285 18.5 18.5zm0 0" opacity="1" data-original="#d9ecf2"></path><g fill="#bdd9e5"><path d="M221.906 236.031c10.227-7.234 13.055-21.18 6.453-31.824-6.605-10.648-20.351-14.312-31.379-8.367a135.192 135.192 0 0 0 24.926 40.191zM402.684 120.238c0 18.223-14.774 32.996-32.996 32.996-18.227 0-32.997-14.773-32.997-32.996 0-18.222 14.77-32.996 32.997-32.996 18.222 0 32.996 14.774 32.996 32.996zM272.605 101.59c0 10.297-8.347 18.644-18.644 18.644-10.297 0-18.645-8.347-18.645-18.644s8.348-18.645 18.645-18.645c10.297 0 18.644 8.348 18.644 18.645zM319.133 56.758h104.8a135.817 135.817 0 0 0-23.902-21.442h-80.898c-5.918 0-10.719 4.801-10.719 10.723 0 5.918 4.8 10.719 10.719 10.719zm0 0" fill="#bdd9e5" opacity="1" data-original="#bdd9e5"></path></g><path fill="#d9ecf2" d="M423.926 56.758a135.766 135.766 0 0 0-23.895-21.434h-40.144a135.696 135.696 0 0 1 23.93 21.442h40.109zm0 0" opacity="1" data-original="#d9ecf2"></path><path fill="#bdd9e5" d="M452.133 183.75h-34.34c-5.918 0-10.719 4.8-10.719 10.719 0 5.922 4.801 10.722 10.719 10.722h26.062a134.203 134.203 0 0 0 8.278-21.441zm0 0" opacity="1" data-original="#bdd9e5"></path><path fill="#d9ecf2" d="M417.793 183.75a10.617 10.617 0 0 0-6.45 2.207 133.856 133.856 0 0 1-3.948 11 10.703 10.703 0 0 0 10.398 8.23h26.062c1.63-3.34 3.122-6.75 4.47-10.242l.183-.457a140.349 140.349 0 0 0 3.629-10.738zm0 0" opacity="1" data-original="#d9ecf2"></path><path fill="#bdd9e5" d="M188.64 163.934h36.368c5.918 0 10.719-4.801 10.719-10.72 0-5.921-4.801-10.722-10.72-10.722h-37.523c-.027 1.125-.082 2.246-.082 3.38.012 6.038.426 12.073 1.239 18.062zm0 0" opacity="1" data-original="#bdd9e5"></path><path fill="#d9ecf2" d="M235.723 153.23a10.718 10.718 0 0 0-6.551-9.87 106.69 106.69 0 0 0-41.55 9.093c.03.602.023 1.2.065 1.809.04.61.079 1.11.118 1.664.21 2.687.465 5.36.8 8h36.364c5.926.015 10.738-4.774 10.754-10.696zm0 0" opacity="1" data-original="#d9ecf2"></path><path fill="#26a3b9" d="M337.809 275.75a62.541 62.541 0 0 0-20 3.32c.23-2.851.379-5.726.379-8.632.003-52.973-38.684-98.008-91.051-105.989-52.367-7.98-102.711 23.485-118.489 74.051-31.293-9.992-65.543-.66-87.441 23.828-21.898 24.492-27.36 59.563-13.945 89.55 13.418 29.993 43.203 49.294 76.054 49.29H337.81a62.718 62.718 0 0 0 54.73-31.207 62.717 62.717 0 0 0 0-63 62.721 62.721 0 0 0-54.73-31.211zm0 0" opacity="1" data-original="#26a3b9"></path><path fill="#168aa5" d="M291.387 270.527v.563a10.307 10.307 0 0 0 3.582 7.894 10.33 10.33 0 0 0 8.336 2.387l14.488-2.3.203-2.934c.11-1.895.176-3.774.176-5.7a106.596 106.596 0 0 0-120.36-106.296c53.489 6.855 93.555 52.375 93.575 106.297zM337.809 275.75a61.431 61.431 0 0 0-13.274 1.496c31.254 6.883 52.305 36.203 48.84 68.02-3.469 31.816-30.34 55.914-62.344 55.902h26.797c34.442-.273 62.215-28.27 62.215-62.707 0-34.441-27.773-62.438-62.215-62.711zm0 0" opacity="1" data-original="#168aa5"></path><path fill="#fabe02" d="m62.7 169.793-26.93 14.16 5.144-29.988-21.789-21.235 30.11-4.375 13.464-27.285 13.465 27.285 30.11 4.375-21.79 21.235 5.145 29.988zm0 0" opacity="1" data-original="#fabe02"></path><path fill="#f59a1d" d="m106.273 132.73-30.109-4.375L62.7 101.07l.567 27.285 17.879 10.91-18.446 19.02 26.93 25.668-5.145-29.988zm0 0" opacity="1" data-original="#f59a1d" class=""></path><path fill="#fabe02" d="m137.68 56.75-22.125 11.633 4.222-24.637-17.894-17.445 24.73-3.59L137.68.297l11.058 22.414 24.73 3.59-17.894 17.445 4.223 24.637zm0 0" opacity="1" data-original="#fabe02"></path><path fill="#f59a1d" d="m173.469 26.3-24.73-3.59L137.678.298l.462 22.414 14.687 8.96-15.148 15.622 22.117 21.09-4.223-24.637zm0 0" opacity="1" data-original="#f59a1d" class=""></path></g></svg>