<svg xmlns="http://www.w3.org/2000/svg" version="1.1" xmlns:xlink="http://www.w3.org/1999/xlink" width="512" height="512" x="0" y="0" viewBox="0 0 458.237 458" style="enable-background:new 0 0 512 512" xml:space="preserve" class=""><g><path fill="#d9ecf2" d="M296.559.117c24.539.016 45.867 16.86 51.566 40.73A34.18 34.18 0 1 1 362 106.27h-65.441c-29.313 0-53.075-23.761-53.075-53.07 0-29.312 23.762-53.074 53.075-53.074zm0 0" opacity="1" data-original="#d9ecf2" class=""></path><path fill="#bdd9e5" d="M362 37.871a33.91 33.91 0 0 0-8.355 1.086c16.707 4.238 27.644 20.25 25.507 37.355-2.132 17.102-16.672 29.934-33.906 29.934h16.77c18.879 0 34.187-15.305 34.187-34.187 0-18.883-15.308-34.188-34.187-34.188zm0 0" opacity="1" data-original="#bdd9e5"></path><path fill="#bdd9e5" d="M343.773 65.176a68.31 68.31 0 0 0-42.925 15.117 109.971 109.971 0 0 0-55.145-42.23 53.008 53.008 0 0 0 8.293 46.874 53.017 53.017 0 0 0 42.559 21.333H362a34.166 34.166 0 0 0 31.117-20.106 68.39 68.39 0 0 0-49.344-20.988zm0 0" opacity="1" data-original="#bdd9e5"></path><path fill="#bdd9e5" d="M348.125 63.39a46.788 46.788 0 0 0 14.352-25.48c-.16 0-.317-.023-.477-.023a33.98 33.98 0 0 0-13.875 2.96 49.923 49.923 0 0 1 0 22.544zm0 0" opacity="1" data-original="#bdd9e5"></path><path fill="#26a3b9" d="M411.848 163.55c3.543-27.75-10.121-54.866-34.528-68.534s-54.668-11.145-76.472 6.375c-24.145-35.711-66.98-53.957-109.461-46.618-42.477 7.34-76.707 38.899-87.469 80.641-26.715-13.078-58.719-8.43-80.61 11.711s-29.183 51.648-18.37 79.36c10.816 27.71 37.523 45.949 67.269 45.937h331.2c28.624.031 52.44-21.988 54.652-50.527 2.207-28.54-17.934-53.965-46.223-58.34zm0 0" opacity="1" data-original="#26a3b9" class=""></path><path fill="#168aa5" d="m207.41 202.672-55.629 69.746h76.403l55.629-69.746zM411.848 163.55a68.426 68.426 0 0 0-81.93-75.813c35.11 7.17 58.672 40.294 53.937 75.814 28.286 4.375 48.43 29.8 46.22 58.34-2.212 28.539-26.028 50.558-54.653 50.527h28c28.625.031 52.441-21.988 54.652-50.527 2.211-28.54-17.933-53.965-46.219-58.34zM80.695 128.508a110.844 110.844 0 0 0 24.989 60.086 113.605 113.605 0 0 1-1.75-53.2 72.165 72.165 0 0 0-23.239-6.886zm0 0" opacity="1" data-original="#168aa5"></path><path fill="#fabe02" d="M347.64 304.934h-50.066l-48.972 61.418h42.937l-48.223 60.472 115.7-76.168h-47.829zM258.414 202.648h-76.398l-74.73 93.72h65.519l-73.582 92.277 176.543-116.227h-72.98zm0 0" opacity="1" data-original="#fabe02"></path><g fill="#f59a1d"><path d="m340.98 350.656-77.738 51.18-19.926 24.988 115.7-76.168zM311.188 350.656l36.453-45.722h-18.032l-36.457 45.722zM202.785 272.418l55.63-69.77h-25.458l-55.629 69.77zM250.309 272.418l-122.954 80.953-28.132 35.274 176.543-116.227zm0 0" fill="#f59a1d" opacity="1" data-original="#f59a1d"></path></g></g></svg>