<?xml version="1.0" encoding="utf-8"?>
<svg viewBox="0 0 500 500" xmlns="http://www.w3.org/2000/svg">
  <g transform="matrix(1, 0, 0, 1, 104.45056915283206, 25.70960617065431)"/>
  <g transform="matrix(1, 0, 0, 1, 4.498701095581055, 15.34443855285646)">
    <g fill="#f59a1d"/>
    <g transform="matrix(1, 0, 0, 1, 7.141372, -1.274568)">
      <path fill="#d9ecf2" d="M457.555 145.887c0 74.597-60.477 135.074-135.078 135.074-74.598 0-135.075-60.477-135.075-135.074 0-74.602 60.477-135.078 135.075-135.078 74.601 0 135.078 60.476 135.078 135.078zm0 0" opacity="1" data-original="#d9ecf2"/>
      <path fill="#bdd9e5" d="M357.75 255.813a62.523 62.523 0 0 0-20 3.32c.227-2.852.375-5.723.375-8.633a107.158 107.158 0 0 0-48.695-89.84 107.163 107.163 0 0 0-101.86-8.18c2.278 46.684 28.532 88.872 69.407 111.536s90.562 22.586 131.367-.211a62.398 62.398 0 0 0-30.594-7.993zm0 0" opacity="1" data-original="#bdd9e5"/>
      <path fill="#bdd9e5" d="M322.477 10.809c-6.715.004-13.422.5-20.063 1.492C368.52 22.242 417.41 79.035 417.41 145.883c0 66.847-48.89 123.64-114.996 133.582 50.11 7.543 100.227-13.598 129.797-54.75 29.57-41.153 33.621-95.395 10.492-140.48-23.129-45.09-69.55-73.438-120.226-73.426zm0 0" opacity="1" data-original="#bdd9e5"/>
      <path fill="#d9ecf2" d="M327.25 207.332c0 10.219-8.281 18.5-18.5 18.5s-18.5-8.281-18.5-18.5c0-10.215 8.281-18.5 18.5-18.5s18.5 8.285 18.5 18.5zm0 0" opacity="1" data-original="#d9ecf2"/>
      <g fill="#bdd9e5">
        <path d="M221.906 236.031c10.227-7.234 13.055-21.18 6.453-31.824-6.605-10.648-20.351-14.312-31.379-8.367a135.192 135.192 0 0 0 24.926 40.191zM402.684 120.238c0 18.223-14.774 32.996-32.996 32.996-18.227 0-32.997-14.773-32.997-32.996 0-18.222 14.77-32.996 32.997-32.996 18.222 0 32.996 14.774 32.996 32.996zM272.605 101.59c0 10.297-8.347 18.644-18.644 18.644-10.297 0-18.645-8.347-18.645-18.644s8.348-18.645 18.645-18.645c10.297 0 18.644 8.348 18.644 18.645zM319.133 56.758h104.8a135.817 135.817 0 0 0-23.902-21.442h-80.898c-5.918 0-10.719 4.801-10.719 10.723 0 5.918 4.8 10.719 10.719 10.719zm0 0" fill="#bdd9e5" opacity="1" data-original="#bdd9e5"/>
      </g>
      <path fill="#d9ecf2" d="M423.926 56.758a135.766 135.766 0 0 0-23.895-21.434h-40.144a135.696 135.696 0 0 1 23.93 21.442h40.109zm0 0" opacity="1" data-original="#d9ecf2"/>
      <path fill="#bdd9e5" d="M452.133 183.75h-34.34c-5.918 0-10.719 4.8-10.719 10.719 0 5.922 4.801 10.722 10.719 10.722h26.062a134.203 134.203 0 0 0 8.278-21.441zm0 0" opacity="1" data-original="#bdd9e5"/>
      <path fill="#d9ecf2" d="M417.793 183.75a10.617 10.617 0 0 0-6.45 2.207 133.856 133.856 0 0 1-3.948 11 10.703 10.703 0 0 0 10.398 8.23h26.062c1.63-3.34 3.122-6.75 4.47-10.242l.183-.457a140.349 140.349 0 0 0 3.629-10.738zm0 0" opacity="1" data-original="#d9ecf2"/>
      <path fill="#bdd9e5" d="M188.64 163.934h36.368c5.918 0 10.719-4.801 10.719-10.72 0-5.921-4.801-10.722-10.72-10.722h-37.523c-.027 1.125-.082 2.246-.082 3.38.012 6.038.426 12.073 1.239 18.062zm0 0" opacity="1" data-original="#bdd9e5"/>
      <path fill="#d9ecf2" d="M235.723 153.23a10.718 10.718 0 0 0-6.551-9.87 106.69 106.69 0 0 0-41.55 9.093c.03.602.023 1.2.065 1.809.04.61.079 1.11.118 1.664.21 2.687.465 5.36.8 8h36.364c5.926.015 10.738-4.774 10.754-10.696zm0 0" opacity="1" data-original="#d9ecf2"/>
      <path fill="#fabe02" d="m62.7 169.793-26.93 14.16 5.144-29.988-21.789-21.235 30.11-4.375 13.464-27.285 13.465 27.285 30.11 4.375-21.79 21.235 5.145 29.988zm0 0" opacity="1" data-original="#fabe02"/>
      <path fill="#f59a1d" d="m106.273 132.73-30.109-4.375L62.7 101.07l.567 27.285 17.879 10.91-18.446 19.02 26.93 25.668-5.145-29.988zm0 0" opacity="1" data-original="#f59a1d" class=""/>
      <path fill="#fabe02" d="m137.68 56.75-22.125 11.633 4.222-24.637-17.894-17.445 24.73-3.59L137.68.297l11.058 22.414 24.73 3.59-17.894 17.445 4.223 24.637zm0 0" opacity="1" data-original="#fabe02"/>
      <path fill="#f59a1d" d="m173.469 26.3-24.73-3.59L137.678.298l.462 22.414 14.687 8.96-15.148 15.622 22.117 21.09-4.223-24.637zm0 0" opacity="1" data-original="#f59a1d" class=""/>
    </g>
  </g>
  <g transform="matrix(0.7901250123977661, 0, 0, 0.7901250123977661, 85.70860290527347, 152.73716735839844)" style="">
    <path fill="#d9ecf2" d="M116.93.113c-24.543.016-45.871 16.86-51.57 40.73a34.18 34.18 0 1 0-13.88 65.415h65.45c29.312 0 53.07-23.762 53.07-53.07C170 23.875 146.242.112 116.93.112zm0 0" opacity="1" data-original="#d9ecf2" class=""/>
    <path fill="#bdd9e5" d="M170 53.188a53.029 53.029 0 0 0-27.027-46.215 109.812 109.812 0 0 0-54.801 69.414 71.652 71.652 0 0 0-69.91 3.601c3.66 15.39 17.406 26.262 33.226 26.27h65.442c29.312 0 53.07-23.762 53.07-53.07zm0 0" opacity="1" data-original="#bdd9e5" class=""/>
    <path fill="#bdd9e5" d="M51.484 37.883c-.57 0-1.125.054-1.691.082a30.79 30.79 0 0 0 15.566 25.422 49.923 49.923 0 0 1 0-22.543 33.98 33.98 0 0 0-13.875-2.961zm0 0" opacity="1" data-original="#bdd9e5" class=""/>
    <path fill="#26a3b9" d="M411.848 120.29c3.535-27.747-10.13-54.86-34.536-68.524s-54.667-11.141-76.472 6.379C276.703 22.437 233.87 4.19 191.395 11.523c-42.477 7.336-76.708 38.887-87.477 80.622-26.715-13.079-58.719-8.43-80.61 11.71C1.419 124-5.874 155.504 4.939 183.215c10.816 27.71 37.523 45.95 67.269 45.941h331.2c28.624.028 52.44-21.992 54.652-50.531 2.207-28.535-17.934-53.96-46.223-58.34zm0 0" opacity="1" data-original="#26a3b9" class=""/>
    <path fill="#168aa5" d="M411.848 120.29a68.646 68.646 0 0 0-85.684-74.99c33.5 8.493 55.324 40.735 50.754 74.99 28.285 4.378 48.43 29.804 46.219 58.339-2.211 28.539-26.028 50.559-54.653 50.531h34.93c28.625.028 52.441-21.992 54.652-50.531 2.211-28.535-17.933-53.961-46.218-58.34zm0 0" opacity="1" data-original="#168aa5"/>
    <path fill="#168aa5" d="M345.84 153.438a50.215 50.215 0 0 0-20.746 4.5c-12.903-27.114-42.207-42.407-71.828-37.481-29.625 4.922-52.407 28.871-55.844 58.703a38.247 38.247 0 0 0-38.656 10.676 38.245 38.245 0 0 0-7.88 39.324H389.45a50.376 50.376 0 0 0-43.597-75.719zM78.754 85.07c2.281 42.032 26.933 60.266 26.933 60.266a113.625 113.625 0 0 1-1.769-53.191 72.093 72.093 0 0 0-25.164-7.075zm0 0" opacity="1" data-original="#168aa5"/>
    <path fill="#d9ecf2" d="M345.84 176.094a50.215 50.215 0 0 0-20.746 4.5c-12.903-27.114-42.207-42.406-71.828-37.48-29.625 4.921-52.407 28.87-55.844 58.698a38.331 38.331 0 0 0-39.64 11.86 38.322 38.322 0 0 0 29.07 63.3H345.84c27.86 0 50.445-22.581 50.445-50.44 0-27.856-22.586-50.442-50.445-50.442zm0 0" opacity="1" data-original="#d9ecf2" class=""/>
    <g fill="#bdd9e5">
      <path d="M299.41 180.594a50.215 50.215 0 0 1 20.746-4.5c.89 0 1.758.09 2.633.133-14.281-25.133-43.023-38.332-71.39-32.782a67.476 67.476 0 0 1 48.011 37.149zM345.84 176.094c-4.313.02-8.61.601-12.774 1.73 24.543 6.426 40.485 30.098 37.211 55.258-3.273 25.16-24.742 43.965-50.117 43.895h25.68c27.86 0 50.445-22.582 50.445-50.442 0-27.855-22.586-50.441-50.445-50.441zm0 0" fill="#bdd9e5" opacity="1" data-original="#bdd9e5" class=""/>
      <path d="M330 214.277s16.133-11.05 14.914-38.132a50.313 50.313 0 0 0-19.82 4.453 65.232 65.232 0 0 1 4.906 33.68zm0 0" fill="#bdd9e5" opacity="1" data-original="#bdd9e5" class=""/>
    </g>
  </g>
  <g transform="matrix(1, 0, 0, 1, 216.86262512207034, 268.4468688964844)">
    <path fill="#bdd9e5" d="M 142.903 129.22 L 139.951 129.22 L 142.561 126.609 C 143.585 125.585 143.585 123.925 142.561 122.901 C 141.537 121.876 139.876 121.876 138.852 122.901 L 132.536 129.219 L 123.909 129.219 L 130.19 122.94 C 131.214 121.917 131.214 120.256 130.19 119.232 C 129.166 118.207 127.505 118.207 126.481 119.232 L 120.199 125.513 L 120.199 116.885 L 126.519 110.566 C 127.542 109.542 127.542 107.882 126.519 106.858 C 125.495 105.834 123.834 105.834 122.81 106.858 L 120.199 109.47 L 120.199 106.516 C 120.165 104.497 117.958 103.272 116.227 104.311 C 115.451 104.777 114.97 105.61 114.954 106.516 L 114.954 109.47 L 112.345 106.86 C 111.321 105.835 109.66 105.835 108.636 106.86 C 107.612 107.885 107.611 109.543 108.636 110.567 L 114.955 116.886 L 114.955 125.513 L 108.674 119.232 C 107.649 118.208 105.989 118.208 104.964 119.232 C 103.94 120.256 103.94 121.917 104.964 122.941 L 111.247 129.222 L 102.622 129.222 L 96.303 122.904 C 95.278 121.879 93.617 121.879 92.593 122.904 C 91.569 123.927 91.569 125.588 92.593 126.612 L 95.201 129.219 L 92.249 129.219 C 90.801 129.219 89.627 130.393 89.627 131.842 L 144.576 131.842 C 144.895 131.842 145.205 131.804 145.521 131.793 C 145.496 130.365 144.332 129.22 142.903 129.22 Z M 142.903 129.22" opacity="1" data-original="#bdd9e5" style=""/>
    <path fill="#26a3b9" d="M -11.156 128.045 L 5.079 128.045 C 8.445 127.989 10.486 124.31 8.754 121.424 C 7.977 120.13 6.589 119.328 5.079 119.303 L -2.414 119.303 L 2.796 114.093 C 4.503 112.388 4.503 109.619 2.796 107.912 C 1.088 106.205 -1.678 106.204 -3.385 107.912 L -8.593 113.134 L -8.593 105.641 C -8.593 103.229 -10.552 101.27 -12.964 101.27 C -15.379 101.27 -17.335 103.229 -17.335 105.641 L -17.335 121.877 L -24.079 128.621 L -30.825 121.877 L -30.825 105.641 C -30.881 102.275 -34.559 100.234 -37.445 101.966 C -38.739 102.743 -39.541 104.132 -39.567 105.641 L -39.567 113.134 L -44.762 107.924 C -46.469 106.216 -49.236 106.216 -50.943 107.924 C -52.65 109.631 -52.65 112.399 -50.943 114.107 L -45.731 119.303 L -53.224 119.303 C -56.589 119.359 -58.63 123.037 -56.899 125.923 C -56.123 127.217 -54.732 128.019 -53.224 128.045 L -36.988 128.045 L -30.244 134.79 L -36.988 141.534 L -53.224 141.534 C -55.639 141.534 -57.595 143.491 -57.595 145.906 C -57.595 148.32 -55.639 150.276 -53.224 150.276 L -45.73 150.276 L -50.94 155.487 C -52.648 157.194 -52.648 159.962 -50.94 161.67 C -49.233 163.375 -46.467 163.375 -44.76 161.67 L -39.549 156.458 L -39.549 163.951 C -39.493 167.316 -35.814 169.358 -32.929 167.626 C -31.635 166.849 -30.833 165.46 -30.807 163.951 L -30.807 147.716 L -24.063 140.973 L -17.318 147.716 L -17.318 163.951 C -17.318 166.366 -15.362 168.323 -12.947 168.323 C -10.532 168.323 -8.576 166.366 -8.576 163.951 L -8.576 156.458 L -3.366 161.67 C -1.658 163.375 1.108 163.375 2.816 161.67 C 4.523 159.962 4.523 157.194 2.816 155.487 L -2.414 150.276 L 5.079 150.276 C 7.494 150.276 9.451 148.32 9.451 145.906 C 9.451 143.491 7.494 141.534 5.079 141.534 L -11.156 141.534 L -17.901 134.79 L -11.156 128.045 Z M -11.156 128.045" opacity="1" data-original="#26a3b9" style=""/>
    <path fill="#168aa5" d="M -1.963 107.924 C -0.252 109.63 -0.252 112.401 -1.963 114.107 L -7.174 119.303 L -2.414 119.303 L 2.796 114.093 C 4.36 112.509 4.482 110.003 3.079 108.275 C 1.677 106.547 -0.8 106.148 -2.672 107.351 C -2.416 107.517 -2.178 107.709 -1.963 107.924 Z M -35.566 105.648 L -35.566 121.884 L -28.824 128.628 L -26.444 126.248 L -30.809 121.877 L -30.809 105.641 C -30.808 102.282 -34.442 100.181 -37.352 101.859 C -37.42 101.898 -37.486 101.939 -37.552 101.981 C -36.31 102.787 -35.563 104.168 -35.566 105.648 Z M -13.354 105.648 L -13.354 113.141 L -8.595 108.385 L -8.595 105.648 C -8.595 102.288 -12.233 100.188 -15.143 101.868 C -15.209 101.906 -15.275 101.948 -15.339 101.989 C -14.101 102.794 -13.354 104.171 -13.354 105.648 Z M 4.684 123.688 C 4.684 126.101 2.728 128.06 0.313 128.06 L 5.071 128.06 C 8.436 128.003 10.478 124.324 8.746 121.439 C 7.969 120.145 6.581 119.343 5.071 119.318 L 0.313 119.318 C 2.728 119.318 4.684 121.274 4.684 123.688 Z M -15.916 128.06 L -22.651 134.792 L -15.916 141.527 L -11.156 141.527 L -17.892 134.792 L -11.156 128.06 L -15.916 128.06 Z M -13.354 156.45 L -13.354 163.944 C -13.356 165.424 -14.108 166.803 -15.352 167.605 C -12.537 169.438 -8.794 167.537 -8.614 164.183 C -8.609 164.103 -8.607 164.023 -8.607 163.944 L -8.607 161.209 L -13.354 156.45 Z M -2.414 150.276 L -7.174 150.276 L -1.963 155.487 C -0.003 157.449 -0.347 160.719 -2.673 162.231 C -0.801 163.434 1.677 163.036 3.079 161.307 C 4.482 159.578 4.36 157.071 2.796 155.487 L -2.414 150.276 Z M -49.519 107.924 L -44.308 113.134 L -44.308 108.375 L -44.762 107.924 C -46.221 106.465 -48.502 106.226 -50.231 107.35 C -49.975 107.517 -49.736 107.709 -49.52 107.924 L -49.519 107.924 Z M 5.072 141.534 L 0.313 141.534 C 2.728 141.534 4.684 143.491 4.684 145.906 C 4.684 148.32 2.728 150.276 0.313 150.276 L 5.071 150.276 C 7.487 150.276 9.442 148.32 9.442 145.906 C 9.442 143.491 7.487 141.534 5.071 141.534 L 5.072 141.534 Z M -44.308 156.45 L -49.519 161.661 C -49.736 161.877 -49.974 162.07 -50.23 162.237 C -48.502 163.363 -46.218 163.123 -44.762 161.661 L -44.308 161.209 L -44.308 156.45 Z M -28.831 140.976 L -35.574 147.72 L -35.574 163.955 C -35.576 165.436 -36.33 166.813 -37.574 167.615 C -34.758 169.447 -31.015 167.545 -30.836 164.19 C -30.831 164.112 -30.829 164.034 -30.829 163.955 L -30.829 147.72 L -26.473 143.364 L -28.831 140.976 Z M -28.831 140.976" opacity="1" data-original="#168aa5" style=""/>
    <path fill="#26a3b9" d="M 142.904 131.842 C 142.904 130.393 141.731 129.22 140.282 129.22 L 137.329 129.22 L 139.938 126.609 C 140.962 125.585 140.962 123.925 139.938 122.901 C 138.914 121.876 137.254 121.876 136.23 122.901 L 129.913 129.219 L 121.286 129.219 L 127.567 122.94 C 128.591 121.917 128.591 120.256 127.567 119.232 C 126.543 118.207 124.883 118.207 123.859 119.232 L 117.577 125.513 L 117.577 116.885 L 123.897 110.566 C 124.92 109.542 124.92 107.882 123.897 106.858 C 122.873 105.834 121.212 105.834 120.188 106.858 L 117.579 109.47 L 117.579 106.516 C 117.544 104.497 115.338 103.272 113.606 104.311 C 112.83 104.777 112.349 105.61 112.334 106.516 L 112.334 109.47 L 109.725 106.86 C 108.7 105.836 107.04 105.836 106.015 106.86 C 104.991 107.884 104.991 109.544 106.015 110.567 L 112.334 116.886 L 112.334 125.513 L 106.053 119.232 C 105.029 118.208 103.368 118.208 102.344 119.232 C 101.319 120.256 101.319 121.917 102.344 122.941 L 108.626 129.222 L 99.997 129.222 L 93.678 122.904 C 92.654 121.879 90.993 121.879 89.968 122.904 C 88.944 123.928 88.944 125.588 89.968 126.612 L 92.578 129.222 L 89.627 129.222 C 88.178 129.222 87.005 130.396 87.005 131.845 C 87.005 133.293 88.178 134.467 89.627 134.467 L 92.579 134.467 L 89.968 137.077 C 88.944 138.102 88.944 139.762 89.968 140.786 C 90.992 141.81 92.654 141.81 93.678 140.786 L 99.997 134.464 L 108.623 134.464 L 102.34 140.745 C 100.924 142.184 101.597 144.617 103.552 145.123 C 104.445 145.355 105.393 145.101 106.05 144.454 L 112.331 138.172 L 112.331 146.799 L 106.012 153.119 C 104.987 154.141 104.987 155.802 106.012 156.827 C 107.037 157.851 108.697 157.851 109.72 156.827 L 112.331 154.216 L 112.331 157.168 C 112.365 159.186 114.571 160.411 116.303 159.372 C 117.079 158.906 117.56 158.073 117.575 157.168 L 117.575 154.216 L 120.186 156.827 C 121.21 157.851 122.871 157.851 123.896 156.827 C 124.919 155.802 124.919 154.143 123.896 153.119 L 117.575 146.799 L 117.575 138.173 L 123.858 144.455 C 125.286 145.882 127.723 145.23 128.246 143.279 C 128.489 142.374 128.23 141.409 127.567 140.746 L 121.286 134.464 L 129.913 134.464 L 136.232 140.783 C 137.255 141.807 138.916 141.807 139.94 140.783 C 140.964 139.759 140.964 138.099 139.94 137.075 L 137.329 134.464 L 140.282 134.464 C 141.731 134.464 142.904 133.291 142.904 131.842 Z M 142.904 131.842" opacity="1" data-original="#26a3b9" style=""/>
    <g fill="#168aa5" style="" transform="matrix(0.374614, 0, 0, 0.374614, 0.991521, 50.102032)">
      <path d="m273.668 184.531 16.77 16.766V194.5l-10-10a6.974 6.974 0 0 0-8.34-1.14 6.86 6.86 0 0 1 1.57 1.171zM280.45 251.867l10-10v-6.8l-16.77 16.769c-.465.45-.989.832-1.559 1.14a6.91 6.91 0 0 0 8.34-1.14zM283.484 151.512l6.97 6.968v-6.8l-.188-.188a6.974 6.974 0 0 0-8.34-1.14c.57.308 1.094.699 1.558 1.16zM240.645 194.336l16.867 16.867h6.8l-16.867-16.867a6.974 6.974 0 0 0-8.34-1.14 6.87 6.87 0 0 1 1.54 1.14zM364.129 194.336a6.995 6.995 0 0 1 0 9.898l-6.969 6.965h6.8l6.97-6.969a6.978 6.978 0 0 0 .656-9.167 6.976 6.976 0 0 0-8.996-1.872 6.887 6.887 0 0 1 1.539 1.145zM321.305 151.512a7.002 7.002 0 0 1 2.05 4.949 7.002 7.002 0 0 1-2.05 4.95l-16.868 16.866v23.028l6.797-6.797v-16.235l16.871-16.867a6.978 6.978 0 0 0 .657-9.168 6.976 6.976 0 0 0-8.996-1.87 6.887 6.887 0 0 1 1.539 1.144zM331.105 184.531a7 7 0 0 1 0 9.898l-16.77 16.77h6.802l16.746-16.762a6.978 6.978 0 0 0-8.34-11.039c.57.305 1.098.684 1.562 1.133zM304.438 150.594v7.886l6.796-6.8v-1.106c0-3.867-3.132-7-7-7a6.903 6.903 0 0 0-3.39.914 6.958 6.958 0 0 1 3.594 6.106zM363.941 225.2h-6.8l6.968 6.968a6.995 6.995 0 0 1 0 9.898 6.885 6.885 0 0 1-1.562 1.141 6.98 6.98 0 0 0 8.34-11.039zM321.117 225.2h-6.8l16.769 16.765a7.004 7.004 0 0 1 0 9.902c-.465.45-.992.836-1.563 1.14a6.982 6.982 0 0 0 8.34-11.042zM257.512 225.2l-16.867 16.866a6.863 6.863 0 0 1-1.56 1.141 6.905 6.905 0 0 0 8.34-1.14l16.86-16.868zM371.824 211.2h-6.8c3.867 0 7 3.132 7 7 0 3.866-3.133 7-7 7h6.8c3.867 0 7-3.134 7-7 0-3.868-3.133-7-7-7zM290.438 277.922l-6.954 6.969c-.464.449-.988.836-1.558 1.14a6.98 6.98 0 0 0 8.34-1.14l.187-.188zM304.438 277.922v7.879a6.964 6.964 0 0 1-3.602 6.09 6.9 6.9 0 0 0 3.39.91c3.868 0 7-3.133 7-7v-1.098zM311.219 258.125v-16.246l-6.797-6.8v23.026l16.867 16.872a6.988 6.988 0 0 1 2.05 4.949 7.002 7.002 0 0 1-2.05 4.949c-.465.45-.992.836-1.562 1.14a6.98 6.98 0 0 0 8.34-11.038zm0 0" fill="#168aa5" opacity="1" data-original="#168aa5"/>
    </g>
    <path fill="#26a3b9" d="M 101.849 180.999 L 92.795 180.999 L 99.288 174.506 C 100.995 172.798 100.995 170.03 99.288 168.323 C 97.58 166.617 94.815 166.617 93.107 168.323 L 80.428 180.999 L 76.769 180.999 C 75.498 177.613 72.825 174.94 69.439 173.669 L 69.439 170.01 L 82.111 157.336 C 84.493 154.958 83.407 150.892 80.157 150.019 C 78.648 149.613 77.037 150.044 75.932 151.148 L 69.439 157.643 L 69.439 148.586 C 69.382 145.221 65.704 143.18 62.818 144.911 C 61.524 145.688 60.722 147.077 60.697 148.586 L 60.697 157.641 L 54.201 151.145 C 52.494 149.439 49.727 149.439 48.02 151.145 C 46.312 152.853 46.312 155.621 48.02 157.328 L 60.696 170.011 L 60.696 173.674 C 57.303 174.945 54.627 177.621 53.355 181.014 L 49.678 181.014 L 37.004 168.337 C 35.281 166.755 32.617 166.809 30.96 168.461 C 29.304 170.114 29.242 172.778 30.821 174.506 L 37.317 180.999 L 28.262 180.999 C 24.898 181.056 22.856 184.734 24.588 187.62 C 25.364 188.914 26.753 189.716 28.262 189.742 L 37.317 189.742 L 30.821 196.237 C 29.116 197.944 29.116 200.711 30.821 202.418 C 32.528 204.126 35.297 204.126 37.004 202.418 L 49.678 189.742 L 53.343 189.742 C 54.615 193.133 57.291 195.81 60.682 197.083 L 60.682 200.748 L 48.01 213.421 C 46.303 215.128 46.303 217.896 48.01 219.603 C 49.717 221.31 52.485 221.31 54.191 219.603 L 60.684 213.109 L 60.684 222.166 C 60.741 225.531 64.419 227.573 67.305 225.84 C 68.599 225.064 69.401 223.675 69.426 222.166 L 69.426 213.109 L 75.923 219.603 C 77.629 221.311 80.396 221.311 82.103 219.603 C 83.811 217.897 83.811 215.129 82.103 213.422 L 69.439 200.758 L 69.439 197.094 C 72.83 195.817 75.503 193.136 76.769 189.742 L 80.428 189.742 L 93.101 202.416 C 94.81 204.124 97.576 204.124 99.284 202.416 C 100.99 200.708 100.99 197.943 99.284 196.235 L 92.79 189.74 L 101.844 189.74 C 105.209 189.683 107.251 186.005 105.519 183.119 C 104.742 181.825 103.354 181.023 101.844 180.998 L 101.849 180.999 Z M 65.055 189.17 C 62.13 189.169 60.302 186.003 61.766 183.469 C 63.229 180.937 66.885 180.937 68.347 183.471 C 68.68 184.048 68.856 184.703 68.856 185.37 C 68.859 187.472 67.157 189.178 65.055 189.181 L 65.055 189.17 Z M 65.055 189.17" opacity="1" data-original="#26a3b9" style=""/>
    <path fill="#168aa5" d="M 50.425 151.148 L 56.918 157.643 L 56.918 153.874 L 54.201 151.148 C 52.889 149.842 50.894 149.508 49.227 150.313 C 49.671 150.523 50.077 150.806 50.425 151.148 Z M 65.658 148.586 L 65.658 157.641 L 69.439 153.874 L 69.439 148.586 C 69.445 147.086 68.677 145.688 67.407 144.888 C 66.137 144.088 64.544 144.001 63.195 144.657 C 64.703 145.384 65.661 146.911 65.658 148.586 Z M 33.238 168.337 L 45.91 181.009 L 49.576 181.009 C 49.576 180.984 49.6 180.965 49.61 180.943 L 37.004 168.337 C 35.693 167.029 33.698 166.694 32.031 167.503 C 32.478 167.71 32.886 167.992 33.238 168.337 Z M 95.52 168.337 C 97.228 170.043 97.228 172.812 95.52 174.518 L 89.026 181.012 L 92.792 181.012 L 99.286 174.518 C 101.652 172.138 100.555 168.091 97.311 167.231 C 96.31 166.966 95.248 167.066 94.315 167.512 C 94.759 167.718 95.168 167.995 95.52 168.337 Z M 61.255 185.38 C 61.26 184.023 61.991 182.773 63.17 182.102 C 62.6 181.764 61.95 181.584 61.287 181.582 C 58.362 181.582 56.533 184.749 57.996 187.283 C 58.675 188.459 59.929 189.183 61.287 189.183 C 61.949 189.178 62.6 188.999 63.17 188.663 C 61.989 187.991 61.259 186.738 61.255 185.38 Z M 78.333 151.148 C 80.039 152.855 80.039 155.623 78.333 157.331 L 65.658 170.011 L 65.658 173.674 C 69.051 174.946 71.727 177.622 73 181.014 L 76.664 181.014 L 76.733 180.948 C 75.457 177.588 72.801 174.938 69.439 173.669 L 69.439 170.01 L 82.111 157.336 C 83.619 155.833 83.821 153.462 82.589 151.726 C 81.358 149.991 79.056 149.396 77.14 150.318 C 77.581 150.526 77.985 150.806 78.333 151.148 Z M 92.795 189.742 L 89.028 189.742 L 95.521 196.237 C 97.682 198.354 97.059 201.977 94.316 203.252 C 96.233 204.176 98.537 203.581 99.766 201.845 C 100.998 200.11 100.796 197.739 99.288 196.237 L 92.795 189.742 Z M 101.849 180.999 L 98.083 180.999 C 101.448 181.056 103.489 184.734 101.758 187.62 C 100.981 188.914 99.592 189.716 98.083 189.742 L 101.849 189.742 C 105.215 189.685 107.256 186.006 105.524 183.12 C 104.747 181.827 103.358 181.025 101.849 180.999 Z M 69.439 200.757 L 69.439 197.094 C 72.804 195.828 75.465 193.179 76.745 189.819 L 76.664 189.741 L 73 189.741 C 71.727 193.133 69.051 195.81 65.658 197.083 L 65.658 200.748 L 78.333 213.421 C 79.347 214.416 79.808 215.845 79.567 217.247 C 79.328 218.647 78.415 219.84 77.125 220.437 C 79.043 221.361 81.346 220.766 82.576 219.03 C 83.807 217.293 83.605 214.924 82.098 213.422 L 69.439 200.757 Z M 56.916 213.119 L 50.423 219.612 C 50.071 219.957 49.663 220.24 49.215 220.447 C 50.881 221.254 52.876 220.919 54.189 219.612 L 56.913 216.888 L 56.916 213.119 Z M 65.658 213.119 L 65.658 222.176 C 65.653 223.858 64.681 225.387 63.16 226.106 C 66.054 227.51 69.418 225.393 69.404 222.176 L 69.404 216.885 L 65.658 213.119 Z M 49.576 189.742 L 45.91 189.742 L 33.238 202.416 C 32.886 202.76 32.477 203.042 32.031 203.25 C 33.695 204.071 35.699 203.735 37.004 202.416 L 49.61 189.81 C 49.594 189.79 49.582 189.766 49.576 189.741 L 49.576 189.742 Z M 49.576 189.742" opacity="1" data-original="#168aa5" style=""/>
    <path fill="#d9ecf2" d="M 44.602 116.085 C 44.602 120.596 40.944 124.255 36.431 124.255 C 31.921 124.255 28.262 120.596 28.262 116.085 C 28.262 111.573 31.921 107.914 36.431 107.914 C 40.944 107.914 44.602 111.573 44.602 116.085 Z M 138.675 150.276 C 132.64 150.284 127.754 155.18 127.757 161.212 C 127.759 167.247 132.65 172.137 138.685 172.137 C 144.717 172.14 149.613 167.252 149.617 161.216 C 149.623 155.172 144.72 150.27 138.675 150.276 Z M -9.312 190.319 C -14.293 190.319 -18.333 194.356 -18.333 199.337 C -18.333 204.321 -14.293 208.358 -9.312 208.358 C -4.332 208.358 -0.292 204.321 -0.292 199.337 C -0.292 194.356 -4.332 190.319 -9.312 190.319 Z M -9.312 190.319" opacity="1" data-original="#d9ecf2" class="" style=""/>
    <path fill="#bdd9e5" d="M 36.431 107.914 C 35.281 107.917 34.144 108.165 33.097 108.641 C 36.038 109.949 37.933 112.866 37.933 116.085 C 37.933 119.305 36.038 122.223 33.097 123.53 C 38.832 126.103 45.203 121.503 44.564 115.249 C 44.137 111.08 40.623 107.909 36.431 107.914 Z M -9.312 190.317 C -10.456 190.319 -11.588 190.542 -12.646 190.97 C -6.205 193.505 -4.923 202.062 -10.339 206.373 C -11.038 206.93 -11.815 207.379 -12.646 207.706 C -6.203 210.279 0.608 204.911 -0.386 198.046 C -1.027 193.61 -4.83 190.32 -9.312 190.324 L -9.312 190.317 Z M 138.674 150.276 C 137.539 150.292 136.414 150.485 135.34 150.852 C 139.86 152.277 142.931 156.47 142.931 161.209 C 142.931 165.949 139.86 170.139 135.34 171.566 C 136.414 171.93 137.541 172.125 138.675 172.14 C 144.712 172.14 149.605 167.247 149.605 161.209 C 149.605 155.172 144.712 150.279 138.675 150.279 L 138.674 150.276 Z M 138.674 150.276" opacity="1" data-original="#bdd9e5" style=""/>
  </g>
</svg>