<?xml version="1.0" encoding="utf-8"?>
<svg viewBox="0 0 500 500" xmlns="http://www.w3.org/2000/svg">
  <g transform="matrix(1, 0, 0, 1, 104.45056915283206, 25.709606170654297)"/>
  <g transform="matrix(0.8647670149803162, 0, 0, 0.7657589912414551, 248.40969848632815, 289.863525390625)" style="">
    <path fill="#26a3b9" d="M -147.431 224.258 C -147.611 238.668 -159.341 250.254 -173.751 250.254 C -188.161 250.254 -199.891 238.668 -200.067 224.258 C -200.067 209.723 -173.747 171.699 -173.747 171.699 C -173.747 171.699 -147.431 209.727 -147.431 224.258 L -147.431 224.258 Z M -58.571 137.773 C -58.324 158.036 -80.105 170.968 -97.777 161.05 C -97.9 160.981 -98.023 160.911 -98.145 160.839 C -106.335 156.063 -111.324 147.253 -111.208 137.773 C -111.208 123.238 -84.888 85.215 -84.888 85.215 C -84.888 85.215 -58.571 123.25 -58.571 137.773 Z M 14.683 224.258 C 14.507 238.668 2.776 250.254 -11.634 250.254 C -26.044 250.254 -37.774 238.668 -37.954 224.258 C -37.954 209.723 -11.634 171.699 -11.634 171.699 C -11.634 171.699 14.683 209.727 14.683 224.258 L 14.683 224.258 Z M 103.566 137.773 C 103.386 152.183 91.656 163.77 77.246 163.77 C 62.835 163.77 51.105 152.184 50.929 137.773 C 50.929 123.238 77.249 85.215 77.249 85.215 C 77.249 85.215 103.565 123.25 103.565 137.773 L 103.566 137.773 Z M 103.566 137.773" opacity="1" data-original="#26a3b9"/>
    <path fill="#168aa5" d="M -109.524 129.723 L -60.254 129.723 C -66.004 112.547 -84.888 85.223 -84.888 85.223 C -84.888 85.223 -103.778 112.551 -109.524 129.723 L -109.524 129.723 Z M 101.858 129.723 C 96.112 112.547 77.226 85.223 77.226 85.223 C 77.226 85.223 58.339 112.547 52.596 129.723 L 101.858 129.723 Z M 101.858 129.723" opacity="1" data-original="#168aa5"/>
    <path fill="#26a3b9" d="M 176.8 224.258 C 176.62 238.668 164.89 250.254 150.483 250.254 C 136.073 250.254 124.343 238.668 124.163 224.258 C 124.163 209.723 150.483 171.699 150.483 171.699 C 150.483 171.699 176.8 209.727 176.8 224.258 L 176.8 224.258 Z M 176.8 224.258" opacity="1" data-original="#26a3b9"/>
    <g fill="#168aa5" transform="matrix(1, 0, 0, 1, -235.497452, -107.206749)">
      <path d="M61.746 278.906s-2.57 3.711-6.105 9.258c7.777 12.211 20.218 33.309 20.218 43.3-.004 12.18-8.367 22.763-20.214 25.583a26.247 26.247 0 0 0 22.437-4.899 26.253 26.253 0 0 0 9.984-20.683c0-14.531-26.32-52.559-26.32-52.559zM150.61 192.434s-2.57 3.71-6.106 9.257c7.758 12.211 20.215 33.29 20.215 43.29.004 12.187-8.36 22.777-20.215 25.601a26.239 26.239 0 0 0 32.422-25.602c0-14.52-26.317-52.546-26.317-52.546zM223.86 278.906s-2.567 3.711-6.102 9.258c7.773 12.211 20.215 33.309 20.215 43.3-.008 12.18-8.371 22.763-20.215 25.583a26.253 26.253 0 0 0 22.437-4.899 26.237 26.237 0 0 0 9.98-20.683c.005-14.531-26.316-52.559-26.316-52.559zM312.719 192.434s-2.567 3.71-6.102 9.257c7.781 12.211 20.219 33.29 20.219 43.29.004 12.187-8.36 22.777-20.215 25.601a26.223 26.223 0 0 0 22.457-4.894 26.246 26.246 0 0 0 9.985-20.708c0-14.52-26.344-52.546-26.344-52.546zM385.977 278.906s-2.567 3.711-6.106 9.258c7.777 12.211 20.219 33.309 20.219 43.3-.008 12.184-8.38 22.766-20.23 25.583a26.247 26.247 0 0 0 22.437-4.899 26.24 26.24 0 0 0 9.984-20.683c.016-14.531-26.304-52.559-26.304-52.559zm0 0" fill="#168aa5" opacity="1" data-original="#168aa5"/>
    </g>
  </g>
  <g transform="matrix(1, 0, 0, 1, 4.498701095581055, 15.344438552856445)">
    <g fill="#f59a1d"/>
    <g transform="matrix(1, 0, 0, 1, 7.141372, -1.274568)">
      <path fill="#d9ecf2" d="M457.555 145.887c0 74.597-60.477 135.074-135.078 135.074-74.598 0-135.075-60.477-135.075-135.074 0-74.602 60.477-135.078 135.075-135.078 74.601 0 135.078 60.476 135.078 135.078zm0 0" opacity="1" data-original="#d9ecf2"/>
      <path fill="#bdd9e5" d="M357.75 255.813a62.523 62.523 0 0 0-20 3.32c.227-2.852.375-5.723.375-8.633a107.158 107.158 0 0 0-48.695-89.84 107.163 107.163 0 0 0-101.86-8.18c2.278 46.684 28.532 88.872 69.407 111.536s90.562 22.586 131.367-.211a62.398 62.398 0 0 0-30.594-7.993zm0 0" opacity="1" data-original="#bdd9e5"/>
      <path fill="#bdd9e5" d="M322.477 10.809c-6.715.004-13.422.5-20.063 1.492C368.52 22.242 417.41 79.035 417.41 145.883c0 66.847-48.89 123.64-114.996 133.582 50.11 7.543 100.227-13.598 129.797-54.75 29.57-41.153 33.621-95.395 10.492-140.48-23.129-45.09-69.55-73.438-120.226-73.426zm0 0" opacity="1" data-original="#bdd9e5"/>
      <path fill="#d9ecf2" d="M327.25 207.332c0 10.219-8.281 18.5-18.5 18.5s-18.5-8.281-18.5-18.5c0-10.215 8.281-18.5 18.5-18.5s18.5 8.285 18.5 18.5zm0 0" opacity="1" data-original="#d9ecf2"/>
      <g fill="#bdd9e5">
        <path d="M221.906 236.031c10.227-7.234 13.055-21.18 6.453-31.824-6.605-10.648-20.351-14.312-31.379-8.367a135.192 135.192 0 0 0 24.926 40.191zM402.684 120.238c0 18.223-14.774 32.996-32.996 32.996-18.227 0-32.997-14.773-32.997-32.996 0-18.222 14.77-32.996 32.997-32.996 18.222 0 32.996 14.774 32.996 32.996zM272.605 101.59c0 10.297-8.347 18.644-18.644 18.644-10.297 0-18.645-8.347-18.645-18.644s8.348-18.645 18.645-18.645c10.297 0 18.644 8.348 18.644 18.645zM319.133 56.758h104.8a135.817 135.817 0 0 0-23.902-21.442h-80.898c-5.918 0-10.719 4.801-10.719 10.723 0 5.918 4.8 10.719 10.719 10.719zm0 0" fill="#bdd9e5" opacity="1" data-original="#bdd9e5"/>
      </g>
      <path fill="#d9ecf2" d="M423.926 56.758a135.766 135.766 0 0 0-23.895-21.434h-40.144a135.696 135.696 0 0 1 23.93 21.442h40.109zm0 0" opacity="1" data-original="#d9ecf2"/>
      <path fill="#bdd9e5" d="M452.133 183.75h-34.34c-5.918 0-10.719 4.8-10.719 10.719 0 5.922 4.801 10.722 10.719 10.722h26.062a134.203 134.203 0 0 0 8.278-21.441zm0 0" opacity="1" data-original="#bdd9e5"/>
      <path fill="#d9ecf2" d="M417.793 183.75a10.617 10.617 0 0 0-6.45 2.207 133.856 133.856 0 0 1-3.948 11 10.703 10.703 0 0 0 10.398 8.23h26.062c1.63-3.34 3.122-6.75 4.47-10.242l.183-.457a140.349 140.349 0 0 0 3.629-10.738zm0 0" opacity="1" data-original="#d9ecf2"/>
      <path fill="#bdd9e5" d="M188.64 163.934h36.368c5.918 0 10.719-4.801 10.719-10.72 0-5.921-4.801-10.722-10.72-10.722h-37.523c-.027 1.125-.082 2.246-.082 3.38.012 6.038.426 12.073 1.239 18.062zm0 0" opacity="1" data-original="#bdd9e5"/>
      <path fill="#d9ecf2" d="M235.723 153.23a10.718 10.718 0 0 0-6.551-9.87 106.69 106.69 0 0 0-41.55 9.093c.03.602.023 1.2.065 1.809.04.61.079 1.11.118 1.664.21 2.687.465 5.36.8 8h36.364c5.926.015 10.738-4.774 10.754-10.696zm0 0" opacity="1" data-original="#d9ecf2"/>
      <path fill="#fabe02" d="m62.7 169.793-26.93 14.16 5.144-29.988-21.789-21.235 30.11-4.375 13.464-27.285 13.465 27.285 30.11 4.375-21.79 21.235 5.145 29.988zm0 0" opacity="1" data-original="#fabe02"/>
      <path fill="#f59a1d" d="m106.273 132.73-30.109-4.375L62.7 101.07l.567 27.285 17.879 10.91-18.446 19.02 26.93 25.668-5.145-29.988zm0 0" opacity="1" data-original="#f59a1d" class=""/>
      <path fill="#fabe02" d="m137.68 56.75-22.125 11.633 4.222-24.637-17.894-17.445 24.73-3.59L137.68.297l11.058 22.414 24.73 3.59-17.894 17.445 4.223 24.637zm0 0" opacity="1" data-original="#fabe02"/>
      <path fill="#f59a1d" d="m173.469 26.3-24.73-3.59L137.678.298l.462 22.414 14.687 8.96-15.148 15.622 22.117 21.09-4.223-24.637zm0 0" opacity="1" data-original="#f59a1d" class=""/>
    </g>
    <g transform="matrix(0.920129, 0, 0, 0.916037, 40.345329, 95.069557)" style="">
      <path fill="#d9ecf2" d="M116.93.113c-24.543.016-45.871 16.86-51.57 40.73a34.18 34.18 0 1 0-13.88 65.415h65.45c29.312 0 53.07-23.762 53.07-53.07C170 23.875 146.242.112 116.93.112zm0 0" opacity="1" data-original="#d9ecf2" class=""/>
      <path fill="#bdd9e5" d="M170 53.188a53.029 53.029 0 0 0-27.027-46.215 109.812 109.812 0 0 0-54.801 69.414 71.652 71.652 0 0 0-69.91 3.601c3.66 15.39 17.406 26.262 33.226 26.27h65.442c29.312 0 53.07-23.762 53.07-53.07zm0 0" opacity="1" data-original="#bdd9e5" class=""/>
      <path fill="#bdd9e5" d="M51.484 37.883c-.57 0-1.125.054-1.691.082a30.79 30.79 0 0 0 15.566 25.422 49.923 49.923 0 0 1 0-22.543 33.98 33.98 0 0 0-13.875-2.961zm0 0" opacity="1" data-original="#bdd9e5" class=""/>
      <path fill="#26a3b9" d="M411.848 120.29c3.535-27.747-10.13-54.86-34.536-68.524s-54.667-11.141-76.472 6.379C276.703 22.437 233.87 4.19 191.395 11.523c-42.477 7.336-76.708 38.887-87.477 80.622-26.715-13.079-58.719-8.43-80.61 11.71C1.419 124-5.874 155.504 4.939 183.215c10.816 27.71 37.523 45.95 67.269 45.941h331.2c28.624.028 52.44-21.992 54.652-50.531 2.207-28.535-17.934-53.96-46.223-58.34zm0 0" opacity="1" data-original="#26a3b9" class=""/>
      <path fill="#168aa5" d="M411.848 120.29a68.646 68.646 0 0 0-85.684-74.99c33.5 8.493 55.324 40.735 50.754 74.99 28.285 4.378 48.43 29.804 46.219 58.339-2.211 28.539-26.028 50.559-54.653 50.531h34.93c28.625.028 52.441-21.992 54.652-50.531 2.211-28.535-17.933-53.961-46.218-58.34zm0 0" opacity="1" data-original="#168aa5"/>
      <path fill="#168aa5" d="M345.84 153.438a50.215 50.215 0 0 0-20.746 4.5c-12.903-27.114-42.207-42.407-71.828-37.481-29.625 4.922-52.407 28.871-55.844 58.703a38.247 38.247 0 0 0-38.656 10.676 38.245 38.245 0 0 0-7.88 39.324H389.45a50.376 50.376 0 0 0-43.597-75.719zM78.754 85.07c2.281 42.032 26.933 60.266 26.933 60.266a113.625 113.625 0 0 1-1.769-53.191 72.093 72.093 0 0 0-25.164-7.075zm0 0" opacity="1" data-original="#168aa5"/>
      <path fill="#d9ecf2" d="M345.84 176.094a50.215 50.215 0 0 0-20.746 4.5c-12.903-27.114-42.207-42.406-71.828-37.48-29.625 4.921-52.407 28.87-55.844 58.698a38.331 38.331 0 0 0-39.64 11.86 38.322 38.322 0 0 0 29.07 63.3H345.84c27.86 0 50.445-22.581 50.445-50.44 0-27.856-22.586-50.442-50.445-50.442zm0 0" opacity="1" data-original="#d9ecf2" class=""/>
      <g fill="#bdd9e5">
        <path d="M299.41 180.594a50.215 50.215 0 0 1 20.746-4.5c.89 0 1.758.09 2.633.133-14.281-25.133-43.023-38.332-71.39-32.782a67.476 67.476 0 0 1 48.011 37.149zM345.84 176.094c-4.313.02-8.61.601-12.774 1.73 24.543 6.426 40.485 30.098 37.211 55.258-3.273 25.16-24.742 43.965-50.117 43.895h25.68c27.86 0 50.445-22.582 50.445-50.442 0-27.855-22.586-50.441-50.445-50.441zm0 0" fill="#bdd9e5" opacity="1" data-original="#bdd9e5" class=""/>
        <path d="M330 214.277s16.133-11.05 14.914-38.132a50.313 50.313 0 0 0-19.82 4.453 65.232 65.232 0 0 1 4.906 33.68zm0 0" fill="#bdd9e5" opacity="1" data-original="#bdd9e5" class=""/>
      </g>
    </g>
  </g>
</svg>