<?xml version="1.0" encoding="utf-8"?>
<svg viewBox="0 0 500 500" xmlns="http://www.w3.org/2000/svg">
  <g transform="matrix(1, 0, 0, 1, 104.45056915283206, 25.709606170654297)"/>
  <g transform="matrix(1, 0, 0, 1, 4.498701095581055, 15.344438552856445)">
    <g fill="#f59a1d"/>
    <g transform="matrix(1, 0, 0, 1, 7.141372, -1.274568)">
      <path fill="#d9ecf2" d="M457.555 145.887c0 74.597-60.477 135.074-135.078 135.074-74.598 0-135.075-60.477-135.075-135.074 0-74.602 60.477-135.078 135.075-135.078 74.601 0 135.078 60.476 135.078 135.078zm0 0" opacity="1" data-original="#d9ecf2"/>
      <path fill="#bdd9e5" d="M357.75 255.813a62.523 62.523 0 0 0-20 3.32c.227-2.852.375-5.723.375-8.633a107.158 107.158 0 0 0-48.695-89.84 107.163 107.163 0 0 0-101.86-8.18c2.278 46.684 28.532 88.872 69.407 111.536s90.562 22.586 131.367-.211a62.398 62.398 0 0 0-30.594-7.993zm0 0" opacity="1" data-original="#bdd9e5"/>
      <path fill="#bdd9e5" d="M322.477 10.809c-6.715.004-13.422.5-20.063 1.492C368.52 22.242 417.41 79.035 417.41 145.883c0 66.847-48.89 123.64-114.996 133.582 50.11 7.543 100.227-13.598 129.797-54.75 29.57-41.153 33.621-95.395 10.492-140.48-23.129-45.09-69.55-73.438-120.226-73.426zm0 0" opacity="1" data-original="#bdd9e5"/>
      <path fill="#d9ecf2" d="M327.25 207.332c0 10.219-8.281 18.5-18.5 18.5s-18.5-8.281-18.5-18.5c0-10.215 8.281-18.5 18.5-18.5s18.5 8.285 18.5 18.5zm0 0" opacity="1" data-original="#d9ecf2"/>
      <g fill="#bdd9e5">
        <path d="M221.906 236.031c10.227-7.234 13.055-21.18 6.453-31.824-6.605-10.648-20.351-14.312-31.379-8.367a135.192 135.192 0 0 0 24.926 40.191zM402.684 120.238c0 18.223-14.774 32.996-32.996 32.996-18.227 0-32.997-14.773-32.997-32.996 0-18.222 14.77-32.996 32.997-32.996 18.222 0 32.996 14.774 32.996 32.996zM272.605 101.59c0 10.297-8.347 18.644-18.644 18.644-10.297 0-18.645-8.347-18.645-18.644s8.348-18.645 18.645-18.645c10.297 0 18.644 8.348 18.644 18.645zM319.133 56.758h104.8a135.817 135.817 0 0 0-23.902-21.442h-80.898c-5.918 0-10.719 4.801-10.719 10.723 0 5.918 4.8 10.719 10.719 10.719zm0 0" fill="#bdd9e5" opacity="1" data-original="#bdd9e5"/>
      </g>
      <path fill="#d9ecf2" d="M423.926 56.758a135.766 135.766 0 0 0-23.895-21.434h-40.144a135.696 135.696 0 0 1 23.93 21.442h40.109zm0 0" opacity="1" data-original="#d9ecf2"/>
      <path fill="#bdd9e5" d="M452.133 183.75h-34.34c-5.918 0-10.719 4.8-10.719 10.719 0 5.922 4.801 10.722 10.719 10.722h26.062a134.203 134.203 0 0 0 8.278-21.441zm0 0" opacity="1" data-original="#bdd9e5"/>
      <path fill="#d9ecf2" d="M417.793 183.75a10.617 10.617 0 0 0-6.45 2.207 133.856 133.856 0 0 1-3.948 11 10.703 10.703 0 0 0 10.398 8.23h26.062c1.63-3.34 3.122-6.75 4.47-10.242l.183-.457a140.349 140.349 0 0 0 3.629-10.738zm0 0" opacity="1" data-original="#d9ecf2"/>
      <path fill="#bdd9e5" d="M188.64 163.934h36.368c5.918 0 10.719-4.801 10.719-10.72 0-5.921-4.801-10.722-10.72-10.722h-37.523c-.027 1.125-.082 2.246-.082 3.38.012 6.038.426 12.073 1.239 18.062zm0 0" opacity="1" data-original="#bdd9e5"/>
      <path fill="#d9ecf2" d="M235.723 153.23a10.718 10.718 0 0 0-6.551-9.87 106.69 106.69 0 0 0-41.55 9.093c.03.602.023 1.2.065 1.809.04.61.079 1.11.118 1.664.21 2.687.465 5.36.8 8h36.364c5.926.015 10.738-4.774 10.754-10.696zm0 0" opacity="1" data-original="#d9ecf2"/>
      <path fill="#fabe02" d="m62.7 169.793-26.93 14.16 5.144-29.988-21.789-21.235 30.11-4.375 13.464-27.285 13.465 27.285 30.11 4.375-21.79 21.235 5.145 29.988zm0 0" opacity="1" data-original="#fabe02"/>
      <path fill="#f59a1d" d="m106.273 132.73-30.109-4.375L62.7 101.07l.567 27.285 17.879 10.91-18.446 19.02 26.93 25.668-5.145-29.988zm0 0" opacity="1" data-original="#f59a1d" class=""/>
      <path fill="#fabe02" d="m137.68 56.75-22.125 11.633 4.222-24.637-17.894-17.445 24.73-3.59L137.68.297l11.058 22.414 24.73 3.59-17.894 17.445 4.223 24.637zm0 0" opacity="1" data-original="#fabe02"/>
      <path fill="#f59a1d" d="m173.469 26.3-24.73-3.59L137.678.298l.462 22.414 14.687 8.96-15.148 15.622 22.117 21.09-4.223-24.637zm0 0" opacity="1" data-original="#f59a1d" class=""/>
    </g>
  </g>
  <g transform="matrix(0.8677960634231567, 0, 0, 0.8216639757156372, 45.253910064697294, 131.3740997314453)" style="">
    <path fill="#26a3b9" d="M425.477 110.793c3.543-27.75-10.118-54.867-34.524-68.535s-54.668-11.145-76.476 6.375c-24.145-35.7-66.973-53.934-109.442-46.598-42.472 7.34-76.7 38.887-87.465 80.621-26.715-13.074-58.718-8.422-80.605 11.715-21.887 20.14-29.18 51.649-18.367 79.356 10.812 27.71 37.515 45.949 67.261 45.941h331.2c28.62.031 52.441-21.988 54.652-50.527 2.207-28.54-17.934-53.965-46.223-58.34zm0 0" opacity="1" data-original="#26a3b9"/>
    <path fill="#168aa5" d="m225.68 149.895-55.633 69.773h76.398l55.633-69.773zM425.477 110.793a68.274 68.274 0 0 0-16.438-54.14 68.28 68.28 0 0 0-51.633-23.141 68.239 68.239 0 0 0-18.707 2.633c32.817 9.03 53.922 40.91 49.418 74.648 28.313 4.352 48.485 29.789 46.274 58.348s-26.063 50.586-54.704 50.527h37.36c28.621.031 52.441-21.988 54.652-50.527 2.207-28.54-17.933-53.965-46.222-58.34zM85.86 75.242c-2.231 0-4.422.137-6.598.332a106.108 106.108 0 0 0 40.054 60.262 113.605 113.605 0 0 1-1.746-53.2 71.766 71.766 0 0 0-31.71-7.394zm0 0" opacity="1" data-original="#168aa5"/>
    <path fill="#fabe02" d="M358.934 252.176h-48.95l-47.87 60.035h41.976l-47.14 59.121 113.1-74.46h-46.757zM272.047 149.895h-76.402l-74.727 93.718h65.52l-73.583 92.278 176.543-116.23h-72.98zm0 0" opacity="1" data-original="#fabe02"/>
    <g fill="#f59a1d">
      <path d="m323.293 296.871 35.64-44.695H335.66l-35.633 44.695zM346.777 296.871l-64.109 42.207-25.719 32.254 113.102-74.46zM216.418 219.66l55.629-69.765h-23.27l-55.632 69.765zM266.129 219.66 138.57 303.64l-25.715 32.25 176.543-116.23zm0 0" fill="#f59a1d" opacity="1" data-original="#f59a1d"/>
    </g>
    <path fill="#bdd9e5" d="M6.996 342.89a7.003 7.003 0 0 1-6.305-3.964 7.001 7.001 0 0 1 .84-7.403l18.176-22.77a7.002 7.002 0 0 1 10.941 8.74l-18.175 22.76a6.985 6.985 0 0 1-5.477 2.638zm0 0" opacity="1" data-original="#bdd9e5"/>
    <path fill="#26a3b9" d="M43.395 297.293a7.001 7.001 0 0 1-5.469-11.371l34.18-42.797c2.414-3.023 6.82-3.52 9.84-1.105a7.002 7.002 0 0 1 1.105 9.84l-34.18 42.8a7 7 0 0 1-5.476 2.633zm0 0" opacity="1" data-original="#26a3b9"/>
    <path fill="#bdd9e5" d="M21.574 402.703a7 7 0 0 1-5.469-11.367L37.925 364a7.002 7.002 0 0 1 10.946 8.734l-21.82 27.332a6.985 6.985 0 0 1-5.477 2.637zm0 0" opacity="1" data-original="#bdd9e5"/>
    <path fill="#26a3b9" d="M60.484 353.96a7.002 7.002 0 0 1-5.464-11.37l15.386-19.274a7.006 7.006 0 0 1 10.941 8.75l-15.39 19.278a6.989 6.989 0 0 1-5.473 2.617zm0 0" opacity="1" data-original="#26a3b9"/>
    <path fill="#bdd9e5" d="M93.29 312.867a7 7 0 0 1-5.465-11.375l29.523-36.98c2.41-3.024 6.816-3.516 9.84-1.106 3.019 2.414 3.515 6.82 1.101 9.84l-29.52 36.98a6.979 6.979 0 0 1-5.48 2.641zM83.898 402.703a6.994 6.994 0 0 1-6.304-3.965 6.991 6.991 0 0 1 .836-7.402l28.953-36.274a7.002 7.002 0 0 1 10.941 8.739l-28.949 36.265a6.985 6.985 0 0 1-5.477 2.637zM146.227 402.703a7 7 0 0 1-5.469-11.367l38.914-48.75a7.002 7.002 0 0 1 10.941 8.738L151.7 400.066a6.995 6.995 0 0 1-5.472 2.637zm0 0" opacity="1" data-original="#bdd9e5"/>
    <path fill="#26a3b9" d="M205.387 328.586a6.999 6.999 0 0 1-5.465-11.367l32.8-41.106a6.999 6.999 0 1 1 10.938 8.734l-32.8 41.11a6.976 6.976 0 0 1-5.473 2.629zm0 0" opacity="1" data-original="#26a3b9"/>
    <path fill="#bdd9e5" d="M208.547 402.703a7 7 0 0 1-5.469-11.367l45.2-56.645a7.003 7.003 0 0 1 10.945 8.735l-45.2 56.64a6.99 6.99 0 0 1-5.476 2.637zm0 0" opacity="1" data-original="#bdd9e5"/>
    <path fill="#26a3b9" d="M270.875 402.703a7.003 7.003 0 0 1-6.305-3.965 7.002 7.002 0 0 1 .836-7.398l7.149-8.961a7.001 7.001 0 0 1 10.941 8.734l-7.144 8.957a6.993 6.993 0 0 1-5.477 2.633zm0 0" opacity="1" data-original="#26a3b9"/>
    <path fill="#bdd9e5" d="M366.98 282.309a6.999 6.999 0 0 1-5.464-11.368l22.214-27.832a7.002 7.002 0 0 1 10.945 8.734l-22.218 27.825a7 7 0 0 1-5.477 2.64zM333.2 402.703a7 7 0 0 1-5.469-11.367l27.152-34a6.998 6.998 0 0 1 9.836-1.106 6.994 6.994 0 0 1 1.105 9.836l-27.148 34a6.997 6.997 0 0 1-5.477 2.637zm0 0" opacity="1" data-original="#bdd9e5"/>
    <path fill="#26a3b9" d="M375.293 349.969a6.996 6.996 0 0 1-6.305-3.969 6.994 6.994 0 0 1 .836-7.398l7.516-9.414c2.41-3.024 6.816-3.516 9.84-1.106 3.02 2.414 3.515 6.82 1.101 9.84l-7.511 9.414a6.981 6.981 0 0 1-5.477 2.633zM401.262 317.438a7.002 7.002 0 0 1-5.469-11.372l33.172-41.554a7.003 7.003 0 0 1 10.945 8.734l-33.172 41.559a7.005 7.005 0 0 1-5.476 2.632zm0 0" opacity="1" data-original="#26a3b9"/>
  </g>
</svg>