<svg xmlns="http://www.w3.org/2000/svg" version="1.1" xmlns:xlink="http://www.w3.org/1999/xlink" width="512" height="512" x="0" y="0" viewBox="0 0 449.543 449" style="enable-background:new 0 0 512 512" xml:space="preserve" class=""><g><path fill="#d9ecf2" d="M45.602 108.531c-3.473-27.215 9.93-53.812 33.867-67.219 23.941-13.406 53.625-10.933 75.015 6.25C178.164 12.535 220.176-5.358 261.84 1.84c41.664 7.2 75.238 38.152 85.793 79.094 26.207-12.817 57.59-8.25 79.054 11.504s28.618 50.652 18.012 77.828c-10.601 27.18-36.789 45.07-65.96 45.066H53.87c-28.117.086-51.539-21.527-53.71-49.559s17.644-52.996 45.437-57.242zm0 0" opacity="1" data-original="#d9ecf2"></path><path fill="#bdd9e5" d="M307.703 80.934a70.402 70.402 0 0 1 31.102-7.27c2.273 0 4.511.133 6.726.34-16.953-51.164-69.16-81.879-122.117-71.84 40.984 7.711 73.824 38.402 84.29 78.77zM378.73 73.664c-6.753 0-13.468.98-19.94 2.91 33.823 9.899 55.214 43.168 50.183 78.047-5.028 34.883-34.942 60.754-70.184 60.7h39.926c39.117 0 70.828-31.712 70.828-70.829 0-39.117-31.711-70.828-70.828-70.828zm0 0" opacity="1" data-original="#bdd9e5"></path><path fill="#bdd9e5" d="M345.906 133.098s21.2-18.606 26.496-59.121a70.766 70.766 0 0 0-24.8 6.953 111.413 111.413 0 0 1-1.696 52.168zm0 0" opacity="1" data-original="#bdd9e5"></path><path fill="#d9ecf2" d="M356.504 354.293c0 11.246-9.117 20.363-20.367 20.363-11.246 0-20.364-9.117-20.364-20.363 0-11.246 9.118-20.363 20.364-20.363 11.25 0 20.367 9.117 20.367 20.363zm-308.61-55.816c-11.25 0-20.367 9.12-20.363 20.37.004 11.247 9.125 20.364 20.375 20.36 11.246-.008 20.36-9.133 20.352-20.383-.008-11.238-9.121-20.347-20.363-20.347zm95.34 29.777c-14.379 0-26.035 11.656-26.035 26.035s11.656 26.035 26.035 26.035 26.036-11.656 26.036-26.035-11.657-26.035-26.036-26.035zM341.02 242.09c-8.118 0-14.696 6.578-14.696 14.695s6.578 14.695 14.696 14.695c8.117 0 14.695-6.578 14.695-14.695s-6.578-14.695-14.695-14.695zm0 0" opacity="1" data-original="#d9ecf2"></path><path fill="#bdd9e5" d="M343.547 256.785a14.675 14.675 0 0 1-8.613 13.344 14.695 14.695 0 0 0 17.699-4.246 14.693 14.693 0 0 0 0-18.196 14.695 14.695 0 0 0-17.7-4.246 14.675 14.675 0 0 1 8.614 13.344zM47.895 298.477c-2.07.027-4.122.375-6.083 1.027a20.231 20.231 0 0 1 14.286 19.336 20.231 20.231 0 0 1-14.285 19.336c1.96.656 4.011 1 6.082 1.031 11.246 0 20.363-9.121 20.363-20.367s-9.117-20.363-20.363-20.363zM143.234 328.254c-2.05.008-4.093.258-6.082.742 11.707 2.793 19.973 13.254 19.973 25.293 0 12.04-8.266 22.5-19.973 25.293a26.03 26.03 0 0 0 29.602-36.512 26.024 26.024 0 0 0-23.52-14.816zM336.137 333.93a20.148 20.148 0 0 0-6.082 1.027 20.227 20.227 0 0 1 0 38.668c1.965.652 4.015 1 6.082 1.027 11.25 0 20.367-9.117 20.367-20.363 0-11.246-9.117-20.363-20.367-20.363zm0 0" opacity="1" data-original="#bdd9e5"></path><g fill="#26a3b9"><path d="M73.71 278.48a6.996 6.996 0 0 1-6.304-3.968 7.003 7.003 0 0 1 .84-7.399l21.414-26.82a6.997 6.997 0 1 1 10.934 8.734l-21.41 26.82a6.98 6.98 0 0 1-5.473 2.633zM112.996 310.824a7.004 7.004 0 0 1-6.308-3.965 7.001 7.001 0 0 1 .84-7.402l30.242-37.887c2.414-3.023 6.82-3.52 9.84-1.105a6.999 6.999 0 0 1 1.105 9.84l-30.246 37.886a6.98 6.98 0 0 1-5.473 2.633zM178.094 310.824a6.999 6.999 0 0 1-5.469-11.367l40.645-50.914c2.414-3.023 6.82-3.52 9.84-1.106a6.999 6.999 0 0 1 1.105 9.84l-40.64 50.914a6.99 6.99 0 0 1-5.481 2.633zM214.957 346.207a7.013 7.013 0 0 1-6.316-3.969 7.006 7.006 0 0 1 .851-7.414l75.465-94.531a7.003 7.003 0 0 1 10.945 8.734l-75.468 94.547a7.005 7.005 0 0 1-5.477 2.633zM243.852 391.57a7.001 7.001 0 0 1-5.469-11.371l71.918-90.097a7.004 7.004 0 0 1 9.64-.868 6.998 6.998 0 0 1 1.293 9.59l-71.918 90.102a6.993 6.993 0 0 1-5.464 2.644zM373.406 310.824a6.999 6.999 0 0 1-5.469-11.367l28.364-35.535a7.007 7.007 0 0 1 9.844-1.106c3.02 2.414 3.515 6.82 1.101 9.84l-28.363 35.535a6.981 6.981 0 0 1-5.477 2.633zm0 0" fill="#26a3b9" opacity="1" data-original="#26a3b9"></path></g></g></svg>