<svg xmlns="http://www.w3.org/2000/svg" version="1.1" xmlns:xlink="http://www.w3.org/1999/xlink" width="512" height="512" x="0" y="0" viewBox="0 0 446.347 446" style="enable-background:new 0 0 512 512" xml:space="preserve" class=""><g><path fill="#26a3b9" d="M88.066 331.465c-.18 14.41-11.91 25.996-26.32 25.996s-26.14-11.586-26.316-25.996c0-14.535 26.32-52.559 26.32-52.559s26.316 38.028 26.316 52.559zM176.926 244.98a26.324 26.324 0 0 1-39.574 23.066 26.332 26.332 0 0 1-13.063-23.066c0-14.535 26.32-52.558 26.32-52.558s26.317 38.035 26.317 52.558zM250.18 331.465c-.176 14.41-11.907 25.996-26.317 25.996s-26.14-11.586-26.32-25.996c0-14.535 26.32-52.559 26.32-52.559s26.317 38.028 26.317 52.559zM339.063 244.98c-.18 14.41-11.91 25.997-26.32 25.997-14.411 0-26.141-11.586-26.317-25.997 0-14.535 26.32-52.558 26.32-52.558s26.316 38.035 26.316 52.558zm0 0" opacity="1" data-original="#26a3b9"></path><path fill="#168aa5" d="M125.973 236.93h49.27c-5.75-17.176-24.634-44.5-24.634-44.5s-18.89 27.328-24.636 44.5zM337.355 236.93c-5.746-17.176-24.632-44.5-24.632-44.5s-18.887 27.324-24.63 44.5zm0 0" opacity="1" data-original="#168aa5"></path><path fill="#26a3b9" d="M412.297 331.465c-.18 14.41-11.91 25.996-26.317 25.996-14.41 0-26.14-11.586-26.32-25.996 0-14.535 26.32-52.559 26.32-52.559s26.317 38.028 26.317 52.559zm0 0" opacity="1" data-original="#26a3b9"></path><g fill="#168aa5"><path d="M61.746 278.906s-2.57 3.711-6.105 9.258c7.777 12.211 20.218 33.309 20.218 43.3-.004 12.18-8.367 22.763-20.214 25.583a26.247 26.247 0 0 0 22.437-4.899 26.253 26.253 0 0 0 9.984-20.683c0-14.531-26.32-52.559-26.32-52.559zM150.61 192.434s-2.57 3.71-6.106 9.257c7.758 12.211 20.215 33.29 20.215 43.29.004 12.187-8.36 22.777-20.215 25.601a26.239 26.239 0 0 0 32.422-25.602c0-14.52-26.317-52.546-26.317-52.546zM223.86 278.906s-2.567 3.711-6.102 9.258c7.773 12.211 20.215 33.309 20.215 43.3-.008 12.18-8.371 22.763-20.215 25.583a26.253 26.253 0 0 0 22.437-4.899 26.237 26.237 0 0 0 9.98-20.683c.005-14.531-26.316-52.559-26.316-52.559zM312.719 192.434s-2.567 3.71-6.102 9.257c7.781 12.211 20.219 33.29 20.219 43.29.004 12.187-8.36 22.777-20.215 25.601a26.223 26.223 0 0 0 22.457-4.894 26.246 26.246 0 0 0 9.985-20.708c0-14.52-26.344-52.546-26.344-52.546zM385.977 278.906s-2.567 3.711-6.106 9.258c7.777 12.211 20.219 33.309 20.219 43.3-.008 12.184-8.38 22.766-20.23 25.583a26.247 26.247 0 0 0 22.437-4.899 26.24 26.24 0 0 0 9.984-20.683c.016-14.531-26.304-52.559-26.304-52.559zm0 0" fill="#168aa5" opacity="1" data-original="#168aa5"></path></g><path fill="#d9ecf2" d="M367.734 61.586a79.516 79.516 0 0 0-34.574 7.937C315.781 26.363 273.266-1.324 226.762.238c-46.508 1.563-87.07 32.04-101.512 76.27-27.293.062-52.234 15.457-64.531 39.82A52.902 52.902 0 0 0 9.918 137.82a52.912 52.912 0 0 0-4.074 55.012 52.916 52.916 0 0 0 47.09 28.734h314.8c43.633-.757 78.614-36.347 78.614-79.988 0-43.644-34.98-79.234-78.614-79.988zm0 0" opacity="1" data-original="#d9ecf2" class=""></path><path fill="#bdd9e5" d="M306.145 80.477a60.043 60.043 0 0 1 27.015-10.95c-1.332-3.347-2.496-5.718-3.46-7.695-21.126-43.086-67.716-67.535-115.177-60.45 39.407 5.782 78.918 38.942 91.622 79.095zM367.734 61.586a78.636 78.636 0 0 0-15.914 1.652c40.14 8.348 67.473 45.692 63.293 86.48-4.18 40.786-38.52 71.813-79.52 71.845h32.141c43.633-.758 78.614-36.348 78.614-79.989 0-43.644-34.98-79.234-78.614-79.988zM103.516 79.918a68.653 68.653 0 0 0 27.824 46.32s-15.938-19.683-6.086-49.73a72.163 72.163 0 0 0-21.738 3.41zM52.938 115.691a53.446 53.446 0 0 0-9.5.899 59 59 0 0 0 13.171 30.16s-2.52-17.371 4.114-30.402a53 53 0 0 0-7.785-.657zm0 0" opacity="1" data-original="#bdd9e5" class=""></path></g></svg>