<?xml version="1.0" encoding="utf-8"?>
<svg viewBox="0 0 500 500" xmlns="http://www.w3.org/2000/svg">
  <g transform="matrix(1, 0, 0, 1, 8.95964527130127, 24.609710693359375)">
    <path fill="#fabe02" d="M 359.122 183.301 C 359.122 247.141 307.367 298.891 243.528 298.891 C 179.689 298.891 127.934 247.141 127.934 183.301 C 127.934 119.461 179.688 67.707 243.528 67.707 C 307.368 67.707 359.121 119.461 359.121 183.301 L 359.122 183.301 Z M 359.122 183.301" opacity="1" data-original="#fabe02"/>
    <path fill="#f59a1d" d="M 243.539 67.691 C 238.117 67.699 232.703 68.081 227.336 68.844 C 284.344 76.91 326.723 125.707 326.723 183.281 C 326.723 240.859 284.344 289.656 227.336 297.722 C 270.184 303.859 312.876 285.542 337.95 250.262 C 363.028 214.976 366.293 168.64 346.41 130.192 C 326.524 91.742 286.828 67.621 243.54 67.692 L 243.539 67.691 Z M 243.539 67.691" opacity="1" data-original="#f59a1d"/>
    <g fill="#fabe02" transform="matrix(1, 0, 0, 1, -53.738281, 5.324219)">
      <path d="M297.277 42.176c-3.867 0-7-3.137-7-7V7.082a7.001 7.001 0 0 1 14 0v28.086a6.99 6.99 0 0 1-2.047 4.953 6.991 6.991 0 0 1-4.953 2.055zM225.871 61.309a7.017 7.017 0 0 1-6.07-3.5L205.758 33.48a7.002 7.002 0 0 1 12.125-7l14.043 24.329a7.01 7.01 0 0 1-6.055 10.5zM173.59 113.566a6.997 6.997 0 0 1-3.512-.93L145.75 98.59a6.998 6.998 0 0 1-3.54-6.07 6.984 6.984 0 0 1 3.513-6.082 6.987 6.987 0 0 1 7.027.03l24.328 14.044a7 7 0 0 1 3.266 7.875 7.006 7.006 0 0 1-6.77 5.187zM420.941 113.566a6.995 6.995 0 0 1-6.77-5.183 6.996 6.996 0 0 1 3.263-7.88l24.328-14.046a7.006 7.006 0 0 1 9.523 2.586 7.002 7.002 0 0 1-2.523 9.539l-24.328 14.043a6.948 6.948 0 0 1-3.493.941zM368.66 61.309a7.01 7.01 0 0 1-6.055-10.5l14.043-24.329a7.01 7.01 0 0 1 6.07-3.543 7.002 7.002 0 0 1 6.055 10.543L374.73 57.81a7.004 7.004 0 0 1-6.07 3.5zM297.277 355.867c-3.867 0-7-3.133-7-7v-28.101a7.001 7.001 0 0 1 14 0v28.09a7 7 0 0 1-7 7.011zM468.156 184.977h-28.078a7.001 7.001 0 0 1 0-14h28.086a7.001 7.001 0 0 1 0 14zM154.477 184.977h-28.102a7.001 7.001 0 0 1 0-14h28.102a7.001 7.001 0 0 1 0 14zM382.719 332.977a7.007 7.007 0 0 1-6.074-3.5l-14.043-24.329a7.002 7.002 0 0 1 6.055-10.543 7.01 7.01 0 0 1 6.07 3.543l14.043 24.329a7.006 7.006 0 0 1 0 6.992 7.02 7.02 0 0 1-6.055 3.508zM445.254 270.422a6.984 6.984 0 0 1-3.492-.938l-24.328-14.046a6.988 6.988 0 0 1-3.54-6.07 6.992 6.992 0 0 1 3.512-6.083 6.987 6.987 0 0 1 7.028.031l24.328 14.043a6.999 6.999 0 0 1-3.508 13.063zM149.277 270.422a7.006 7.006 0 0 1-6.77-5.188 7 7 0 0 1 3.266-7.875l24.305-14.043a6.987 6.987 0 0 1 7.027-.03 6.992 6.992 0 0 1 3.512 6.081 6.988 6.988 0 0 1-3.539 6.07l-24.328 14.047a6.993 6.993 0 0 1-3.473.938zM211.813 332.977a7.02 7.02 0 0 1-6.055-3.508 7.006 7.006 0 0 1 0-6.992l14.043-24.329a7.01 7.01 0 0 1 6.07-3.543 7.002 7.002 0 0 1 6.055 10.543l-14.043 24.329a7.017 7.017 0 0 1-6.07 3.5zm0 0" fill="#fabe02" opacity="1" data-original="#fabe02"/>
    </g>
    <g transform="matrix(1, 0, 0, 1, 126.467987, 33.712875)">
      <g fill="#bdd9e5" transform="matrix(1, 0, 0, 1, -163.351562, 204.867188)">
        <g transform="matrix(1, 0, 0, 1, 47.021721, -253.137146)">
          <g fill="#168aa5"/>
          <path fill="#d9ecf2" d="M160.43 344.875h183.879c7.203 0 13.039 5.84 13.039 13.04 0 7.202-5.836 13.042-13.04 13.042H160.43c-7.203 0-13.043-5.84-13.043-13.043 0-7.2 5.84-13.039 13.043-13.039zm160.996-52.727c0 7.204 5.836 13.04 13.039 13.04H385.8c7.199 0 13.039-5.836 13.039-13.04 0-7.203-5.84-13.039-13.04-13.039h-51.34c-7.198 0-13.034 5.84-13.034 13.04zm-264.68 0c0 7.204 5.84 13.04 13.043 13.04h210.664c7.2 0 13.04-5.836 13.04-13.04 0-7.203-5.84-13.039-13.04-13.039H69.785c-7.203 0-13.043 5.836-13.043 13.04zM0 357.914c0 7.203 5.84 13.043 13.04 13.043h92.6c7.2 0 13.04-5.84 13.04-13.043 0-7.2-5.84-13.039-13.04-13.039H13.048C5.844 344.871 0 350.711 0 357.915zm385.797 0c0 7.203 5.836 13.043 13.039 13.043h39.812c7.204 0 13.04-5.84 13.04-13.043 0-7.2-5.836-13.039-13.04-13.039h-39.82c-7.2.004-13.031 5.844-13.031 13.04zm0 0" opacity="1" data-original="#d9ecf2"/>
          <path fill="#bdd9e5" d="M379.145 292.152c0 7.203-5.84 13.04-13.04 13.04h19.692c7.2 0 13.039-5.837 13.039-13.04s-5.84-13.039-13.04-13.039h-19.69c7.199 0 13.039 5.836 13.039 13.04zM273.8 292.152c0 7.203-5.84 13.04-13.038 13.04h19.691c7.2 0 13.04-5.837 13.04-13.04s-5.84-13.039-13.04-13.039h-19.691c7.199 0 13.039 5.836 13.039 13.04zM438.648 344.875h-19.691c7.2 0 13.04 5.84 13.04 13.04 0 7.202-5.84 13.042-13.04 13.042h19.691c7.204 0 13.04-5.84 13.04-13.043 0-7.2-5.836-13.039-13.04-13.039zM344.309 344.875h-19.696c7.2 0 13.04 5.84 13.04 13.04 0 7.202-5.84 13.042-13.04 13.042h19.692c7.199 0 13.039-5.84 13.039-13.043 0-7.2-5.84-13.039-13.04-13.039zM105.64 344.875H85.95c7.198 0 13.038 5.84 13.038 13.04 0 7.202-5.84 13.042-13.039 13.042h19.692c7.199 0 13.039-5.84 13.039-13.043 0-7.2-5.84-13.039-13.04-13.039zm0 0" opacity="1" data-original="#bdd9e5"/>
        </g>
      </g>
    </g>
  </g>
</svg>