<?xml version="1.0" encoding="utf-8"?>
<svg viewBox="0 0 500 500" xmlns="http://www.w3.org/2000/svg">
  <g transform="matrix(1, 0, 0, 1, 104.45056915283206, 25.70960617065431)"/>
  <g transform="matrix(1, 0, 0, 1, 10.480220794677763, 31.349929809570327)"/>
  <g transform="matrix(0.7624359726905823, 0, 0, 0.7624359726905823, 87.88987731933597, 41.18614959716798)" style="">
    <g transform="matrix(1.121107, 0, 0, 1.121107, -79.152885, -12.885086)" style="transform-origin: 121.455px 223.892px;">
      <path fill="#d9ecf2" d="M33.652 0h175.61c18.367 0 33.258 14.89 33.258 33.262v381.261c0 18.372-14.891 33.262-33.258 33.262H33.652c-18.37 0-33.261-14.89-33.261-33.262V33.262C.39 14.89 15.28 0 33.652 0zm0 0" opacity="1" data-original="#d9ecf2" class=""/>
      <path fill="#bdd9e5" d="M209.262 0H187.55c18.37 0 33.262 14.89 33.262 33.262v381.261c0 18.372-14.891 33.262-33.262 33.262h21.707c18.367 0 33.258-14.89 33.258-33.262V33.258C242.516 14.89 227.625.004 209.262 0zm0 0" opacity="1" data-original="#bdd9e5"/>
      <path fill="#fabe02" d="M150.668 325.375V112.422c0-16.137-13.078-29.215-29.215-29.215-16.133 0-29.215 13.078-29.215 29.215v212.953c-19.113 12.855-27.586 36.691-20.867 58.723 6.719 22.035 27.047 37.09 50.082 37.09s43.367-15.055 50.086-37.09c6.719-22.032-1.754-45.868-20.871-58.723zm0 0" opacity="1" data-original="#fabe02"/>
      <path fill="#f59a1d" d="M83.66 368.82a52.3 52.3 0 0 1 23.145-43.453V112.422c.007-13.324 9.03-24.95 21.93-28.266a29.115 29.115 0 0 0-36.496 28.266v212.953c-20.419 13.512-28.716 39.398-19.954 62.262 8.762 22.867 32.23 36.582 56.45 32.988-25.84-3.613-45.067-25.715-45.075-51.805zm0 0" opacity="1" data-original="#f59a1d" class=""/>
      <path fill="#f59a1d" d="M136.578 343.246v-230.7a7.001 7.001 0 0 0-14 0v230.7c-12.824 3.508-21.074 15.961-19.305 29.137 1.766 13.18 13.012 23.012 26.305 23.012 13.297 0 24.543-9.832 26.309-23.012 1.77-13.176-6.48-25.63-19.309-29.137zm0 0" opacity="1" data-original="#f59a1d" class=""/>
      <path fill="#d8283f" d="M121.457 375.832c-3.867 0-7-3.133-7-7V112.547a7.001 7.001 0 0 1 14 0V368.82a7 7 0 0 1-7 7.012zm0 0" opacity="1" data-original="#d8283f"/>
      <path fill="#ff414d" d="M148 368.828c0 14.66-11.883 26.543-26.543 26.543S94.91 383.488 94.91 368.828s11.887-26.543 26.547-26.543S148 354.168 148 368.828zm0 0" opacity="1" data-original="#ff414d"/>
      <path fill="#d8283f" d="M121.457 342.285c-1.723 0-3.441.168-5.129.504 12.442 2.45 21.414 13.36 21.414 26.04s-8.972 23.589-21.414 26.038a26.544 26.544 0 0 0 28.945-37.8 26.547 26.547 0 0 0-23.816-14.782zm0 0" opacity="1" data-original="#d8283f"/>
      <g fill="#002d42">
        <path d="M61.371 98.719h-19.02a7.001 7.001 0 0 1 0-14h19.02a7.001 7.001 0 0 1 0 14zM61.371 129.445h-19.02a7.001 7.001 0 0 1 0-14h19.02a7.001 7.001 0 0 1 0 14zM61.371 160.168h-19.02c-3.867 0-7-3.133-7-7s3.133-7 7-7h19.02c3.867 0 7 3.133 7 7s-3.133 7-7 7zM61.371 190.887h-19.02a7.001 7.001 0 0 1 0-14h19.02a7.001 7.001 0 0 1 0 14zM61.371 221.621h-19.02a7.001 7.001 0 0 1 0-14h19.02a7.001 7.001 0 0 1 0 14zM61.371 252.336h-19.02c-3.867 0-7-3.133-7-7s3.133-7 7-7h19.02c3.867 0 7 3.133 7 7s-3.133 7-7 7zM61.371 283.059h-19.02a7.001 7.001 0 0 1 0-14h19.02a7.001 7.001 0 0 1 0 14zM61.371 313.79h-19.02a7.001 7.001 0 0 1 0-14h19.02a7.001 7.001 0 0 1 0 14zm0 0" fill="#002d42" opacity="1" data-original="#002d42"/>
      </g>
      <path fill="#ff414d" d="M210.96 91.719c0 9.574-7.76 17.332-17.331 17.332-9.574 0-17.332-7.758-17.332-17.332 0-9.57 7.758-17.332 17.332-17.332 9.57 0 17.332 7.761 17.332 17.332zm0 0" opacity="1" data-original="#ff414d"/>
      <path fill="#d8283f" d="M193.629 74.387c-1.79.023-3.559.328-5.254.898a17.195 17.195 0 0 1 12.117 16.43 17.2 17.2 0 0 1-12.117 16.433c1.695.57 3.465.872 5.254.895 9.469-.145 17.066-7.86 17.066-17.328s-7.597-17.188-17.066-17.332zm0 0" opacity="1" data-original="#d8283f"/>
      <path fill="#002d42" d="M82.863 57.797H59.266l-1.067-9.227 22.035-30.148h14.754v29.285h6.168v10.078h-6.164v9.285H82.863zm0-10.078V30.984L70.734 47.72zM106.207 42.684c0-14.746 9.293-25.176 22.402-25.176 13.2 0 22.399 10.426 22.399 25.176 0 14.824-9.2 25.254-22.399 25.254-13.109 0-22.402-10.43-22.402-25.254zm32.402 0c0-8.297-4.113-14.184-10-14.184-5.816 0-9.93 5.887-9.93 14.184s4.114 14.257 9.93 14.257c5.899.004 10.012-5.953 10.012-14.257zM155.457 29.219c.297-8.227 7.055-14.746 15.29-14.746s14.991 6.52 15.288 14.746c-.297 8.23-7.055 14.75-15.289 14.75s-14.992-6.52-15.289-14.75zm23.297 0a8.042 8.042 0 0 0-8.223-7.754 8.042 8.042 0 0 0-7.847 8.129c.054 4.402 3.636 7.945 8.039 7.941a8.283 8.283 0 0 0 8.03-8.316zm0 0" opacity="1" data-original="#002d42"/>
    </g>
  </g>
</svg>