<?xml version="1.0" encoding="utf-8"?>
<svg viewBox="0 0 500 500" xmlns="http://www.w3.org/2000/svg">
  <g transform="matrix(1, 0, 0, 1, 104.45056915283206, 25.70960617065431)"/>
  <g transform="matrix(1, 0, 0, 1, 10.480220794677763, 31.349929809570327)"/>
  <g transform="matrix(0.7624359726905823, 0, 0, 0.7624359726905823, 87.88987731933597, 41.18614959716798)" style="">
    <g transform="matrix(1.194747, 0, 0, 1.194747, -57.829998, -9.215848)" style="">
      <path fill="#d9ecf2" d="m26.77 37.004 59.843 183.543a15.07 15.07 0 0 0 14.43 10.402 15.075 15.075 0 0 0 14.285-10.597l17.77-57.118a15.064 15.064 0 0 1 13.656-10.574 15.062 15.062 0 0 1 14.617 9.203l65.32 155.078a15.068 15.068 0 0 0 27.824-.117l56.915-138.36a15.065 15.065 0 0 1 27.977.258 15.073 15.073 0 0 0 13.698 9.602 15.071 15.071 0 0 0 14.122-8.965L430.32 37.008zm0 0" opacity="1" data-original="#d9ecf2" class=""/>
      <g fill="#bdd9e5">
        <path d="M32.73 55.324H422.2l8.12-18.32H26.758zM133.34 160.586a15.072 15.072 0 0 0-14.617-9.207 15.073 15.073 0 0 0-13.66 10.578L87.297 219.07a15.35 15.35 0 0 1-.637 1.602 15.073 15.073 0 0 0 14.445 10.289 15.065 15.065 0 0 0 14.227-10.594l17.77-57.113a14.83 14.83 0 0 1 .66-1.66zM311.371 177.445a15.07 15.07 0 0 0-13.902-9.605 15.078 15.078 0 0 0-14.078 9.344l-56.907 138.359c-.058.144-.144.27-.203.402l.399.985a15.062 15.062 0 0 0 13.949 9.218 15.063 15.063 0 0 0 13.875-9.336l56.91-138.359c.066-.156.152-.289.223-.441-.07-.188-.184-.36-.266-.567zm0 0" fill="#bdd9e5" opacity="1" data-original="#bdd9e5" class=""/>
        <path d="M401.719 37.004 339.19 178.078l-.046.094c.082.191.187.355.261.55a15.07 15.07 0 0 0 13.7 9.594 15.064 15.064 0 0 0 14.12-8.957L430.32 37.008zM226.695 252.32a7.001 7.001 0 0 1-6.457-4.28l-35.148-83.454a6.999 6.999 0 0 1 3.73-9.172 7.004 7.004 0 0 1 9.172 3.734l35.153 83.457a6.996 6.996 0 0 1-.622 6.586 7.01 7.01 0 0 1-5.828 3.133zM159.863 37.004l24.977 76.574a12.622 12.622 0 0 0 24.055-.164 12.631 12.631 0 0 1 11.44-8.86 12.629 12.629 0 0 1 12.25 7.712l14.083 33.441a14.797 14.797 0 0 0 27.152.36l49.395-109.063zm0 0" fill="#bdd9e5" opacity="1" data-original="#bdd9e5" class=""/>
      </g>
      <path fill="#d9ecf2" d="M246.672 73.691a14.797 14.797 0 0 0 27.152.36l16.778-37.047h-60c.812.976 1.48 2.07 1.972 3.242zM208.895 41.395c.5-1.61 1.316-3.106 2.402-4.399h-27.942l1.489 4.555a12.622 12.622 0 0 0 24.05-.156zm0 0" opacity="1" data-original="#d9ecf2" class=""/>
      <path fill="#26a3b9" d="M197.566 331.98h-14.398l11.95-11.949a6.997 6.997 0 0 0 0-9.898 7.002 7.002 0 0 0-9.903 0l-21.856 21.847h-34.308l15.281-15.28h22.977a7.001 7.001 0 0 0 0-14h-8.973l4.996-4.997a6.997 6.997 0 0 0 0-9.898 6.997 6.997 0 0 0-9.898 0l-4.996 4.996v-8.961a7.001 7.001 0 0 0-14 0v22.972l-15.282 15.282v-34.301l21.848-21.848c2.734-2.734 2.734-7.168 0-9.902s-7.168-2.734-9.899 0l-11.937 11.937v-14.402a7.001 7.001 0 0 0-14 0v14.402l-11.961-11.937c-2.734-2.734-7.164-2.734-9.898 0s-2.735 7.168 0 9.902l21.859 21.848v34.305l-15.281-15.282V283.84a7.001 7.001 0 0 0-14 0v8.972l-4.996-4.996a6.997 6.997 0 0 0-9.899 0 6.997 6.997 0 0 0 0 9.899l4.977 4.996h-8.965a7.001 7.001 0 0 0 0 14h22.965l15.277 15.281H60.957l-21.848-21.847c-2.734-2.735-7.168-2.735-9.902 0s-2.734 7.164 0 9.898l11.961 11.937H26.77c-3.868 0-7 3.133-7 7 0 3.868 3.132 7 7 7h14.398l-11.95 11.95c-2.734 2.73-2.734 7.164 0 9.898s7.169 2.734 9.903 0l21.836-21.848h34.3l-15.28 15.282H57.004a7.001 7.001 0 0 0 0 14h8.965l-4.992 4.992a6.997 6.997 0 0 0 0 9.898 6.997 6.997 0 0 0 9.898 0l4.996-4.996v8.977c0 3.863 3.137 7 7 7 3.867 0 7-3.137 7-7V371.18l15.281-15.282v34.305l-21.847 21.848a7.002 7.002 0 0 0 0 9.902 6.997 6.997 0 0 0 9.898 0l11.965-11.973v14.399c0 3.867 3.133 7 7 7s7-3.133 7-7V409.98l11.95 11.95a7.005 7.005 0 0 0 9.898 0 7.002 7.002 0 0 0 0-9.903l-21.848-21.836v-34.304l15.281 15.281v22.977a7.001 7.001 0 0 0 14 0v-8.965l4.996 4.996c2.735 2.734 7.164 2.734 9.899 0s2.734-7.164 0-9.899l-4.992-4.992h8.972a7.001 7.001 0 0 0 0-14H144.34l-15.281-15.281h34.3l21.848 21.848a7.002 7.002 0 0 0 9.902 0 6.997 6.997 0 0 0 0-9.899l-11.941-11.973h14.398c3.868 0 7-3.132 7-7 0-3.867-3.132-7-7-7zM451.453 309.71c0-3.862-3.137-7-7-7h-8.887l7.73-7.73a7.002 7.002 0 0 0 0-9.902 7.01 7.01 0 0 0-9.901 0l-17.625 17.629h-24.754l17.925-17.922a7.01 7.01 0 0 0 0-9.902 7.002 7.002 0 0 0-9.902 0l-17.918 17.926v-24.746l17.625-17.625a7.002 7.002 0 0 0 0-9.903 6.997 6.997 0 0 0-9.898 0l-7.727 7.73v-8.874a7.001 7.001 0 0 0-14 0v8.879l-7.73-7.73a6.997 6.997 0 0 0-9.899 0 7.002 7.002 0 0 0 0 9.901l17.63 17.625v24.75l-17.915-17.93a6.992 6.992 0 0 0-6.828-1.96 6.99 6.99 0 0 0-5.027 5.023 6.993 6.993 0 0 0 1.957 6.832l17.921 17.922h-24.746l-17.629-17.629a7.005 7.005 0 0 0-9.898 0 7.002 7.002 0 0 0 0 9.903l7.727 7.73h-8.871a7.001 7.001 0 0 0 0 14h8.87l-7.726 7.73a6.997 6.997 0 0 0 0 9.899 6.997 6.997 0 0 0 9.898 0l17.63-17.625h24.745l-17.917 17.922c-2.735 2.734-2.735 7.164 0 9.898s7.164 2.735 9.898 0l17.926-17.922v24.746l-17.63 17.63a6.997 6.997 0 0 0 0 9.898 6.997 6.997 0 0 0 9.9 0l7.73-7.727v8.875c0 3.867 3.133 7 7 7s7-3.133 7-7v-8.875l7.726 7.727a7.002 7.002 0 0 0 9.903 0 7.005 7.005 0 0 0 0-9.899l-17.63-17.629V326.61l17.919 17.922c2.734 2.735 7.168 2.735 9.902 0s2.734-7.164 0-9.898l-17.922-17.922h24.75l17.625 17.625a7.002 7.002 0 0 0 9.903 0 6.997 6.997 0 0 0 0-9.898l-7.747-7.727h8.875a6.99 6.99 0 0 0 4.957-2.047 7.008 7.008 0 0 0 2.055-4.953zM18.32.367h416.094c10.121 0 18.32 8.203 18.32 18.32s-8.199 18.317-18.32 18.317H18.32C8.203 37.004 0 28.804 0 18.688S8.203.367 18.32.367zm0 0" opacity="1" data-original="#26a3b9" class=""/>
      <path fill="#168aa5" d="M434.414.379H404.77a18.324 18.324 0 0 1 16.09 27.558 18.32 18.32 0 0 1-16.09 9.079h29.628c10.012-.149 18.051-8.305 18.051-18.317S444.41.527 434.4.38zm0 0" opacity="1" data-original="#168aa5"/>
    </g>
  </g>
</svg>