<?xml version="1.0" encoding="utf-8"?>
<svg viewBox="0 0 500 500" xmlns="http://www.w3.org/2000/svg">
  <g transform="matrix(1.27342, 0, 0, 1.212804, -118.468575, 20.380751)" style=""><path fill="#fabe02" d="M412.86 177.977c0 63.84-51.755 115.59-115.594 115.59s-115.594-51.75-115.594-115.59S233.426 62.383 297.266 62.383s115.593 51.754 115.593 115.594zm0 0" opacity="1" data-original="#fabe02"></path><path fill="#f59a1d" d="M297.277 62.367c-5.422.008-10.836.39-16.203 1.153 57.008 8.066 99.387 56.863 99.387 114.437 0 57.578-42.379 106.375-99.387 114.441 42.848 6.137 85.54-12.18 110.614-47.46 25.078-35.286 28.343-81.622 8.46-120.07-19.886-38.45-59.582-62.571-102.87-62.5zm0 0" opacity="1" data-original="#f59a1d"></path><g fill="#fabe02"><path d="M297.277 42.176c-3.867 0-7-3.137-7-7V7.082a7.001 7.001 0 0 1 14 0v28.086a6.99 6.99 0 0 1-2.047 4.953 6.991 6.991 0 0 1-4.953 2.055zM225.871 61.309a7.017 7.017 0 0 1-6.07-3.5L205.758 33.48a7.002 7.002 0 0 1 12.125-7l14.043 24.329a7.01 7.01 0 0 1-6.055 10.5zM173.59 113.566a6.997 6.997 0 0 1-3.512-.93L145.75 98.59a6.998 6.998 0 0 1-3.54-6.07 6.984 6.984 0 0 1 3.513-6.082 6.987 6.987 0 0 1 7.027.03l24.328 14.044a7 7 0 0 1 3.266 7.875 7.006 7.006 0 0 1-6.77 5.187zM420.941 113.566a6.995 6.995 0 0 1-6.77-5.183 6.996 6.996 0 0 1 3.263-7.88l24.328-14.046a7.006 7.006 0 0 1 9.523 2.586 7.002 7.002 0 0 1-2.523 9.539l-24.328 14.043a6.948 6.948 0 0 1-3.493.941zM368.66 61.309a7.01 7.01 0 0 1-6.055-10.5l14.043-24.329a7.01 7.01 0 0 1 6.07-3.543 7.002 7.002 0 0 1 6.055 10.543L374.73 57.81a7.004 7.004 0 0 1-6.07 3.5zM297.277 355.867c-3.867 0-7-3.133-7-7v-28.101a7.001 7.001 0 0 1 14 0v28.09a7 7 0 0 1-7 7.011zM468.156 184.977h-28.078a7.001 7.001 0 0 1 0-14h28.086a7.001 7.001 0 0 1 0 14zM154.477 184.977h-28.102a7.001 7.001 0 0 1 0-14h28.102a7.001 7.001 0 0 1 0 14zM382.719 332.977a7.007 7.007 0 0 1-6.074-3.5l-14.043-24.329a7.002 7.002 0 0 1 6.055-10.543 7.01 7.01 0 0 1 6.07 3.543l14.043 24.329a7.006 7.006 0 0 1 0 6.992 7.02 7.02 0 0 1-6.055 3.508zM445.254 270.422a6.984 6.984 0 0 1-3.492-.938l-24.328-14.046a6.988 6.988 0 0 1-3.54-6.07 6.992 6.992 0 0 1 3.512-6.083 6.987 6.987 0 0 1 7.028.031l24.328 14.043a6.999 6.999 0 0 1-3.508 13.063zM149.277 270.422a7.006 7.006 0 0 1-6.77-5.188 7 7 0 0 1 3.266-7.875l24.305-14.043a6.987 6.987 0 0 1 7.027-.03 6.992 6.992 0 0 1 3.512 6.081 6.988 6.988 0 0 1-3.539 6.07l-24.328 14.047a6.993 6.993 0 0 1-3.473.938zM211.813 332.977a7.02 7.02 0 0 1-6.055-3.508 7.006 7.006 0 0 1 0-6.992l14.043-24.329a7.01 7.01 0 0 1 6.07-3.543 7.002 7.002 0 0 1 6.055 10.543l-14.043 24.329a7.017 7.017 0 0 1-6.07 3.5zm0 0" fill="#fabe02" opacity="1" data-original="#fabe02"></path></g><g transform="matrix(1, 0, 0, 1, 143.487518, -103.61525)"><path fill="#d9ecf2" d="M 163.945 360.484 C 156.788 360.489 149.715 362.023 143.199 364.984 C 130.296 337.87 100.992 322.578 71.371 327.504 C 41.746 332.425 18.964 356.374 15.527 386.202 C 1.132 382.072 -14.351 386.705 -24.113 398.062 C -43.341 420.435 -31.139 455.233 -2.149 460.699 C 0.194 461.141 2.573 461.363 4.957 461.362 L 163.945 461.362 C 191.805 461.362 214.39 438.781 214.39 410.922 C 214.39 383.066 191.804 360.48 163.945 360.48 L 163.945 360.484 Z M 163.945 360.484" opacity="1" data-original="#d9ecf2"></path><g fill="#bdd9e5" transform="matrix(1, 0, 0, 1, -163.351562, 204.867188)"><path d="M 303.898 161.125 C 310.414 158.164 317.487 156.63 324.644 156.625 C 325.534 156.625 326.402 156.715 327.277 156.758 C 312.996 131.625 284.254 118.426 255.887 123.976 C 276.872 128.055 294.683 141.836 303.898 161.125 Z M 350.328 156.625 C 346.015 156.645 341.718 157.226 337.554 158.355 C 362.097 164.781 378.039 188.453 374.765 213.613 C 371.492 238.773 350.023 257.578 324.648 257.508 L 350.328 257.508 C 378.188 257.508 400.773 234.926 400.773 207.066 C 400.773 179.211 378.187 156.625 350.328 156.625 L 350.328 156.625 Z M 350.328 156.625" fill="#bdd9e5" opacity="1" data-original="#bdd9e5" class=""></path></g></g></g>
</svg>