<?xml version="1.0" encoding="utf-8"?>
<svg viewBox="0 0 500 500" xmlns="http://www.w3.org/2000/svg">
  <g transform="matrix(1, 0, 0, 1, 8.95964527130127, 24.609710693359375)">
    <path fill="#fabe02" d="M 359.122 183.301 C 359.122 247.141 307.367 298.891 243.528 298.891 C 179.689 298.891 127.934 247.141 127.934 183.301 C 127.934 119.461 179.688 67.707 243.528 67.707 C 307.368 67.707 359.121 119.461 359.121 183.301 L 359.122 183.301 Z M 359.122 183.301" opacity="1" data-original="#fabe02"/>
    <path fill="#f59a1d" d="M 243.539 67.691 C 238.117 67.699 232.703 68.081 227.336 68.844 C 284.344 76.91 326.723 125.707 326.723 183.281 C 326.723 240.859 284.344 289.656 227.336 297.722 C 270.184 303.859 312.876 285.542 337.95 250.262 C 363.028 214.976 366.293 168.64 346.41 130.192 C 326.524 91.742 286.828 67.621 243.54 67.692 L 243.539 67.691 Z M 243.539 67.691" opacity="1" data-original="#f59a1d"/>
    <g fill="#fabe02" transform="matrix(1, 0, 0, 1, -53.738281, 5.324219)">
      <path d="M297.277 42.176c-3.867 0-7-3.137-7-7V7.082a7.001 7.001 0 0 1 14 0v28.086a6.99 6.99 0 0 1-2.047 4.953 6.991 6.991 0 0 1-4.953 2.055zM225.871 61.309a7.017 7.017 0 0 1-6.07-3.5L205.758 33.48a7.002 7.002 0 0 1 12.125-7l14.043 24.329a7.01 7.01 0 0 1-6.055 10.5zM173.59 113.566a6.997 6.997 0 0 1-3.512-.93L145.75 98.59a6.998 6.998 0 0 1-3.54-6.07 6.984 6.984 0 0 1 3.513-6.082 6.987 6.987 0 0 1 7.027.03l24.328 14.044a7 7 0 0 1 3.266 7.875 7.006 7.006 0 0 1-6.77 5.187zM420.941 113.566a6.995 6.995 0 0 1-6.77-5.183 6.996 6.996 0 0 1 3.263-7.88l24.328-14.046a7.006 7.006 0 0 1 9.523 2.586 7.002 7.002 0 0 1-2.523 9.539l-24.328 14.043a6.948 6.948 0 0 1-3.493.941zM368.66 61.309a7.01 7.01 0 0 1-6.055-10.5l14.043-24.329a7.01 7.01 0 0 1 6.07-3.543 7.002 7.002 0 0 1 6.055 10.543L374.73 57.81a7.004 7.004 0 0 1-6.07 3.5zM297.277 355.867c-3.867 0-7-3.133-7-7v-28.101a7.001 7.001 0 0 1 14 0v28.09a7 7 0 0 1-7 7.011zM468.156 184.977h-28.078a7.001 7.001 0 0 1 0-14h28.086a7.001 7.001 0 0 1 0 14zM154.477 184.977h-28.102a7.001 7.001 0 0 1 0-14h28.102a7.001 7.001 0 0 1 0 14zM382.719 332.977a7.007 7.007 0 0 1-6.074-3.5l-14.043-24.329a7.002 7.002 0 0 1 6.055-10.543 7.01 7.01 0 0 1 6.07 3.543l14.043 24.329a7.006 7.006 0 0 1 0 6.992 7.02 7.02 0 0 1-6.055 3.508zM445.254 270.422a6.984 6.984 0 0 1-3.492-.938l-24.328-14.046a6.988 6.988 0 0 1-3.54-6.07 6.992 6.992 0 0 1 3.512-6.083 6.987 6.987 0 0 1 7.028.031l24.328 14.043a6.999 6.999 0 0 1-3.508 13.063zM149.277 270.422a7.006 7.006 0 0 1-6.77-5.188 7 7 0 0 1 3.266-7.875l24.305-14.043a6.987 6.987 0 0 1 7.027-.03 6.992 6.992 0 0 1 3.512 6.081 6.988 6.988 0 0 1-3.539 6.07l-24.328 14.047a6.993 6.993 0 0 1-3.473.938zM211.813 332.977a7.02 7.02 0 0 1-6.055-3.508 7.006 7.006 0 0 1 0-6.992l14.043-24.329a7.01 7.01 0 0 1 6.07-3.543 7.002 7.002 0 0 1 6.055 10.543l-14.043 24.329a7.017 7.017 0 0 1-6.07 3.5zm0 0" fill="#fabe02" opacity="1" data-original="#fabe02"/>
    </g>
    <g transform="matrix(1, 0, 0, 1, 12.039108, 167.439453)">
      <path fill="#d9ecf2" d="M116.93.113c-24.543.016-45.871 16.86-51.57 40.73a34.18 34.18 0 1 0-13.88 65.415h65.45c29.312 0 53.07-23.762 53.07-53.07C170 23.875 146.242.112 116.93.112zm0 0" opacity="1" data-original="#d9ecf2"/>
      <path fill="#bdd9e5" d="M170 53.188a53.029 53.029 0 0 0-27.027-46.215 109.812 109.812 0 0 0-54.801 69.414 71.652 71.652 0 0 0-69.91 3.601c3.66 15.39 17.406 26.262 33.226 26.27h65.442c29.312 0 53.07-23.762 53.07-53.07zm0 0" opacity="1" data-original="#bdd9e5" class=""/>
      <path fill="#bdd9e5" d="M51.484 37.883c-.57 0-1.125.054-1.691.082a30.79 30.79 0 0 0 15.566 25.422 49.923 49.923 0 0 1 0-22.543 33.98 33.98 0 0 0-13.875-2.961zm0 0" opacity="1" data-original="#bdd9e5" class=""/>
      <path fill="#26a3b9" d="M411.848 120.29c3.535-27.747-10.13-54.86-34.536-68.524s-54.667-11.141-76.472 6.379C276.703 22.437 233.87 4.19 191.395 11.523c-42.477 7.336-76.708 38.887-87.477 80.622-26.715-13.079-58.719-8.43-80.61 11.71C1.419 124-5.874 155.504 4.939 183.215c10.816 27.71 37.523 45.95 67.269 45.941h331.2c28.624.028 52.44-21.992 54.652-50.531 2.207-28.535-17.934-53.96-46.223-58.34zm0 0" opacity="1" data-original="#26a3b9" class=""/>
      <path fill="#168aa5" d="M411.848 120.29a68.646 68.646 0 0 0-85.684-74.99c33.5 8.493 55.324 40.735 50.754 74.99 28.285 4.378 48.43 29.804 46.219 58.339-2.211 28.539-26.028 50.559-54.653 50.531h34.93c28.625.028 52.441-21.992 54.652-50.531 2.211-28.535-17.933-53.961-46.218-58.34zm0 0" opacity="1" data-original="#168aa5" class=""/>
      <path fill="#168aa5" d="M345.84 153.438a50.215 50.215 0 0 0-20.746 4.5c-12.903-27.114-42.207-42.407-71.828-37.481-29.625 4.922-52.407 28.871-55.844 58.703a38.247 38.247 0 0 0-38.656 10.676 38.245 38.245 0 0 0-7.88 39.324H389.45a50.376 50.376 0 0 0-43.597-75.719zM78.754 85.07c2.281 42.032 26.933 60.266 26.933 60.266a113.625 113.625 0 0 1-1.769-53.191 72.093 72.093 0 0 0-25.164-7.075zm0 0" opacity="1" data-original="#168aa5" class=""/>
      <path fill="#d9ecf2" d="M345.84 176.094a50.215 50.215 0 0 0-20.746 4.5c-12.903-27.114-42.207-42.406-71.828-37.48-29.625 4.921-52.407 28.87-55.844 58.698a38.331 38.331 0 0 0-39.64 11.86 38.322 38.322 0 0 0 29.07 63.3H345.84c27.86 0 50.445-22.581 50.445-50.44 0-27.856-22.586-50.442-50.445-50.442zm0 0" opacity="1" data-original="#d9ecf2"/>
      <g fill="#bdd9e5">
        <path d="M299.41 180.594a50.215 50.215 0 0 1 20.746-4.5c.89 0 1.758.09 2.633.133-14.281-25.133-43.023-38.332-71.39-32.782a67.476 67.476 0 0 1 48.011 37.149zM345.84 176.094c-4.313.02-8.61.601-12.774 1.73 24.543 6.426 40.485 30.098 37.211 55.258-3.273 25.16-24.742 43.965-50.117 43.895h25.68c27.86 0 50.445-22.582 50.445-50.442 0-27.855-22.586-50.441-50.445-50.441zm0 0" fill="#bdd9e5" opacity="1" data-original="#bdd9e5" class=""/>
        <path d="M330 214.277s16.133-11.05 14.914-38.132a50.313 50.313 0 0 0-19.82 4.453 65.232 65.232 0 0 1 4.906 33.68zm0 0" fill="#bdd9e5" opacity="1" data-original="#bdd9e5" class=""/>
      </g>
    </g>
  </g>
</svg>