<?xml version="1.0" encoding="utf-8"?>
<svg viewBox="0 0 500 500" xmlns="http://www.w3.org/2000/svg">
  <g transform="matrix(1, 0, 0, 1, 16.858083724975586, 24.867523193359375)">
    <path fill="#fabe02" d="M 349.923 161.297 C 349.923 225.137 298.168 276.887 234.329 276.887 C 170.49 276.887 118.735 225.137 118.735 161.297 C 118.735 97.457 170.489 45.703 234.329 45.703 C 298.169 45.703 349.922 97.457 349.922 161.297 L 349.923 161.297 Z M 349.923 161.297" opacity="1" data-original="#fabe02"/>
    <path fill="#f59a1d" d="M 234.34 45.687 C 228.918 45.695 223.504 46.077 218.137 46.84 C 275.145 54.906 317.524 103.703 317.524 161.277 C 317.524 218.855 275.145 267.652 218.137 275.718 C 260.985 281.855 303.677 263.538 328.751 228.258 C 353.829 192.972 357.094 146.636 337.211 108.188 C 317.325 69.738 277.629 45.617 234.341 45.688 L 234.34 45.687 Z M 234.34 45.687" opacity="1" data-original="#f59a1d"/>
    <g fill="#fabe02" transform="matrix(1, 0, 0, 1, -62.9375, -16.679687)">
      <path d="M297.277 42.176c-3.867 0-7-3.137-7-7V7.082a7.001 7.001 0 0 1 14 0v28.086a6.99 6.99 0 0 1-2.047 4.953 6.991 6.991 0 0 1-4.953 2.055zM225.871 61.309a7.017 7.017 0 0 1-6.07-3.5L205.758 33.48a7.002 7.002 0 0 1 12.125-7l14.043 24.329a7.01 7.01 0 0 1-6.055 10.5zM173.59 113.566a6.997 6.997 0 0 1-3.512-.93L145.75 98.59a6.998 6.998 0 0 1-3.54-6.07 6.984 6.984 0 0 1 3.513-6.082 6.987 6.987 0 0 1 7.027.03l24.328 14.044a7 7 0 0 1 3.266 7.875 7.006 7.006 0 0 1-6.77 5.187zM420.941 113.566a6.995 6.995 0 0 1-6.77-5.183 6.996 6.996 0 0 1 3.263-7.88l24.328-14.046a7.006 7.006 0 0 1 9.523 2.586 7.002 7.002 0 0 1-2.523 9.539l-24.328 14.043a6.948 6.948 0 0 1-3.493.941zM368.66 61.309a7.01 7.01 0 0 1-6.055-10.5l14.043-24.329a7.01 7.01 0 0 1 6.07-3.543 7.002 7.002 0 0 1 6.055 10.543L374.73 57.81a7.004 7.004 0 0 1-6.07 3.5zM297.277 355.867c-3.867 0-7-3.133-7-7v-28.101a7.001 7.001 0 0 1 14 0v28.09a7 7 0 0 1-7 7.011zM468.156 184.977h-28.078a7.001 7.001 0 0 1 0-14h28.086a7.001 7.001 0 0 1 0 14zM154.477 184.977h-28.102a7.001 7.001 0 0 1 0-14h28.102a7.001 7.001 0 0 1 0 14zM382.719 332.977a7.007 7.007 0 0 1-6.074-3.5l-14.043-24.329a7.002 7.002 0 0 1 6.055-10.543 7.01 7.01 0 0 1 6.07 3.543l14.043 24.329a7.006 7.006 0 0 1 0 6.992 7.02 7.02 0 0 1-6.055 3.508zM445.254 270.422a6.984 6.984 0 0 1-3.492-.938l-24.328-14.046a6.988 6.988 0 0 1-3.54-6.07 6.992 6.992 0 0 1 3.512-6.083 6.987 6.987 0 0 1 7.028.031l24.328 14.043a6.999 6.999 0 0 1-3.508 13.063zM149.277 270.422a7.006 7.006 0 0 1-6.77-5.188 7 7 0 0 1 3.266-7.875l24.305-14.043a6.987 6.987 0 0 1 7.027-.03 6.992 6.992 0 0 1 3.512 6.081 6.988 6.988 0 0 1-3.539 6.07l-24.328 14.047a6.993 6.993 0 0 1-3.473.938zM211.813 332.977a7.02 7.02 0 0 1-6.055-3.508 7.006 7.006 0 0 1 0-6.992l14.043-24.329a7.01 7.01 0 0 1 6.07-3.543 7.002 7.002 0 0 1 6.055 10.543l-14.043 24.329a7.017 7.017 0 0 1-6.07 3.5zm0 0" fill="#fabe02" opacity="1" data-original="#fabe02"/>
    </g>
  </g>
  <g transform="matrix(1, 0, 0, 1, 38.57228088378906, 286.9052734375)">
    <path fill="#26a3b9" d="M 75.902 176.547 C 75.722 190.957 63.992 202.543 49.582 202.543 C 35.172 202.543 23.442 190.957 23.266 176.547 C 23.266 162.012 49.586 123.988 49.586 123.988 C 49.586 123.988 75.902 162.016 75.902 176.547 L 75.902 176.547 Z M 164.762 90.062 C 165.009 110.325 143.228 123.256 125.557 113.339 C 125.433 113.27 125.31 113.199 125.188 113.128 C 116.999 108.351 112.01 99.542 112.125 90.062 C 112.125 75.527 138.445 37.504 138.445 37.504 C 138.445 37.504 164.762 75.539 164.762 90.062 Z M 238.016 176.547 C 237.84 190.957 226.109 202.543 211.699 202.543 C 197.289 202.543 185.559 190.957 185.379 176.547 C 185.379 162.012 211.699 123.988 211.699 123.988 C 211.699 123.988 238.016 162.016 238.016 176.547 L 238.016 176.547 Z M 326.899 90.062 C 326.719 104.472 314.989 116.059 300.579 116.059 C 286.168 116.059 274.438 104.473 274.262 90.062 C 274.262 75.527 300.582 37.504 300.582 37.504 C 300.582 37.504 326.898 75.539 326.898 90.062 L 326.899 90.062 Z M 326.899 90.062" opacity="1" data-original="#26a3b9"/>
    <path fill="#168aa5" d="M 113.809 82.012 L 163.079 82.012 C 157.329 64.836 138.445 37.512 138.445 37.512 C 138.445 37.512 119.555 64.84 113.809 82.012 L 113.809 82.012 Z M 325.191 82.012 C 319.445 64.836 300.559 37.512 300.559 37.512 C 300.559 37.512 281.672 64.836 275.929 82.012 L 325.191 82.012 Z M 325.191 82.012" opacity="1" data-original="#168aa5"/>
    <path fill="#26a3b9" d="M 400.133 176.547 C 399.953 190.957 388.223 202.543 373.816 202.543 C 359.406 202.543 347.676 190.957 347.496 176.547 C 347.496 162.012 373.816 123.988 373.816 123.988 C 373.816 123.988 400.133 162.016 400.133 176.547 L 400.133 176.547 Z M 400.133 176.547" opacity="1" data-original="#26a3b9"/>
    <g fill="#168aa5" transform="matrix(1, 0, 0, 1, -12.164062, -154.917969)">
      <path d="M61.746 278.906s-2.57 3.711-6.105 9.258c7.777 12.211 20.218 33.309 20.218 43.3-.004 12.18-8.367 22.763-20.214 25.583a26.247 26.247 0 0 0 22.437-4.899 26.253 26.253 0 0 0 9.984-20.683c0-14.531-26.32-52.559-26.32-52.559zM150.61 192.434s-2.57 3.71-6.106 9.257c7.758 12.211 20.215 33.29 20.215 43.29.004 12.187-8.36 22.777-20.215 25.601a26.239 26.239 0 0 0 32.422-25.602c0-14.52-26.317-52.546-26.317-52.546zM223.86 278.906s-2.567 3.711-6.102 9.258c7.773 12.211 20.215 33.309 20.215 43.3-.008 12.18-8.371 22.763-20.215 25.583a26.253 26.253 0 0 0 22.437-4.899 26.237 26.237 0 0 0 9.98-20.683c.005-14.531-26.316-52.559-26.316-52.559zM312.719 192.434s-2.567 3.71-6.102 9.257c7.781 12.211 20.219 33.29 20.219 43.29.004 12.187-8.36 22.777-20.215 25.601a26.223 26.223 0 0 0 22.457-4.894 26.246 26.246 0 0 0 9.985-20.708c0-14.52-26.344-52.546-26.344-52.546zM385.977 278.906s-2.567 3.711-6.106 9.258c7.777 12.211 20.219 33.309 20.219 43.3-.008 12.184-8.38 22.766-20.23 25.583a26.247 26.247 0 0 0 22.437-4.899 26.24 26.24 0 0 0 9.984-20.683c.016-14.531-26.304-52.559-26.304-52.559zm0 0" fill="#168aa5" opacity="1" data-original="#168aa5"/>
    </g>
    <g transform="matrix(0.833328, 0, 0, 0.844704, 18.793339, -141.936371)" style="">
      <path fill="#d9ecf2" d="M116.93.113c-24.543.016-45.871 16.86-51.57 40.73a34.18 34.18 0 1 0-13.88 65.415h65.45c29.312 0 53.07-23.762 53.07-53.07C170 23.875 146.242.112 116.93.112zm0 0" opacity="1" data-original="#d9ecf2" class=""/>
      <path fill="#bdd9e5" d="M170 53.188a53.029 53.029 0 0 0-27.027-46.215 109.812 109.812 0 0 0-54.801 69.414 71.652 71.652 0 0 0-69.91 3.601c3.66 15.39 17.406 26.262 33.226 26.27h65.442c29.312 0 53.07-23.762 53.07-53.07zm0 0" opacity="1" data-original="#bdd9e5" class=""/>
      <path fill="#bdd9e5" d="M51.484 37.883c-.57 0-1.125.054-1.691.082a30.79 30.79 0 0 0 15.566 25.422 49.923 49.923 0 0 1 0-22.543 33.98 33.98 0 0 0-13.875-2.961zm0 0" opacity="1" data-original="#bdd9e5" class=""/>
      <path fill="#26a3b9" d="M411.848 120.29c3.535-27.747-10.13-54.86-34.536-68.524s-54.667-11.141-76.472 6.379C276.703 22.437 233.87 4.19 191.395 11.523c-42.477 7.336-76.708 38.887-87.477 80.622-26.715-13.079-58.719-8.43-80.61 11.71C1.419 124-5.874 155.504 4.939 183.215c10.816 27.71 37.523 45.95 67.269 45.941h331.2c28.624.028 52.44-21.992 54.652-50.531 2.207-28.535-17.934-53.96-46.223-58.34zm0 0" opacity="1" data-original="#26a3b9" class=""/>
      <path fill="#168aa5" d="M411.848 120.29a68.646 68.646 0 0 0-85.684-74.99c33.5 8.493 55.324 40.735 50.754 74.99 28.285 4.378 48.43 29.804 46.219 58.339-2.211 28.539-26.028 50.559-54.653 50.531h34.93c28.625.028 52.441-21.992 54.652-50.531 2.211-28.535-17.933-53.961-46.218-58.34zm0 0" opacity="1" data-original="#168aa5"/>
      <path fill="#168aa5" d="M345.84 153.438a50.215 50.215 0 0 0-20.746 4.5c-12.903-27.114-42.207-42.407-71.828-37.481-29.625 4.922-52.407 28.871-55.844 58.703a38.247 38.247 0 0 0-38.656 10.676 38.245 38.245 0 0 0-7.88 39.324H389.45a50.376 50.376 0 0 0-43.597-75.719zM78.754 85.07c2.281 42.032 26.933 60.266 26.933 60.266a113.625 113.625 0 0 1-1.769-53.191 72.093 72.093 0 0 0-25.164-7.075zm0 0" opacity="1" data-original="#168aa5"/>
      <path fill="#d9ecf2" d="M345.84 176.094a50.215 50.215 0 0 0-20.746 4.5c-12.903-27.114-42.207-42.406-71.828-37.48-29.625 4.921-52.407 28.87-55.844 58.698a38.331 38.331 0 0 0-39.64 11.86 38.322 38.322 0 0 0 29.07 63.3H345.84c27.86 0 50.445-22.581 50.445-50.44 0-27.856-22.586-50.442-50.445-50.442zm0 0" opacity="1" data-original="#d9ecf2" class=""/>
      <g fill="#bdd9e5">
        <path d="M299.41 180.594a50.215 50.215 0 0 1 20.746-4.5c.89 0 1.758.09 2.633.133-14.281-25.133-43.023-38.332-71.39-32.782a67.476 67.476 0 0 1 48.011 37.149zM345.84 176.094c-4.313.02-8.61.601-12.774 1.73 24.543 6.426 40.485 30.098 37.211 55.258-3.273 25.16-24.742 43.965-50.117 43.895h25.68c27.86 0 50.445-22.582 50.445-50.442 0-27.855-22.586-50.441-50.445-50.441zm0 0" fill="#bdd9e5" opacity="1" data-original="#bdd9e5" class=""/>
        <path d="M330 214.277s16.133-11.05 14.914-38.132a50.313 50.313 0 0 0-19.82 4.453 65.232 65.232 0 0 1 4.906 33.68zm0 0" fill="#bdd9e5" opacity="1" data-original="#bdd9e5" class=""/>
      </g>
    </g>
  </g>
</svg>