<svg xmlns="http://www.w3.org/2000/svg" version="1.1" xmlns:xlink="http://www.w3.org/1999/xlink" width="512" height="512" x="0" y="0" viewBox="0 0 475.166 475" style="enable-background:new 0 0 512 512" xml:space="preserve" class=""><g><path fill="#fabe02" d="M412.86 177.977c0 63.84-51.755 115.59-115.594 115.59s-115.594-51.75-115.594-115.59S233.426 62.383 297.266 62.383s115.593 51.754 115.593 115.594zm0 0" opacity="1" data-original="#fabe02"></path><path fill="#f59a1d" d="M297.277 62.367c-5.422.008-10.836.39-16.203 1.153 57.008 8.066 99.387 56.863 99.387 114.437 0 57.578-42.379 106.375-99.387 114.441 42.848 6.137 85.54-12.18 110.614-47.46 25.078-35.286 28.343-81.622 8.46-120.07-19.886-38.45-59.582-62.571-102.87-62.5zm0 0" opacity="1" data-original="#f59a1d"></path><path fill="#f59a1d" d="M343.754 197.828a68.33 68.33 0 0 0-42.93 15.117c-26.09-38.562-73.695-56.437-118.722-44.578-.262 3.172-.43 6.371-.43 9.602.008 53.793 37.121 100.472 89.527 112.601 52.41 12.133 106.258-13.484 129.906-61.804a68.571 68.571 0 0 0-57.351-30.938zm0 0" opacity="1" data-original="#f59a1d"></path><g fill="#fabe02"><path d="M297.277 42.176c-3.867 0-7-3.137-7-7V7.082a7.001 7.001 0 0 1 14 0v28.086a6.99 6.99 0 0 1-2.047 4.953 6.991 6.991 0 0 1-4.953 2.055zM225.871 61.309a7.017 7.017 0 0 1-6.07-3.5L205.758 33.48a7.002 7.002 0 0 1 12.125-7l14.043 24.329a7.01 7.01 0 0 1-6.055 10.5zM173.59 113.566a6.997 6.997 0 0 1-3.512-.93L145.75 98.59a6.998 6.998 0 0 1-3.54-6.07 6.984 6.984 0 0 1 3.513-6.082 6.987 6.987 0 0 1 7.027.03l24.328 14.044a7 7 0 0 1 3.266 7.875 7.006 7.006 0 0 1-6.77 5.187zM420.941 113.566a6.995 6.995 0 0 1-6.77-5.183 6.996 6.996 0 0 1 3.263-7.88l24.328-14.046a7.006 7.006 0 0 1 9.523 2.586 7.002 7.002 0 0 1-2.523 9.539l-24.328 14.043a6.948 6.948 0 0 1-3.493.941zM368.66 61.309a7.01 7.01 0 0 1-6.055-10.5l14.043-24.329a7.01 7.01 0 0 1 6.07-3.543 7.002 7.002 0 0 1 6.055 10.543L374.73 57.81a7.004 7.004 0 0 1-6.07 3.5zM297.277 355.867c-3.867 0-7-3.133-7-7v-28.101a7.001 7.001 0 0 1 14 0v28.09a7 7 0 0 1-7 7.011zM468.156 184.977h-28.078a7.001 7.001 0 0 1 0-14h28.086a7.001 7.001 0 0 1 0 14zM154.477 184.977h-28.102a7.001 7.001 0 0 1 0-14h28.102a7.001 7.001 0 0 1 0 14zM382.719 332.977a7.007 7.007 0 0 1-6.074-3.5l-14.043-24.329a7.002 7.002 0 0 1 6.055-10.543 7.01 7.01 0 0 1 6.07 3.543l14.043 24.329a7.006 7.006 0 0 1 0 6.992 7.02 7.02 0 0 1-6.055 3.508zM445.254 270.422a6.984 6.984 0 0 1-3.492-.938l-24.328-14.046a6.988 6.988 0 0 1-3.54-6.07 6.992 6.992 0 0 1 3.512-6.083 6.987 6.987 0 0 1 7.028.031l24.328 14.043a6.999 6.999 0 0 1-3.508 13.063zM149.277 270.422a7.006 7.006 0 0 1-6.77-5.188 7 7 0 0 1 3.266-7.875l24.305-14.043a6.987 6.987 0 0 1 7.027-.03 6.992 6.992 0 0 1 3.512 6.081 6.988 6.988 0 0 1-3.539 6.07l-24.328 14.047a6.993 6.993 0 0 1-3.473.938zM211.813 332.977a7.02 7.02 0 0 1-6.055-3.508 7.006 7.006 0 0 1 0-6.992l14.043-24.329a7.01 7.01 0 0 1 6.07-3.543 7.002 7.002 0 0 1 6.055 10.543l-14.043 24.329a7.017 7.017 0 0 1-6.07 3.5zm0 0" fill="#fabe02" opacity="1" data-original="#fabe02"></path></g><path fill="#26a3b9" d="M411.824 301.566c3.543-27.746-10.117-54.867-34.523-68.535s-54.668-11.144-76.477 6.375c-24.148-35.699-66.976-53.93-109.449-46.59-42.469 7.344-76.695 38.895-87.457 80.63-26.715-13.079-58.719-8.43-80.61 11.71s-29.183 51.649-18.37 79.36c10.816 27.71 37.523 45.949 67.269 45.937h331.2c28.671.094 52.562-21.945 54.769-50.531 2.21-28.59-18.004-54.04-46.352-58.356zm0 0" opacity="1" data-original="#26a3b9"></path><path fill="#168aa5" d="M411.824 301.566a68.26 68.26 0 0 0-68.07-77.28 68.36 68.36 0 0 0-20.629 3.234c31.688 9.875 51.645 41.148 47.258 74.046 28.285 4.38 48.43 29.801 46.219 58.34-2.211 28.54-26.028 50.559-54.653 50.528h41.446c28.62.03 52.44-21.989 54.652-50.528 2.207-28.539-17.934-53.96-46.223-58.34zM72.629 266.047c5.601 45 33.035 60.578 33.035 60.578a113.605 113.605 0 0 1-1.746-53.2 71.784 71.784 0 0 0-31.29-7.378zm0 0" opacity="1" data-original="#168aa5"></path></g></svg>