<svg xmlns="http://www.w3.org/2000/svg" version="1.1" xmlns:xlink="http://www.w3.org/1999/xlink" width="512" height="512" x="0" y="0" viewBox="0 0 459 459.958" style="enable-background:new 0 0 512 512" xml:space="preserve" class=""><g><path fill="#fabe02" d="M233.996 83.477c41.426 41.43 41.426 108.597 0 150.023-41.43 41.43-108.598 41.43-150.027 0-41.43-41.426-41.43-108.594 0-150.023 41.43-41.43 108.597-41.43 150.027 0zm0 0" opacity="1" data-original="#fabe02" class=""></path><path fill="#f59a1d" d="M233.992 233.5a105.572 105.572 0 0 0 29.895-59.29c-27.188-31.136-69.977-43.66-109.664-32.093-39.684 11.57-69.047 45.121-75.246 85.992 1.601 1.836 3.246 3.645 4.992 5.391 41.43 41.43 108.593 41.43 150.023 0zm0 0" opacity="1" data-original="#f59a1d" class=""></path><path fill="#f59a1d" d="M233.992 83.477a105.886 105.886 0 0 0-88.472-30.192c52.945 6.766 92.609 51.824 92.609 105.2s-39.664 98.433-92.61 105.199c45.004 5.765 88.692-17.73 108.688-58.461 19.996-40.73 11.871-89.664-20.215-121.746zm0 0" opacity="1" data-original="#f59a1d" class=""></path><path fill="#fabe02" d="M66.313 72.82a6.969 6.969 0 0 1-4.95-2.05L43.137 52.54c-2.735-2.731-2.735-7.165 0-9.9s7.164-2.734 9.898 0l18.23 18.227a7.006 7.006 0 0 1 1.516 7.63 6.997 6.997 0 0 1-6.465 4.32zm-27.157 53.563a6.995 6.995 0 0 0-4.949-8.574l-24.922-6.672a7.003 7.003 0 0 0-8.57 4.968 7.003 7.003 0 0 0 4.969 8.57l24.906 6.673a6.978 6.978 0 0 0 5.312-.696 6.988 6.988 0 0 0 3.262-4.25zm-29.87 79.46 24.901-6.671a6.998 6.998 0 0 0 4.95-8.574 6.999 6.999 0 0 0-8.575-4.95L5.684 192.32a7 7 0 0 0 3.625 13.524zM199.644 33.712l6.671-24.898a7 7 0 0 0-13.523-3.625l-6.672 24.902a7.003 7.003 0 0 0 4.95 8.574 7.003 7.003 0 0 0 8.574-4.953zm-72.762 4.965a6.995 6.995 0 0 0 4.949-8.574l-6.68-24.915a7 7 0 0 0-13.523 3.625l6.672 24.899a7.007 7.007 0 0 0 3.258 4.27 7.007 7.007 0 0 0 5.324.695zM274.828 274.34a6.997 6.997 0 0 0 0-9.899l-18.226-18.234a7.01 7.01 0 0 0-9.903 0 7.002 7.002 0 0 0 0 9.902l18.23 18.23a6.997 6.997 0 0 0 9.9 0zM256.602 70.77l18.226-18.23c2.735-2.731 2.735-7.165 0-9.9s-7.164-2.734-9.898 0L246.7 60.868a7.002 7.002 0 0 0 9.902 9.903zM53.032 274.336l18.23-18.23a7.002 7.002 0 0 0 0-9.903 7.01 7.01 0 0 0-9.903 0l-18.226 18.234a6.997 6.997 0 0 0 0 9.899 6.997 6.997 0 0 0 9.898 0zm264.202-73.445a7 7 0 0 0-4.949-8.575l-24.906-6.671a7.003 7.003 0 0 0-8.574 4.949 7.003 7.003 0 0 0 4.953 8.574l24.902 6.672a6.988 6.988 0 0 0 5.317-.695 6.985 6.985 0 0 0 3.261-4.254zm-29.855-69.559 24.906-6.656a7 7 0 0 0-3.625-13.524l-24.902 6.672a7.003 7.003 0 0 0-4.953 8.574 7.003 7.003 0 0 0 8.574 4.95zM125.152 311.793l6.672-24.902a6.997 6.997 0 0 0-4.949-8.57 6.998 6.998 0 0 0-8.574 4.949l-6.672 24.898a7 7 0 0 0 13.523 3.625zm76.235 4.95a7 7 0 0 0 4.949-8.579l-6.672-24.898a6.998 6.998 0 0 0-8.574-4.95 6.997 6.997 0 0 0-4.95 8.57l6.673 24.903a7.006 7.006 0 0 0 3.261 4.254 7.013 7.013 0 0 0 5.313.695zm0 0" opacity="1" data-original="#fabe02" class=""></path><path fill="#26a3b9" d="M324.395 226.71a71.73 71.73 0 0 0-37.7 10.72c-13.093-49.184-59.222-82.176-109.996-78.68-50.777 3.496-91.945 42.504-98.172 93.02a60.502 60.502 0 0 0-61.324 20.535 60.505 60.505 0 0 0-7.754 64.203c10.031 21.105 31.313 34.55 54.68 34.539h260.266c39.859 0 72.167-32.309 72.167-72.168 0-39.856-32.308-72.168-72.167-72.168zm0 0" opacity="1" data-original="#26a3b9" class=""></path><path fill="#168aa5" d="M324.395 226.71a71.37 71.37 0 0 0-15.84 1.794c35.886 8.047 59.976 41.8 55.922 78.351-4.059 36.555-34.961 64.204-71.735 64.188h31.653c39.859 0 72.167-32.309 72.167-72.168 0-39.855-32.308-72.168-72.167-72.168zM283.2 226.844c-17.802-46.727-65.802-74.692-115.231-67.137 40.398 5.969 73.511 36.914 85.699 75.121a55.72 55.72 0 0 0 5.941 52.832s0-33.953 27.086-50.234c-.91-3.426-1.996-6.801-3.257-10.11-.063-.168-.153-.312-.239-.472zm0 0" opacity="1" data-original="#168aa5"></path><path fill="#26a3b9" d="M146.836 437.71c0 12.286-9.957 22.243-22.242 22.243s-22.242-9.957-22.242-22.242c0-12.281 22.242-44.399 22.242-44.399s22.242 32.118 22.242 44.399zM283.836 437.71c0 12.286-9.957 22.243-22.242 22.243s-22.242-9.957-22.242-22.242c0-12.281 22.242-44.399 22.242-44.399s22.242 32.118 22.242 44.399zm0 0" opacity="1" data-original="#26a3b9" class=""></path><g fill="#168aa5"><path d="M124.598 393.293s-2.977 4.305-6.743 10.34c6.551 10.5 15.504 26.281 15.504 34.078 0 9.691-6.27 18.266-15.504 21.203a22.24 22.24 0 0 0 28.98-21.203c0-12.281-22.237-44.418-22.237-44.418zM261.598 393.293s-2.977 4.305-6.743 10.34c6.551 10.5 15.504 26.281 15.504 34.078 0 9.691-6.27 18.266-15.504 21.203a22.24 22.24 0 0 0 28.98-21.203c0-12.281-22.237-44.418-22.237-44.418zm0 0" fill="#168aa5" opacity="1" data-original="#168aa5"></path></g></g></svg>