<svg xmlns="http://www.w3.org/2000/svg" version="1.1" xmlns:xlink="http://www.w3.org/1999/xlink" width="512" height="512" x="0" y="0" viewBox="0 0 477 477.024" style="enable-background:new 0 0 512 512" xml:space="preserve" class=""><g><path fill="#fabe02" d="M224.46 68.324c31.294 31.293 31.294 82.028 0 113.32-31.292 31.29-82.026 31.29-113.32 0-31.288-31.292-31.288-82.027 0-113.32 31.294-31.293 82.028-31.293 113.32 0zm0 0" opacity="1" data-original="#fabe02" class=""></path><path fill="#f59a1d" d="M247.664 130.285a103.508 103.508 0 0 0-157.074 16c10.344 37.703 46.41 62.418 85.305 58.457 38.898-3.96 69.242-35.441 71.77-74.457zm0 0" opacity="1" data-original="#f59a1d"></path><path fill="#f59a1d" d="M224.465 68.324a79.973 79.973 0 0 0-69.867-22.304c38.632 6.394 66.968 39.804 66.968 78.968 0 39.16-28.336 72.57-66.968 78.965 34.359 5.781 68.511-11.32 84.468-42.297 15.957-30.972 10.051-68.71-14.601-93.332zm0 0" opacity="1" data-original="#f59a1d"></path><g fill="#fabe02"><path d="M95.633 59.816a6.969 6.969 0 0 1-4.95-2.05L76.489 43.57c-2.734-2.734-2.734-7.168 0-9.902s7.168-2.734 9.899 0l14.199 14.195a7.006 7.006 0 0 1 1.516 7.63 7.006 7.006 0 0 1-6.465 4.32zM69.223 105.574a6.917 6.917 0 0 1-1.813-.242l-19.394-5.2A7 7 0 0 1 51.64 86.61l19.39 5.2a7 7 0 0 1-1.808 13.761zM49.824 163.598a6.998 6.998 0 0 1-6.93-6.09 6.997 6.997 0 0 1 5.122-7.672l19.394-5.2a6.997 6.997 0 0 1 8.57 4.95 6.998 6.998 0 0 1-4.949 8.574l-19.39 5.2a6.964 6.964 0 0 1-1.817.238zM194.219 33.406a7 7 0 0 1-6.762-8.8l5.2-19.395a7 7 0 0 1 13.523 3.625l-5.2 19.394a7.015 7.015 0 0 1-6.761 5.176zM141.383 33.406a7.008 7.008 0 0 1-6.754-5.203l-5.2-19.39a7.001 7.001 0 0 1 13.523-3.625l5.2 19.394a6.998 6.998 0 0 1-6.765 8.797zM254.164 218.348a6.969 6.969 0 0 1-4.95-2.051l-14.198-14.18a7.002 7.002 0 0 1 0-9.902 7.01 7.01 0 0 1 9.902 0l14.2 14.2a7 7 0 0 1-4.95 11.944zM239.965 59.816a6.997 6.997 0 0 1-6.465-4.32 7.006 7.006 0 0 1 1.516-7.629l14.199-14.195a7.002 7.002 0 0 1 9.902 9.902L244.918 57.77a6.99 6.99 0 0 1-4.953 2.046zM81.438 218.348a6.997 6.997 0 0 1-4.95-11.946l14.196-14.199a7.01 7.01 0 0 1 9.906.008 7.01 7.01 0 0 1-.008 9.906l-14.2 14.196a6.968 6.968 0 0 1-4.945 2.035zM285.777 163.598a6.946 6.946 0 0 1-1.816-.243l-19.395-5.199a7 7 0 0 1 3.625-13.523l19.395 5.199a7 7 0 0 1-1.809 13.762zM266.379 105.574a7 7 0 0 1-1.809-13.762l19.395-5.199a7 7 0 0 1 3.625 13.524l-19.395 5.199c-.59.16-1.203.238-1.816.238zM136.191 249.957a6.968 6.968 0 0 1-1.816-.242 6.995 6.995 0 0 1-4.945-8.574l5.199-19.391a7.003 7.003 0 0 1 8.574-4.953 7.003 7.003 0 0 1 4.95 8.574l-5.2 19.395a7.01 7.01 0 0 1-6.762 5.191zM199.41 249.957a7.01 7.01 0 0 1-6.758-5.2l-5.199-19.394a7.003 7.003 0 0 1 4.95-8.574 7.003 7.003 0 0 1 8.574 4.953l5.199 19.39a7.004 7.004 0 0 1-6.762 8.802zm0 0" fill="#fabe02" opacity="1" data-original="#fabe02" class=""></path></g><path fill="#d9ecf2" d="M312.934 191.535a69.974 69.974 0 0 0-36.778 10.453c-12.773-47.98-57.773-80.164-107.308-76.75-49.532 3.418-89.688 41.473-95.758 90.75a59.028 59.028 0 0 0-59.809 20.047 59.025 59.025 0 0 0 45.77 96.313h253.883c38.878 0 70.398-31.52 70.398-70.399 0-38.883-31.52-70.402-70.398-70.402zm0 0" opacity="1" data-original="#d9ecf2" class=""></path><path fill="#bdd9e5" d="M273.266 192.918c-.262-.715-.59-1.395-.868-2.102-.586-1.484-1.168-2.976-1.816-4.425-.691-1.54-1.457-3.04-2.219-4.54-.36-.706-.695-1.425-1.07-2.128-1.035-1.93-2.152-3.809-3.305-5.668-.144-.23-.27-.473-.398-.707a103.488 103.488 0 0 0-87.602-48.375c-4.437.007-8.87.293-13.273.863a103.416 103.416 0 0 1 62.289 31.344 82.645 82.645 0 0 1 21.312 62.617 92.716 92.716 0 0 0 0 11.601 3.488 3.488 0 0 0 6.801.895 53.789 53.789 0 0 1 23.074-30.316c-.82-3.094-1.832-6.102-2.925-9.063zM312.934 191.535c-4.356.012-8.7.43-12.973 1.254 35.715 6.715 60.445 39.524 57.07 75.707-3.379 36.188-33.75 63.852-70.093 63.84h26c38.878 0 70.398-31.52 70.398-70.399 0-38.882-31.52-70.402-70.398-70.402zM247.93 300.125c0 7.227-5.86 13.082-13.086 13.082s-13.082-5.855-13.082-13.082 5.855-13.086 13.082-13.086 13.086 5.86 13.086 13.086zm0 0" opacity="1" data-original="#bdd9e5"></path><path fill="#26a3b9" d="M168.805 325.316h-11.801l8.476-8.472a6.997 6.997 0 0 0 0-9.899 6.997 6.997 0 0 0-9.898 0l-18.375 18.371h-15.254v-15.234l18.371-18.367c2.735-2.73 2.735-7.164 0-9.899s-7.168-2.734-9.898 0l-8.473 8.477v-11.8a7.001 7.001 0 0 0-14 0v11.8l-8.476-8.477a7.001 7.001 0 0 0-9.813.086 6.997 6.997 0 0 0-.082 9.813l18.375 18.379v15.222H92.695L74.32 306.957a6.997 6.997 0 0 0-9.898 0 6.997 6.997 0 0 0 0 9.898l8.476 8.461H61.102c-3.868 0-7 3.133-7 7 0 3.868 3.132 7 7 7h11.796l-8.472 8.477a7.005 7.005 0 0 0-.016 9.91 7.008 7.008 0 0 0 9.91.012l18.375-18.399h15.258v15.258L89.578 372.95a6.997 6.997 0 0 0 0 9.899 6.997 6.997 0 0 0 9.899 0l8.476-8.477v11.8a7.001 7.001 0 0 0 14 0v-11.8l8.473 8.477c2.73 2.734 7.164 2.734 9.898 0s2.735-7.164 0-9.899l-18.37-18.375v-15.258h15.25l18.378 18.399a6.997 6.997 0 0 0 9.898 0 6.997 6.997 0 0 0 0-9.899l-8.476-8.5h11.8c3.868 0 7-3.132 7-7 0-3.867-3.132-7-7-7zm0 0" opacity="1" data-original="#26a3b9"></path><path fill="#168aa5" d="M114.27 278.48v11.801l7.683-7.683v-4.118a6.992 6.992 0 0 0-10.84-5.843 6.987 6.987 0 0 1 3.157 5.843zM66.637 306.957l18.375 18.36h7.683l-18.375-18.36a7.003 7.003 0 0 0-8.8-.906c.402.265.777.566 1.117.906zM91.793 281.805l8.477 8.476v-7.68l-.801-.8a6.997 6.997 0 0 0-8.801-.903c.406.262.781.567 1.125.907zM157.797 306.96a7.002 7.002 0 0 1 2.05 4.95 7.002 7.002 0 0 1-2.05 4.95l-8.477 8.456h7.684l8.476-8.472a7.001 7.001 0 0 0-8.8-10.8c.402.268.777.573 1.117.917zM132.64 281.805a6.995 6.995 0 0 1 0 9.898l-18.37 18.379v15.234h7.683v-15.234l18.371-18.367a6.997 6.997 0 0 0 .488-9.383 6.995 6.995 0 0 0-9.289-1.414 7.01 7.01 0 0 1 1.118.887zM121.953 354.594v-15.278h-7.683v15.262l18.37 18.375a7.001 7.001 0 0 1-1.109 10.8 7 7 0 0 0 9.29-1.417 6.997 6.997 0 0 0-.489-9.383zM168.805 325.316h-7.684a7.001 7.001 0 0 1 0 14h7.684c3.867 0 7-3.132 7-7 0-3.867-3.133-7-7-7zM157.004 339.316h-7.684l8.477 8.477a7.001 7.001 0 0 1-1.11 10.8 7 7 0 0 0 9.29-1.417 6.997 6.997 0 0 0-.489-9.383zM100.27 374.387l-8.477 8.476c-.34.34-.711.64-1.11.907a7.003 7.003 0 0 0 8.801-.907l.801-.797zM114.27 374.387v11.8a6.99 6.99 0 0 1-3.16 5.844 6.992 6.992 0 0 0 10.84-5.844v-4.109zM85.012 339.316l-18.375 18.399c-.34.34-.711.644-1.11.906a7.003 7.003 0 0 0 8.801-.906l18.367-18.399zm0 0" opacity="1" data-original="#168aa5"></path><path fill="#26a3b9" d="M238.809 300.125c0 7.227-5.86 13.082-13.086 13.082-7.223 0-13.082-5.855-13.082-13.082s5.859-13.086 13.082-13.086c7.226 0 13.086 5.86 13.086 13.086zm0 0" opacity="1" data-original="#26a3b9"></path><path fill="#168aa5" d="M225.723 287.04a13.06 13.06 0 0 0-3.43.51c5.687 1.528 9.644 6.684 9.644 12.575s-3.957 11.047-9.644 12.57a13.054 13.054 0 0 0 13.414-4.175 13.046 13.046 0 0 0 1.863-13.926 13.06 13.06 0 0 0-11.847-7.559zm0 0" opacity="1" data-original="#168aa5"></path><path fill="#d9ecf2" d="M362.832 377.914c0 9.664-7.836 17.504-17.504 17.504s-17.504-7.84-17.504-17.504c0-9.668 7.836-17.504 17.504-17.504s17.504 7.836 17.504 17.504zM54.32 419.004c-7.976 0-14.445 6.469-14.445 14.445 0 7.977 6.469 14.442 14.445 14.442 7.977 0 14.446-6.465 14.446-14.442 0-7.976-6.47-14.445-14.446-14.445zm0 0" opacity="1" data-original="#d9ecf2" class=""></path><path fill="#bdd9e5" d="M54.32 419.004a14.256 14.256 0 0 0-4.843.894 14.364 14.364 0 0 1 0 27.098 14.403 14.403 0 0 0 15.273-3.789 14.402 14.402 0 0 0-10.43-24.21zM345.328 360.41a17.253 17.253 0 0 0-4.844.762 17.397 17.397 0 0 1 0 33.48c1.57.485 3.2.743 4.844.766 9.668 0 17.504-7.84 17.504-17.504 0-9.668-7.836-17.504-17.504-17.504zm0 0" opacity="1" data-original="#bdd9e5"></path><path fill="#26a3b9" d="M292.969 404.117h-14.504l10.398-10.402c2.735-2.73 2.735-7.164 0-9.899s-7.164-2.734-9.898 0l-20.297 20.301h-5.867a20.099 20.099 0 0 0-11.758-11.758v-5.867l20.297-20.297c2.734-2.734 2.734-7.164 0-9.898s-7.164-2.735-9.899 0l-10.402 10.398v-14.523a7.001 7.001 0 0 0-14 0v14.504l-10.398-10.399a7.002 7.002 0 0 0-9.903 0 7.005 7.005 0 0 0 0 9.899l20.297 20.297v5.867a20.082 20.082 0 0 0-11.754 11.758h-5.86l-20.296-20.301a7.002 7.002 0 0 0-9.902 0 7.005 7.005 0 0 0 0 9.898l10.402 10.403h-14.504a7.001 7.001 0 0 0 0 14h14.5l-10.402 10.398a7.01 7.01 0 0 0 0 9.902 7.01 7.01 0 0 0 9.902 0l20.297-20.296h5.867a20.075 20.075 0 0 0 11.754 11.753v5.86l-20.293 20.3a7.002 7.002 0 0 0 0 9.903 7.005 7.005 0 0 0 9.899 0l10.398-10.402v14.504a7.001 7.001 0 0 0 14 0v-14.504l10.402 10.402a7.005 7.005 0 0 0 9.899 0 7.002 7.002 0 0 0 0-9.902l-20.301-20.301v-5.863a20.082 20.082 0 0 0 11.758-11.754h5.867l20.297 20.293a7 7 0 0 0 9.656-.22 7 7 0 0 0 .242-9.655l-10.398-10.399h14.504c3.867 0 7-3.133 7-7s-3.133-7-7-7zM234.043 417.2a6.085 6.085 0 1 1 6.086-6.082 6.094 6.094 0 0 1-6.086 6.067zm0 0" opacity="1" data-original="#26a3b9"></path><path fill="#168aa5" d="m208.863 356.277 10.403 10.399v-7.758l-2.633-2.633a6.993 6.993 0 0 0-8.832-.87c.383.25.738.538 1.062.862zM181.355 383.797l20.31 20.32h5.866c.168-.449.438-.832.637-1.265l-19.035-19.04a6.993 6.993 0 0 0-8.832-.87c.379.25.73.535 1.054.855zM281.102 383.797a6.995 6.995 0 0 1 0 9.898l-10.403 10.403h7.766l10.398-10.403a6.996 6.996 0 0 0-8.832-10.77c.383.255.742.548 1.07.872zM233.266 352.172v14.504l7.777-7.758v-6.746a6.995 6.995 0 0 0-10.883-5.824 6.994 6.994 0 0 1 3.106 5.824zM253.578 356.277a7.002 7.002 0 0 1 2.05 4.95 7.002 7.002 0 0 1-2.05 4.949l-20.312 20.297v5.867a20.092 20.092 0 0 1 11.754 11.758h5.882l1.266-1.266a20.009 20.009 0 0 0-11.125-10.496v-5.867l20.297-20.297a6.993 6.993 0 0 0 .484-9.402 6.993 6.993 0 0 0-9.316-1.368c.383.254.742.547 1.07.875zM227.957 411.102a6.037 6.037 0 0 1 2.203-4.649 6.025 6.025 0 0 0-3.883-1.441 6.086 6.086 0 0 0-6.086 6.086 6.083 6.083 0 0 0 6.086 6.086 6.021 6.021 0 0 0 3.883-1.438 6.06 6.06 0 0 1-2.203-4.644zM207.52 418.117h-5.856l-20.297 20.297a6.923 6.923 0 0 1-1.066.871 6.993 6.993 0 0 0 8.832-.87l19.035-19.04c-.207-.457-.48-.832-.648-1.258zM278.465 418.117h-7.766l10.403 10.399a7.01 7.01 0 0 1 2.02 5.64 6.998 6.998 0 0 1-3.09 5.133 7.006 7.006 0 0 0 9.288-1.39 7.004 7.004 0 0 0-.457-9.383zM219.266 455.516l-10.403 10.402a6.923 6.923 0 0 1-1.066.871 6.998 6.998 0 0 0 8.832-.871l2.633-2.637zM292.969 404.117h-7.766c3.867 0 7 3.133 7 7s-3.133 7-7 7h7.766c3.867 0 7-3.133 7-7s-3.133-7-7-7zM233.266 455.516v14.504a6.994 6.994 0 0 1-3.118 5.824 6.99 6.99 0 0 0 7.188.351 6.99 6.99 0 0 0 3.695-6.175v-6.735zM241.043 435.715v-5.863a19.996 19.996 0 0 0 11.125-10.497l-1.266-1.261h-5.867a20.075 20.075 0 0 1-11.754 11.754v5.867l20.297 20.3a6.994 6.994 0 0 1-1.07 10.774 7.006 7.006 0 0 0 9.289-1.39 7.004 7.004 0 0 0-.457-9.383zm0 0" opacity="1" data-original="#168aa5"></path></g></svg>