<?xml version="1.0" encoding="utf-8"?>
<svg viewBox="0 0 500 500" xmlns="http://www.w3.org/2000/svg">
  <g transform="matrix(1, 0, 0, 1, 104.45056915283206, 25.709606170654297)"/>
  <g transform="matrix(1, 0, 0, 1, 14.061974525451689, 15.344438552856445)">
    <g fill="#f59a1d"/>
    <path fill="#bdd9e5" d="M 22.261 342.89 C 19.573 342.888 17.123 341.348 15.956 338.926 C 14.791 336.502 15.117 333.624 16.796 331.523 L 34.972 308.753 C 38.377 304.575 45.029 305.65 46.945 310.688 C 47.816 312.981 47.425 315.562 45.913 317.493 L 27.738 340.253 C 26.411 341.922 24.394 342.894 22.261 342.891 L 22.261 342.89 Z M 22.261 342.89" opacity="1" data-original="#bdd9e5"/>
    <path fill="#26a3b9" d="M 58.66 297.293 C 53.271 297.293 49.903 291.458 52.598 286.791 C 52.774 286.487 52.972 286.196 53.191 285.922 L 87.371 243.125 C 89.785 240.102 94.191 239.605 97.211 242.02 C 100.233 244.432 100.728 248.838 98.316 251.86 L 64.136 294.66 C 62.807 296.325 60.791 297.295 58.66 297.293 Z M 58.66 297.293" opacity="1" data-original="#26a3b9"/>
    <path fill="#bdd9e5" d="M 36.839 402.703 C 31.45 402.702 28.084 396.867 30.78 392.201 C 30.955 391.899 31.152 391.609 31.37 391.336 L 53.19 364 C 56.588 359.816 63.241 360.879 65.166 365.913 C 66.044 368.21 65.653 370.799 64.136 372.734 L 42.316 400.066 C 40.989 401.735 38.972 402.706 36.839 402.703 L 36.839 402.703 Z M 36.839 402.703" opacity="1" data-original="#bdd9e5"/>
    <path fill="#26a3b9" d="M 75.749 353.96 C 70.359 353.953 66.997 348.114 69.698 343.45 C 69.872 343.149 70.068 342.862 70.285 342.59 L 85.671 323.316 C 89.117 319.168 95.762 320.306 97.632 325.364 C 98.467 327.625 98.082 330.156 96.612 332.066 L 81.222 351.344 C 79.891 353.004 77.877 353.967 75.749 353.961 L 75.749 353.96 Z M 75.749 353.96" opacity="1" data-original="#26a3b9"/>
    <path fill="#bdd9e5" d="M 108.555 312.867 C 103.166 312.867 99.798 307.034 102.492 302.368 C 102.669 302.061 102.869 301.768 103.09 301.492 L 132.613 264.512 C 135.023 261.488 139.429 260.996 142.453 263.406 C 145.472 265.82 145.968 270.226 143.554 273.246 L 114.034 310.226 C 112.707 311.898 110.689 312.871 108.554 312.867 L 108.555 312.867 Z M 99.163 402.703 C 96.474 402.703 94.024 401.162 92.859 398.738 C 91.691 396.315 92.016 393.437 93.695 391.336 L 122.648 355.062 C 126.069 350.897 132.716 351.997 134.613 357.042 C 135.47 359.32 135.082 361.879 133.589 363.801 L 104.64 400.066 C 103.313 401.735 101.296 402.706 99.163 402.703 Z M 161.492 402.703 C 156.103 402.702 152.737 396.867 155.433 392.201 C 155.608 391.899 155.805 391.609 156.023 391.336 L 194.937 342.586 C 198.37 338.431 205.014 339.55 206.896 344.601 C 207.741 346.867 207.356 349.409 205.878 351.324 L 166.965 400.066 C 165.638 401.732 163.623 402.703 161.493 402.703 L 161.492 402.703 Z M 161.492 402.703" opacity="1" data-original="#bdd9e5"/>
    <path fill="#26a3b9" d="M 220.652 328.586 C 215.264 328.583 211.9 322.749 214.596 318.084 C 214.771 317.782 214.969 317.492 215.187 317.219 L 247.987 276.113 C 251.305 271.868 257.974 272.806 259.991 277.802 C 260.947 280.169 260.539 282.869 258.925 284.847 L 226.125 325.957 C 224.798 327.623 222.782 328.591 220.652 328.586 L 220.652 328.586 Z M 220.652 328.586" opacity="1" data-original="#26a3b9"/>
    <path fill="#bdd9e5" d="M 223.812 402.703 C 218.423 402.702 215.057 396.867 217.753 392.201 C 217.928 391.899 218.125 391.609 218.343 391.336 L 263.543 334.691 C 266.987 330.544 273.63 331.681 275.499 336.737 C 276.333 338.992 275.951 341.518 274.488 343.426 L 229.288 400.066 C 227.96 401.734 225.944 402.705 223.812 402.703 L 223.812 402.703 Z M 223.812 402.703" opacity="1" data-original="#bdd9e5"/>
    <path fill="#26a3b9" d="M 286.14 402.703 C 283.452 402.701 281.001 401.16 279.835 398.738 C 278.671 396.316 278.996 393.441 280.671 391.34 L 287.82 382.379 C 291.26 378.23 297.901 379.361 299.774 384.415 C 300.611 386.673 300.228 389.203 298.761 391.113 L 291.617 400.07 C 290.288 401.737 288.272 402.706 286.14 402.703 L 286.14 402.703 Z M 286.14 402.703" opacity="1" data-original="#26a3b9"/>
    <path fill="#bdd9e5" d="M 382.245 282.309 C 376.857 282.306 373.493 276.472 376.19 271.807 C 376.365 271.504 376.563 271.215 376.781 270.941 L 398.995 243.109 C 402.414 238.942 409.062 240.039 410.961 245.083 C 411.819 247.361 411.432 249.92 409.94 251.843 L 387.722 279.668 C 386.394 281.336 384.378 282.308 382.245 282.308 L 382.245 282.309 Z M 348.465 402.703 C 343.076 402.702 339.71 396.867 342.406 392.201 C 342.581 391.899 342.778 391.609 342.996 391.336 L 370.148 357.336 C 372.559 354.314 376.963 353.819 379.984 356.23 C 383.008 358.64 383.503 363.046 381.089 366.066 L 353.941 400.066 C 352.613 401.734 350.596 402.704 348.464 402.703 L 348.465 402.703 Z M 348.465 402.703" opacity="1" data-original="#bdd9e5"/>
    <path fill="#26a3b9" d="M 390.558 349.969 C 387.868 349.968 385.417 348.425 384.253 346 C 383.087 343.578 383.412 340.702 385.089 338.602 L 392.605 329.188 C 395.015 326.164 399.421 325.672 402.445 328.082 C 405.465 330.496 405.96 334.902 403.546 337.922 L 396.035 347.336 C 394.707 349.004 392.69 349.974 390.558 349.969 L 390.558 349.969 Z M 416.527 317.438 C 411.137 317.437 407.77 311.601 410.466 306.933 C 410.641 306.63 410.839 306.34 411.058 306.066 L 444.23 264.512 C 447.683 260.372 454.323 261.523 456.181 266.583 C 457.007 268.83 456.627 271.343 455.175 273.246 L 422.003 314.805 C 420.673 316.469 418.658 317.438 416.527 317.437 L 416.527 317.438 Z M 416.527 317.438" opacity="1" data-original="#26a3b9"/>
    <g transform="matrix(1, 0, 0, 1, -7.171473, -10.056219)">
      <path fill="#d9ecf2" d="M116.93.113c-24.543.016-45.871 16.86-51.57 40.73a34.18 34.18 0 1 0-13.88 65.415h65.45c29.312 0 53.07-23.762 53.07-53.07C170 23.875 146.242.112 116.93.112zm0 0" opacity="1" data-original="#d9ecf2" class=""/>
      <path fill="#bdd9e5" d="M170 53.188a53.029 53.029 0 0 0-27.027-46.215 109.812 109.812 0 0 0-54.801 69.414 71.652 71.652 0 0 0-69.91 3.601c3.66 15.39 17.406 26.262 33.226 26.27h65.442c29.312 0 53.07-23.762 53.07-53.07zm0 0" opacity="1" data-original="#bdd9e5" class=""/>
      <path fill="#bdd9e5" d="M51.484 37.883c-.57 0-1.125.054-1.691.082a30.79 30.79 0 0 0 15.566 25.422 49.923 49.923 0 0 1 0-22.543 33.98 33.98 0 0 0-13.875-2.961zm0 0" opacity="1" data-original="#bdd9e5" class=""/>
      <path fill="#26a3b9" d="M411.848 120.29c3.535-27.747-10.13-54.86-34.536-68.524s-54.667-11.141-76.472 6.379C276.703 22.437 233.87 4.19 191.395 11.523c-42.477 7.336-76.708 38.887-87.477 80.622-26.715-13.079-58.719-8.43-80.61 11.71C1.419 124-5.874 155.504 4.939 183.215c10.816 27.71 37.523 45.95 67.269 45.941h331.2c28.624.028 52.44-21.992 54.652-50.531 2.207-28.535-17.934-53.96-46.223-58.34zm0 0" opacity="1" data-original="#26a3b9" class=""/>
      <path fill="#168aa5" d="M411.848 120.29a68.646 68.646 0 0 0-85.684-74.99c33.5 8.493 55.324 40.735 50.754 74.99 28.285 4.378 48.43 29.804 46.219 58.339-2.211 28.539-26.028 50.559-54.653 50.531h34.93c28.625.028 52.441-21.992 54.652-50.531 2.211-28.535-17.933-53.961-46.218-58.34zm0 0" opacity="1" data-original="#168aa5"/>
      <path fill="#168aa5" d="M345.84 153.438a50.215 50.215 0 0 0-20.746 4.5c-12.903-27.114-42.207-42.407-71.828-37.481-29.625 4.922-52.407 28.871-55.844 58.703a38.247 38.247 0 0 0-38.656 10.676 38.245 38.245 0 0 0-7.88 39.324H389.45a50.376 50.376 0 0 0-43.597-75.719zM78.754 85.07c2.281 42.032 26.933 60.266 26.933 60.266a113.625 113.625 0 0 1-1.769-53.191 72.093 72.093 0 0 0-25.164-7.075zm0 0" opacity="1" data-original="#168aa5"/>
      <path fill="#d9ecf2" d="M345.84 176.094a50.215 50.215 0 0 0-20.746 4.5c-12.903-27.114-42.207-42.406-71.828-37.48-29.625 4.921-52.407 28.87-55.844 58.698a38.331 38.331 0 0 0-39.64 11.86 38.322 38.322 0 0 0 29.07 63.3H345.84c27.86 0 50.445-22.581 50.445-50.44 0-27.856-22.586-50.442-50.445-50.442zm0 0" opacity="1" data-original="#d9ecf2" class=""/>
      <g fill="#bdd9e5">
        <path d="M299.41 180.594a50.215 50.215 0 0 1 20.746-4.5c.89 0 1.758.09 2.633.133-14.281-25.133-43.023-38.332-71.39-32.782a67.476 67.476 0 0 1 48.011 37.149zM345.84 176.094c-4.313.02-8.61.601-12.774 1.73 24.543 6.426 40.485 30.098 37.211 55.258-3.273 25.16-24.742 43.965-50.117 43.895h25.68c27.86 0 50.445-22.582 50.445-50.442 0-27.855-22.586-50.441-50.445-50.441zm0 0" fill="#bdd9e5" opacity="1" data-original="#bdd9e5" class=""/>
        <path d="M330 214.277s16.133-11.05 14.914-38.132a50.313 50.313 0 0 0-19.82 4.453 65.232 65.232 0 0 1 4.906 33.68zm0 0" fill="#bdd9e5" opacity="1" data-original="#bdd9e5" class=""/>
      </g>
    </g>
    <path fill="#bdd9e5" d="M 144.773 345.318 C 139.384 345.317 136.018 339.482 138.714 334.816 C 138.889 334.514 139.086 334.224 139.304 333.951 L 184.504 277.306 C 187.948 273.159 194.591 274.296 196.46 279.352 C 197.294 281.607 196.912 284.133 195.449 286.041 L 150.249 342.681 C 148.921 344.349 146.905 345.32 144.773 345.318 Z M 144.773 345.318" opacity="1" data-original="#bdd9e5"/>
    <path fill="#bdd9e5" d="M 317.807 363.581 C 312.418 363.58 309.052 357.745 311.748 353.079 C 311.923 352.777 312.12 352.487 312.338 352.214 L 357.538 295.569 C 360.982 291.422 367.625 292.559 369.494 297.615 C 370.328 299.87 369.946 302.396 368.483 304.304 L 323.283 360.944 C 321.955 362.612 319.939 363.583 317.807 363.581 Z M 317.807 363.581" opacity="1" data-original="#bdd9e5"/>
    <path fill="#26a3b9" d="M 286.731 323.549 C 284.043 323.547 281.592 322.006 280.426 319.584 C 279.262 317.162 279.587 314.287 281.262 312.186 L 288.411 303.225 C 291.851 299.076 298.492 300.207 300.365 305.261 C 301.202 307.519 300.819 310.049 299.352 311.959 L 292.208 320.916 C 290.879 322.583 288.863 323.552 286.731 323.549 Z M 286.731 323.549" opacity="1" data-original="#26a3b9"/>
  </g>
</svg>