<svg xmlns="http://www.w3.org/2000/svg" version="1.1" xmlns:xlink="http://www.w3.org/1999/xlink" width="512" height="512" x="0" y="0" viewBox="0 0 430.254 430" style="enable-background:new 0 0 512 512" xml:space="preserve" class=""><g><path fill="#26a3b9" d="M43.512 103.762c-3.348-26.067 9.48-51.551 32.41-64.39s51.363-10.458 71.836 6.015C170.43 11.863 210.648-5.262 250.53 1.629s72.024 36.516 82.133 75.707c25.086-12.285 55.145-7.922 75.703 10.992 20.555 18.914 27.406 48.504 17.246 74.527-10.156 26.024-35.238 43.149-63.176 43.133H51.442C24.578 206 2.231 185.328.152 158.547c-2.078-26.785 16.813-50.656 43.36-54.785zm0 0" opacity="1" data-original="#26a3b9" class=""></path><path fill="#168aa5" d="M205.469 202.125a23.36 23.36 0 1 0-46.36 3.863h46a23.34 23.34 0 0 0 .36-3.863zM303.418 77.336a67.48 67.48 0 0 1 27.16-6.879c-15.695-47.305-63.094-76.5-112.398-69.234 41.172 5.832 74.8 35.859 85.238 76.113zM362.438 70.375a66.9 66.9 0 0 0-14.59 1.633c33.824 7.426 56.617 39.152 52.855 73.578-3.765 34.426-32.875 60.48-67.504 60.422h29.238c37.16-.403 67.067-30.64 67.067-67.801 0-37.16-29.906-67.394-67.066-67.8zm0 0" opacity="1" data-original="#168aa5"></path><path fill="#168aa5" d="M331.02 127.277a144.388 144.388 0 0 0 26.199-56.668 67.607 67.607 0 0 0-24.555 6.73 106.731 106.731 0 0 1-1.644 49.938zm0 0" opacity="1" data-original="#168aa5"></path><path fill="#d9ecf2" d="M81.816 252.977c.004 10.765-8.722 19.496-19.488 19.5-10.766.003-19.496-8.723-19.5-19.489-.008-10.765 8.715-19.496 19.48-19.504 10.774-.007 19.508 8.723 19.508 19.493zm23.106 132.613c-10.766 0-19.496 8.726-19.496 19.496 0 10.766 8.73 19.492 19.496 19.492 10.77 0 19.496-8.726 19.496-19.492 0-10.77-8.727-19.496-19.496-19.496zm161.965-34.938c-10.77 0-19.496 8.727-19.496 19.496 0 10.766 8.726 19.497 19.496 19.497 10.765 0 19.496-8.73 19.496-19.497 0-10.77-8.73-19.496-19.496-19.496zm27.824-122.601c-13.766 0-24.926 11.16-24.926 24.926 0 13.765 11.16 24.921 24.926 24.921 13.766 0 24.922-11.156 24.922-24.921 0-13.766-11.156-24.926-24.922-24.926zm-128.23-49.297c-12.899 0-23.36 10.457-23.36 23.36 0 12.898 10.461 23.359 23.36 23.359 12.902 0 23.363-10.461 23.363-23.36 0-12.902-10.461-23.36-23.364-23.36zm1.566 127.726c-7.77 0-14.07 6.297-14.07 14.067s6.3 14.07 14.07 14.07 14.066-6.3 14.066-14.07c-.008-7.766-6.304-14.055-14.07-14.05zm205.277-4.46c-7.77 0-14.07 6.3-14.07 14.07 0 7.77 6.3 14.066 14.07 14.066s14.067-6.297 14.067-14.066c-.008-7.766-6.305-14.055-14.067-14.055zm0 0" opacity="1" data-original="#d9ecf2"></path><g fill="#bdd9e5"><path d="M168.043 306.496a13.973 13.973 0 0 0-7.54 2.223 14.002 14.002 0 0 1 0 23.683 14.05 14.05 0 0 0 16.27-.832 14.053 14.053 0 0 0-8.73-25.078zM81.816 252.977a19.477 19.477 0 0 0-8.699-16.235 19.49 19.49 0 0 0-18.336-1.746 19.496 19.496 0 0 1 0 35.957 19.5 19.5 0 0 0 18.336-1.746 19.477 19.477 0 0 0 8.7-16.234zM104.922 385.59a19.366 19.366 0 0 0-7.54 1.515 19.492 19.492 0 0 1 11.954 17.977c0 7.852-4.711 14.941-11.953 17.977a19.486 19.486 0 0 0 21.289-4.149 19.493 19.493 0 0 0-13.75-33.32zM166.48 178.754a23.26 23.26 0 0 0-7.539 1.266 23.336 23.336 0 0 1 0 44.18c8.77 3 18.485.527 24.754-6.298 6.27-6.824 7.91-16.71 4.18-25.195s-12.125-13.96-21.395-13.953zM266.887 350.652a19.366 19.366 0 0 0-7.54 1.516 19.496 19.496 0 0 1 0 35.957 19.5 19.5 0 0 0 21.29-4.148 19.491 19.491 0 0 0 4.277-21.266 19.49 19.49 0 0 0-18.027-12.059zM373.324 302.035a13.966 13.966 0 0 0-7.543 2.227 14 14 0 0 1 6.535 11.84c0 4.808-2.468 9.277-6.535 11.843a14.057 14.057 0 0 0 20.824-16.48 14.05 14.05 0 0 0-13.28-9.434zM294.71 228.05c-2.558 0-5.1.395-7.538 1.169a24.93 24.93 0 0 1 17.379 23.758 24.927 24.927 0 0 1-17.38 23.757 24.922 24.922 0 0 0 30.274-33.945 24.929 24.929 0 0 0-22.734-14.738zm0 0" fill="#bdd9e5" opacity="1" data-original="#bdd9e5"></path></g></g></svg>