<svg xmlns="http://www.w3.org/2000/svg" version="1.1" xmlns:xlink="http://www.w3.org/1999/xlink" width="512" height="512" x="0" y="0" viewBox="0 0 454 454" style="enable-background:new 0 0 512 512" xml:space="preserve" class=""><g><path fill="#fabe02" d="M375.809 227c0 82.184-66.625 148.809-148.809 148.809S78.191 309.184 78.191 227 144.816 78.191 227 78.191 375.809 144.816 375.809 227zm0 0" opacity="1" data-original="#fabe02" class=""></path><g fill="#f59a1d"><path d="M227 78.2c-5.813.01-11.621.359-17.39 1.042 74.882 8.875 131.288 72.363 131.288 147.77s-56.406 138.89-131.289 147.765c54.871 6.47 108.809-17.996 140.086-63.539 31.278-45.547 34.746-104.672 9.004-153.562C332.961 108.789 282.25 78.187 227 78.199zM139.398 300.52a6.982 6.982 0 0 1-5.597-2.762 120.067 120.067 0 0 1-3.52-4.89 6.997 6.997 0 0 1 1.836-9.727 6.997 6.997 0 0 1 9.727 1.836c1 1.464 2.035 2.902 3.11 4.312a7 7 0 0 1-5.555 11.23zM125.137 275.59a7.01 7.01 0 0 1-6.485-4.356A116.364 116.364 0 0 1 110 227c0-3.867 3.133-7 7-7s7 3.133 7 7a102.44 102.44 0 0 0 7.602 38.938 7.01 7.01 0 0 1-6.48 9.652zm0 0" fill="#f59a1d" opacity="1" data-original="#f59a1d"></path></g><path fill="#fabe02" d="M227 50.164c-3.867 0-7-3.133-7-7V7c0-3.867 3.133-7 7-7s7 3.133 7 7v36.164c0 3.867-3.133 7-7 7zm-88.398 23.691a7 7 0 0 0 2.562-9.562l-18.086-31.32a7 7 0 0 0-12.121 7l18.082 31.32a7.019 7.019 0 0 0 4.25 3.266 7.005 7.005 0 0 0 5.316-.704zm-64.747 64.747a7.004 7.004 0 0 0-2.562-9.567l-31.32-18.082a6.987 6.987 0 0 0-7.028-.031 6.99 6.99 0 0 0-3.511 6.086 6.987 6.987 0 0 0 3.539 6.066l31.32 18.086a6.977 6.977 0 0 0 5.312.7 6.988 6.988 0 0 0 4.25-3.262zm315.852 2.562 31.32-18.086a7 7 0 0 0-7-12.121l-31.32 18.082a6.998 6.998 0 0 0-3.539 6.07 7.007 7.007 0 0 0 3.512 6.086 7.006 7.006 0 0 0 7.027-.03zM325 71.293l18.086-31.32a7.006 7.006 0 0 0-2.586-9.524 7.002 7.002 0 0 0-9.54 2.524l-18.085 31.32a7.006 7.006 0 0 0-.031 7.027 7.011 7.011 0 0 0 6.086 3.512 6.998 6.998 0 0 0 6.07-3.539zM234 447v-36.164c0-3.867-3.133-7-7-7s-7 3.133-7 7V447c0 3.867 3.133 7 7 7s7-3.133 7-7zm220-220c0-3.867-3.133-7-7-7h-36.164c-3.867 0-7 3.133-7 7s3.133 7 7 7H447c3.867 0 7-3.133 7-7zm-403.836 0c0-3.867-3.133-7-7-7H7c-3.867 0-7 3.133-7 7s3.133 7 7 7h36.164c3.867 0 7-3.133 7-7zM340.5 423.59a7.002 7.002 0 0 0 2.563-9.567l-18.083-31.32a6.998 6.998 0 0 0-6.07-3.539 7.007 7.007 0 0 0-6.086 3.512 7.006 7.006 0 0 0 .031 7.027l18.086 31.32a6.997 6.997 0 0 0 9.563 2.566zm83.09-83.09a6.997 6.997 0 0 0-2.567-9.563l-31.32-18.085a7.006 7.006 0 0 0-7.027-.032 7.007 7.007 0 0 0-3.512 6.086 6.998 6.998 0 0 0 3.54 6.07l31.32 18.083a6.998 6.998 0 0 0 9.566-2.563zm-383.602 2.563 31.32-18.083a6.998 6.998 0 0 0 3.54-6.07 6.998 6.998 0 0 0-10.54-6.055l-31.32 18.086a6.988 6.988 0 0 0-3.539 6.07 6.984 6.984 0 0 0 3.512 6.083 6.987 6.987 0 0 0 7.027-.032zm83.086 77.964 18.086-31.32a7.006 7.006 0 0 0 .031-7.027 7.007 7.007 0 0 0-6.086-3.512 6.998 6.998 0 0 0-6.07 3.539l-18.082 31.32a6.987 6.987 0 0 0-.031 7.028 6.99 6.99 0 0 0 6.086 3.511 6.987 6.987 0 0 0 6.066-3.539zm0 0" opacity="1" data-original="#fabe02" class=""></path></g></svg>