<svg xmlns="http://www.w3.org/2000/svg" version="1.1" xmlns:xlink="http://www.w3.org/1999/xlink" width="512" height="512" x="0" y="0" viewBox="0 0 32 32" style="enable-background:new 0 0 512 512" xml:space="preserve" class=""><g><path d="M2.5 29.87a1 1 0 0 0 1.36-.37c.64-1.12 1.39-2.42 2.24-3.82a37.13 37.13 0 0 0 6.48.65c3.84 0 6.88-.83 9.21-2.48 4.5-3.21 5.33-8.89 6-13.46.41-2.81.79-5.46 1.93-6.6a1 1 0 0 0-.61-1.7C28.5 2 14.55.83 7.69 8.56c-3.37 3.81-4.4 9.08-3.05 15.68-1 1.56-1.8 3-2.51 4.27a1 1 0 0 0 .37 1.36zm6.68-20C14 4.41 23.35 4 27.19 4a23.3 23.3 0 0 0-1.39 6.1c-.64 4.41-1.37 9.4-5.17 12.12-2.93 2.08-7.33 2.61-13.38 1.62 3.48-5.46 8.3-11.67 14.1-13.84a1 1 0 0 0-.7-1.87c-6 2.23-10.82 8.14-14.4 13.57-.61-4.94.37-8.9 2.94-11.81z" fill="" opacity="1" data-original="#000000" class=""></path></g></svg>